<svg xmlns="http://www.w3.org/2000/svg" viewBox="0 0 4037.17 3065.31"><defs><style>.cls-1{opacity:0.1;}.cls-2{fill:#e66358;}.cls-3{fill:#ed6f61;}.cls-4{fill:#f4dab7;}.cls-5{fill:#d4b4b5;}.cls-6{fill:#2e2044;}.cls-7{fill:#fec56e;}.cls-8{fill:#f8e7d1;}.cls-9{fill:#9e5d49;}.cls-10{fill:#c46964;}.cls-11{fill:#d69374;}.cls-12{fill:#7477de;}.cls-13{fill:#8bbcdd;}.cls-14{fill:#eeebe3;}.cls-15{fill:#f5f3ee;}.cls-16{fill:#fff;}.cls-17{fill:#a2c9e4;}.cls-18{fill:#241a18;}.cls-19{fill:#a7d4f5;}.cls-20{fill:#d9e4f7;}.cls-21{fill:#ba5f54;}.cls-22{fill:#ffebd0;}.cls-23{fill:#f57258;}.cls-24{fill:#ff8c80;}.cls-25{fill:#b7db00;}.cls-26{fill:#41262c;}</style></defs><title>aaaaa</title><g id="Layer_2" data-name="Layer 2"><g id="Layer_2-2" data-name="Layer 2"><path class="cls-1" d="M3340,2575.14c-554.22-108.33-1104.93-168.5-1670.64-142.9-465.94,21.08-941.6,132.56-1405.47,127.39L106.63,2731.15c408.8,0,818.43,95.22,1227,73.62,13.67,153-99.33,198.17,122,241.22,168.65,32.81,357.28,13.9,530.57,13.9,369.12,0,738.23-.74,1107.34,0,198.47.4,423.8-1.22,613.21-59.67,24.2-142.34,245.33-60.33,305.47-182.63C4098.4,2642.32,3448,2596.27,3340,2575.14Z"/><path class="cls-2" d="M2648.39,1024c-11,15-38.17,27.41-52.94,37.48q-10.2,7-20.21,14.26c-13.59,9.84-27,20-40.39,30.15-43.14,32.65-86.08,69.36-135,91.5-11.91,5.39-18.88,7.72-30.33,4-18-5.83-32.4-22.93-51.67-27-3.25-.67-13.71-2.91-16.94-2.47l17.23-135.47c49.54,9.86,75.45,36.3,125.32,47.92,25.23,5.88,63.66-35.8,89.73-45.91,10.22-4,21.88-7.8,33.85-12.08,27.45-9.79,56.5-21.81,73.31-42.37,2.38,7.32,7,14,9.29,21.16C2654.1,1019.09,2656.6,1012.84,2648.39,1024Z"/><path class="cls-3" d="M2577,952.93c-4.4,38.64-19.16,79.08-26.77,117.44a161.4,161.4,0,0,1-4.27,15.78c-17.42,55.71-74.82,190.16-76.35,216.6-.57,9.68-177.91-39.22-182.67-37.55l47.36-164.84c26,8,108.66,52.42,108.66,52.42s32.58-74.19,41.46-94.43c2.15-4.89,4.25-9.7,6.41-14.26a692.62,692.62,0,0,1,38.8-71.23c5.93-9.49,14.21-30.45,23.08-36.63C2565.78,927.14,2579,935.42,2577,952.93Z"/><path class="cls-4" d="M927.17,1827.94c9-138.48-19.8-185.81-177-170.61-115.34,11.15-262.31-50.77-326.47,9S309.38,1899,279.31,1983c-34.33,95.86-92.25,171-131.25,263.27-48.3,114.28-28,305.68-21.35,435.22C1213.34,2742,2302,2638.38,3385.44,2697.27c246.84,13.42,358.82,20,611.73,6.38,37.37-214,93.59-416.6-75.46-599.32-140.69-152.09-370.16-200.59-572.52-144.78-96.21-194.8-109.3-354.73-276-486.67-257.17-203.51-401.06-276.66-738-276.69-284.19,0-600.19-32.81-839.15,148.47-186.11,141.2-368.89,368-478.84,573.72-34.73,3-66-11.59-90-37.8Z"/><path class="cls-4" d="M134.29,2517.16C-88.75,2525.61,1,2832.33,151,2683.43Z"/><path class="cls-5" d="M143.81,2541.2c-22.82-8.15-44.07,6.8-61.27,29.67-25.9,34.45.49,83.55,43.52,81.25a98.93,98.93,0,0,0,21.5-3.26C146.11,2613,146.24,2577,143.81,2541.2Z"/><path class="cls-6" d="M3691.39,2709.75c7.75,40,31.59,80,62.5,103.94,5.06-24.83,28.15-51.67,33-76.56,13,26,56.52,53.37,72.27,76.56,6.12-25.32,25.08-47.92,29.34-72.65,13.31,30.32,51.05,53.25,63.89,72.95,15.71-52.48,69.06-115.71,84.8-166.34C3957.32,2644,3691.39,2709.75,3691.39,2709.75Z"/><path class="cls-6" d="M346.13,2378.15l3.46-1.42-3.46,1.41c-16.28-39.71-39.84-109.74-14.72-132.57,13.52-12.29,37.41-9.15,73,9.61L401,2261.8c-32.06-16.88-53.77-20.48-64.53-10.7-10.13,9.2-11.35,31.3-3.54,63.92,4.26,17.8,11,38.08,20.14,60.28Z"/><path class="cls-7" d="M940.52,2071.29c-10.7-97.76,14.11-295.9-26.82-380.84-49.16-102-284.16-71.45-426-59.94q-2.93,11.31-6,22.56c-14.81,53.87-32.57,106.83-54.47,158.25a636.61,636.61,0,0,1-32.92,67.27c6.37,96.82-13,211.66,8.17,314.69,1.64-.05,3.28-.11,4.91-.2q6.42-1.85,12.85-3.64c103.94-29,210.54-47.57,317.64-59.92q102.64-11.82,206-15.49C943.34,2101.15,942.24,2087,940.52,2071.29Z"/><path class="cls-6" d="M374.71,1893.74c183.46,84.57,227.38-277.75,66.05-239.24Z"/><path class="cls-6" d="M724.32,1847.44q-6.52,0-13.41-.41c-38-2.31-78.19-13.4-117-24.13-38.44-10.62-74.75-20.66-100.56-19l-.3-4.66c26.6-1.73,63.28,8.39,102.11,19.12,76,21,162.15,44.78,212.27-5.28l3.3,3.31C789.85,1837.24,761.5,1847.44,724.32,1847.44Z"/><path class="cls-6" d="M834.07,2043.29l-1.29-4.49c23.07-6.64,37-17,41.44-30.68s-1.13-30.87-16-49.81l3.67-2.89c16.12,20.51,21.76,38.73,16.79,54.14S858.73,2036.19,834.07,2043.29Z"/><path class="cls-8" d="M3903.74,1903c-157.15-244.1-451.56-283.31-712.35-253.45q18,27.5,34.75,55.8c30.3,51.11,58,103.75,83.88,157.21,27.42,56.58,52.77,114.14,76.93,172.18q34.5,82.89,65.54,167.16,29.21,78.68,56.33,158.11a23.83,23.83,0,0,1,1.29,7.94c13.07,20.85,28.23,39.78,46.36,55.83,105.08-69.66,308.39-80.78,389.44-185.55C4007.09,2159.16,3959.35,1989.4,3903.74,1903Z"/><path class="cls-6" d="M3530.1,2383c50.05,29.23,85.68,65.54,129.67,101,6.26-41.28,18.35-83.18,17.4-125.55,34.52,23.07,54.68,78.4,100.7,103.14,7.24-49.09,13.4-96.88,32-140.38,22.68,37.19,55.6,76.44,85.8,100.57,18.48-62.9,31-129,29.3-196.68Z"/><path class="cls-8" d="M1540.06,2381.46c0-221.68,23.51-488.2,146.24-703.8,52.79-92.74,140.46-178.7,268.32-125.35,99,41.31,115.74,209.62,147.77,315.9,45.83,152,80.91,314.24,135.22,460.6Z"/><path class="cls-6" d="M1705.11,1650.57c-.73-60.72,20.6-124,40.17-176.1,10.31,36.48,36.86,55.8,50.78,79,2-60.34,14.49-130.5,43.82-176.43,20.81,55.91,36.51,116.19,56.71,172.4,58.82-32.79,81.05-128.72,124.91-176.36,29.25,86.56,12.8,191,0,277.88Z"/><path class="cls-5" d="M411.79,2346.33c8.54,41.06,82.72,79.61,123,63.44,22.87-9.19,36.81-26.92,43.08-47.59,23-75.78-63-137.89-128.78-93.79C424.53,2284.82,404.19,2309.83,411.79,2346.33Z"/><path class="cls-9" d="M2385,1234.87c1.13-43.79-.73-87.6.28-131.37.64-27.47,2.58-55.55,1.45-83.31-100.43,1.94-261,.19-309.09-9.91l-91.19,206.44c73.69-25.28,166.62,14.39,243.24,19.41,50.27,3.29,106.67-1.73,154.35,16.07Q2384.57,1243.55,2385,1234.87Z"/><path class="cls-9" d="M1662.37,979.66c24.09,121.11,25.47,239.07,108.48,337.54,146.43-19.07,283.88-54.15,403.2-123.7-6.63-68.58-35-130.76-88.86-168.37Z"/><path class="cls-6" d="M1548.74,595.53c-20.12,57.63-62.58,111.32-100.73,160.64-26.34,34.05-42,74.57-74.42,105.27-21.61,20.48-60.78,41.35-75.79,65.61-23.76,38.41,41.75,68.66,72.64,88.53,17.49-18.92,29.85-46.69,49-62.63,6.7,22.77-15.93,51.27-33,67.48,63.9,48.12,149.63,52,225.28,78.41-5.13-27.67,11.33-53.44,7.62-77.43-2.16-14-9.32-14.57-17.37-26-20.06-28.55-31.93-51.07-39.43-85.24-16-73-8.14-141.44,3.67-216.57,4.15-26.46,35.93-70,33.24-96Z"/><path class="cls-10" d="M1503.91,808.74c-5.64-7-33.49-42.24-45.48-30.81-7.92,7.55,11.67,67.57,14.73,77.18Z"/><path class="cls-11" d="M1592.93,494.5c23.06,148.88-139.49,268.78-111,427.13,30.57,170,220.59,175.18,349.7,182.6,140.77,8.08,326.22,27.72,395.46-119.13,53.89-114.29,60.08-408.17-5.11-512.43-56.25-90-615.83-83.41-618.34,21.78Z"/><path class="cls-6" d="M2119.05,830.67c-3.51-149.74-193.8-300.8-236.05-424.91,60.5-6.26,213.15-15.88,315.88,5,34.1,45.78,43.24,63.05,82.19,85.82q-2.62,42-3.46,84.12a2406.13,2406.13,0,0,0,11.63,290.74c8.62,85.57,22.73,170.75,44.56,254,9.6,36.58,20.51,72.93,32.69,108.79-28.13-.78-42.73-17.1-47.38-42-4.59,19.23-15.24,34.94-26,55.27-57.9-22.29-154.42-29.8-217.93-35.23C2101.35,1082.63,2122.17,963.29,2119.05,830.67Z"/><path class="cls-10" d="M2168.84,860.6c27,.29,41.15,1.72,67.76,3.21,19,64.91-31.45,80.7-82.18,93.86Z"/><path class="cls-6" d="M2118.07,678c-22.64,12.65-86.49.69-111.38-5.86-23.14-6.1-16-5.19-18.68-26.65-2.86-23.37-5.86-46.73-8.79-70.1,4.91,29.15-10.08,61.43-17.63,88.39-33.56,4.74-73.5-8.06-108-9.76-42.89-2.12-84.6-7.82-127.33-12.93-27.26-3.26-87.58.64-109.78-15.77-14.57-10.77-108.94,36.23-83.69-5.1,16.07-26.31,67.35-159.65,76.63-189.8,53.35-8,92.62-6.09,145.3-18.86,72.5-17.56,173-4.43,248.57,11.64,29.89-15.93-1.89,2.2-4,4.93Z"/><path class="cls-10" d="M2038.29,1088.16c61.06-48.6-23.06-90.09-65.46-49.19C1951.18,1059.86,1992.39,1124.7,2038.29,1088.16Z"/><path class="cls-10" d="M1569.19,996.64c58.12-14.51-9.44-88.3-48.25-66.11C1499.16,943,1469.53,1021.51,1569.19,996.64Z"/><path class="cls-6" d="M1727.45,974c6.29.6,13.65-2.14,21.94-8.16l-2.57-3.54c-8.23,6-15.44,8.41-20.85,7-4-1-7.28-4.19-9.73-9.41l-4,1.86c3,6.45,7.27,10.42,12.6,11.79A17.91,17.91,0,0,0,1727.45,974Z"/><path class="cls-12" d="M2076.71,688.22c3.22-91.56-2.74-185-8.55-276-.41-6.43-.82-12.94-1.24-19.47l4.56.12c.4,6.39.81,12.76,1.21,19.06,5.89,92.18,11.93,186.81,8.45,279.59C2079.7,690.36,2078.21,689.27,2076.71,688.22Z"/><path class="cls-12" d="M2039.1,674.81c-1.24-83.26-12.5-212.46-20.58-282.11l4.46-.08c4.73,41,10.79,103.3,15.21,165.76q5,71.24,5.63,117.07C2042.26,675.2,2040.69,675,2039.1,674.81Z"/><path class="cls-12" d="M1921,660.82c3.71-40.79,6.82-81.85,9.85-122,3.53-46.83,7.15-94.78,11.73-142.3,1.53-.12,3.07-.22,4.6-.33-4.62,47.73-8.26,95.92-11.81,143-3,40.2-6.14,81.27-9.85,122.1Z"/><path class="cls-12" d="M1866,655.31c.19-2.66.39-5.21.61-7.6,6.09-66.24,5.71-132.93,5.34-197.42-.09-15.71-.19-31.69-.19-47.79l4.54-.42c0,16.22.09,32.34.19,48.18.37,64.61.75,131.41-5.36,197.86-.22,2.41-.42,5-.62,7.68Z"/><path class="cls-12" d="M1814.11,648.3c1.83-35.72,2.89-71.58,3.9-106.59,1.28-44.21,2.6-89.52,5.51-134.67l4.57-.43c-2.93,45.32-4.25,90.83-5.54,135.23-1,35.22-2.08,71.3-3.93,107.25Z"/><path class="cls-12" d="M1676.42,596.74c-5.72,14.09-11.14,27.48-13,42.33-.76.14-1.51.3-2.24.5-.79-.06-1.58-.1-2.38-.12,1.79-15.89,7.66-30.38,13.36-44.42,1.86-4.57,3.78-9.29,5.54-14,20.06-53.84,33.76-110.35,46.27-165.83,1.57-.1,3.15-.19,4.72-.3-12.62,56.05-26.42,113.18-46.74,167.71C1680.22,587.39,1678.28,592.14,1676.42,596.74Z"/><path class="cls-12" d="M2271.91,1228c1.11-23.7,3-50.31,5.12-77.76,1.57-20.48,2.81-36.66,2.8-44-.24-171.33-15.17-344.81-29.62-512.56-3.79-44.11-7.72-89.71-11.32-134.58l1.16-.09q1.82,2.24,3.74,4.41c3.5,43.34,7.28,87.3,10.95,129.87,14.45,167.85,29.39,341.42,29.63,512.94,0,7.56-1.23,23.82-2.81,44.4-1.81,23.52-3.95,51.45-5.15,78C2274.91,1228.41,2273.41,1228.23,2271.91,1228Z"/><path class="cls-12" d="M2211.12,859.68c4-76.77,5.24-148.68,3.91-217.59-.26-13.72.35-29.16,1-45.5,2-50.12,4.23-106.92-17.23-143.54l3.91-2.29c22.14,37.76,19.86,95.27,17.85,146-.64,16.27-1.25,31.64-1,45.23,1.33,68.69.06,140.33-3.85,216.8A33.3,33.3,0,0,0,2211.12,859.68Z"/><path class="cls-12" d="M2179.88,1274.62l-4.61.13c.12-.76.23-1.54.35-2.34l4.45,1C2180,1273.8,2179.94,1274.21,2179.88,1274.62Z"/><path class="cls-12" d="M2183.32,1203.12c7.44-77.28,14.19-153.69,20.11-227.42q1.46-18.16,2.73-35.94a34.56,34.56,0,0,0,4.55,0q-1.29,18-2.76,36.29c-5.94,74.06-12.73,150.82-20.2,228.45Z"/><path class="cls-12" d="M1381.29,960.62c6.63-9,12.89-17.41,19.2-25.47C1469,847.54,1515,744.76,1557.4,643.1a27.09,27.09,0,0,0,4.79.32c-42.72,102.4-88.93,206.05-158.13,294.52-6.27,8-12.51,16.46-19.12,25.38-10.41,14.07-21,28.35-32.16,41.69l-4.06-2.23C1360,989.34,1370.75,974.87,1381.29,960.62Z"/><path class="cls-12" d="M1489.49,932.37c.68,2.72,1.42,5.43,2.2,8.12-13.63,42.63-28.48,79.75-44.76,111.86l-4.15-1.85C1459.84,1016.88,1475.33,977.71,1489.49,932.37Z"/><path class="cls-12" d="M1519.74,1005.48c-4.82,21.33-10.3,43.35-17.58,64.29-1.38-.63-2.77-1.25-4.16-1.85,7.71-22.26,13.39-45.82,18.43-68.43Q1518.07,1002.51,1519.74,1005.48Z"/><polygon class="cls-13" points="1669.72 1540.79 1719.58 1492.54 1467.35 1067.19 1471.41 1216.53 1669.72 1540.79"/><path class="cls-14" d="M1484.69,1230.8c-24.24-41.28-18.9-73.52,3.76-114.38,21.85-39.4,74.8-86.2,87.07-100.18-.42,10.16,12,51.72,12,51.72s-85.1,160.7-92.76,160Z"/><path class="cls-15" d="M1493.5,1231.74c-14-45.87-6.72-66.54,16.08-107.35,19.28-34.53,90.66-85.34,104.42-98.35,6.78,16.34,25.91,53.25,25.91,53.25s-125.76,157.36-133.25,156Z"/><path class="cls-14" d="M1518.23,1230.76c-8.85-28,16-62,31.93-85.33,35.43-51.93,142.74-120.68,200.93-141.92l10.88,46.38Z"/><path class="cls-16" d="M1517.31,1235c-6.25-26.14,20.32-56.79,38-80,39.34-51.66,145.93-121.44,205-145.31l16.58,37.14Z"/><polygon class="cls-13" points="1711.66 1527.3 1971.31 1359.05 1776.41 1025.67 1515.56 1203.82 1711.66 1527.3"/><path class="cls-17" d="M1717.81,1525.23l-48.09,15.56s-190.4-301.74-198.31-324.26c-2.78-7.93,44.7-13.41,44.7-13.41Z"/><path class="cls-11" d="M2034.9,1149.77c-14.55,43.38,2.1,99.29,2.1,99.29s-205-7.72-257.83,30a20.19,20.19,0,0,1-.44,5.91c-3.39,18.39,13,34.53,31.17,30,77.54-19.29,187.5,16.31,265.39-4,68.6-17.91,59.73-39.94,57.35-110.63-.61-18.22-3.61-42.53-8.45-67C2074.75,1137.76,2084.35,1145.63,2034.9,1149.77Z"/><path class="cls-11" d="M1472.23,1286.43c36.37-31.57,119.21-41.21,99,33.25-15.66,57.83-101.12,35.1-105-24.61Z"/><path class="cls-6" d="M1584.26,886c.81,6-1.93,11.76-7.54,15.85-8.11,5.93-19.88,7.17-28.62,3-7.74-3.68-12.29-11.18-12.81-21.12l5.66-.29c.41,7.87,3.72,13.51,9.59,16.3,6.83,3.24,16.44,2.21,22.84-2.47,2.27-1.66,6-5.24,5.26-10.52Z"/><path class="cls-6" d="M2031.75,964.3c.81,6-1.93,11.76-7.54,15.85-8.11,5.93-19.88,7.17-28.62,3-7.74-3.69-12.3-11.19-12.81-21.12l5.66-.3c.41,7.87,3.72,13.51,9.59,16.3,6.83,3.24,16.43,2.21,22.84-2.47,2.27-1.66,6-5.24,5.26-10.52Z"/><path class="cls-18" d="M1565.91,763.7l-1.63.4-1.51-6.32c8.86-2.1,17.8-4.86,26.44-7.52,11-3.4,22.46-6.92,34-9.21l1.26,6.37c-11.24,2.22-22.49,5.69-33.37,9C1582.91,759,1574.43,761.6,1565.91,763.7Z"/><path class="cls-18" d="M2040.92,823.45c-24.16-16.43-41.68-29-58.3-41.81l4-5.14c16.52,12.72,33.83,25.16,58,41.58Z"/><path class="cls-7" d="M1374.75,871.37c6.25,49.43,39,89.53,89.89,110q4.26,1.71,8.48,3.27c43.4,16,83.21,19.27,115.61,9.39,30.47-9.3,54.19-30.3,66.8-59.15,1.43-3.28,2.7-6.64,3.83-10,62.63-32.93,132.76-.58,171.43,23.68a135.16,135.16,0,0,0,.79,25.4c6.25,49.43,39,89.53,89.89,110q4.26,1.71,8.48,3.27c43.4,16,83.21,19.27,115.61,9.39,30.47-9.3,54.19-30.3,66.8-59.15,13.67-31.27,13.36-69.12-.85-103.84-15.46-37.81-46.21-68.82-86.57-87.32-53.29-24.43-103.76-22.69-142.1,4.89-28,20.17-46.35,52.49-51.1,87.64-39.5-24-106.75-53.33-169.26-25.26,5.92-26.33,3.31-55.38-7.8-82.52-15.46-37.81-46.21-68.82-86.58-87.32-53.29-24.43-103.75-22.69-142.09,4.89C1388.81,775.4,1368.69,823.58,1374.75,871.37Zm513.31-13.09c32.19-23.16,73.9-26.58,118.7-10q7.18,2.65,14.49,6c83.14,38.11,107.81,123,83,179.76-19.93,45.59-75.15,80.54-170.87,45.22-2.84-1-5.7-2.15-8.6-3.32-47.82-19.27-78.59-56.8-84.44-103C1834.68,928.2,1853.41,883.2,1888.06,858.28ZM1431.23,755.71c35.64-25.64,83-27.08,133.19-4.05,83.14,38.12,107.81,123,83,179.76C1626.9,978.36,1569,1014,1468,973.32c-47.82-19.26-78.59-56.8-84.44-103C1377.85,825.63,1396.58,780.63,1431.23,755.71Z"/><polygon class="cls-19" points="2106.49 2996.6 2161.78 3003.99 2227.37 2562.41 2172.09 2555.01 2106.49 2996.6"/><path class="cls-6" d="M2043.66,2979.36c-2.34,16.72,10,32.08,27.63,34.31h0c17.61,2.23,33.78-9.52,36.13-26.24L2184,2441.69c2.34-16.72-10-32.08-27.63-34.31h0c-17.6-2.23-33.78,9.52-36.12,26.24Z"/><path class="cls-12" d="M2082.7,2842.52c-1,7.42,4.45,14.23,12.26,15.22h0c7.81,1,15-4.22,16-11.64l34-242.19c1-7.42-4.45-14.24-12.26-15.23h0c-7.81-1-15,4.22-16,11.65Z"/><polygon class="cls-3" points="1860.03 2977.88 2041.39 3002.18 2106.99 2560.58 1925.63 2536.29 1860.03 2977.88"/><polygon class="cls-20" points="1937.24 2749.75 2035.78 2762.94 2061.86 2587.32 1963.33 2574.12 1937.24 2749.75"/><path class="cls-5" d="M1694.75,2960.08c-2.86,24.78,16,47.07,42.07,49.78h0c26.1,2.72,49.57-15.17,52.43-40l43.44-376.68c2.86-24.78-16-47.06-42.07-49.78h0c-26.1-2.71-49.57,15.18-52.43,40Z"/><path class="cls-20" d="M1729.06,2925c-1.12,9.68,6.25,18.41,16.46,19.47h0c10.2,1.06,19.38-5.94,20.5-15.63l17-147.33c1.12-9.7-6.25-18.41-16.45-19.47h0c-10.21-1.06-19.39,5.93-20.51,15.62Z"/><polygon class="cls-12" points="1808.59 3004.94 1853.07 3011.32 1942.51 2448.79 1898.03 2442.41 1808.59 3004.94"/><polygon class="cls-7" points="1784.17 3004.01 1806.41 3007.2 1888.29 2492.22 1866.05 2489.02 1784.17 3004.01"/><polygon class="cls-9" points="2244.05 2988.78 2318.9 3008.08 2461.02 2511.1 2386.17 2491.8 2244.05 2988.78"/><polygon class="cls-5" points="2170.05 2998.4 2244.9 3017.7 2365.78 2595 2290.93 2575.7 2170.05 2998.4"/><polygon class="cls-21" points="2195.24 2969.61 2221.63 2976.42 2264.25 2827.37 2237.86 2820.56 2195.24 2969.61"/><polygon class="cls-21" points="2246.14 2795.38 2272.53 2802.19 2293.84 2727.66 2267.45 2720.86 2246.14 2795.38"/><polygon class="cls-19" points="1509.02 2997.49 1548.83 3016.55 1726.92 2680.99 1687.11 2661.93 1509.02 2997.49"/><polygon class="cls-7" points="1421.38 2963.59 1505.12 3003.67 1701.1 2634.38 1617.36 2594.31 1421.38 2963.59"/><polygon class="cls-20" points="1532.54 2815.75 1562.31 2829.99 1631.99 2698.71 1602.22 2684.46 1532.54 2815.75"/><path class="cls-13" d="M3452.82,2623.24l-1.21-1.57c10.72-7,14.93-19.51,19-31.64a125.56,125.56,0,0,1,5.91-15.43l1.91.81a123.56,123.56,0,0,0-5.82,15.2C3468.43,2603.05,3464.12,2615.91,3452.82,2623.24Z"/><path class="cls-13" d="M3473.64,2636.32l-.62-1.84c14.62-4.1,23.77-25.26,29.83-39.26l.63-1.47,1.94.73-.63,1.47C3498.59,2610.29,3489.22,2632,3473.64,2636.32Z"/><path class="cls-13" d="M3497.94,2649.45l-.74-1.8c9.88-3.32,18.42-10.18,26.11-21l1.75,1.06C3517.12,2638.89,3508.25,2646,3497.94,2649.45Z"/><path class="cls-13" d="M3385.53,2673.89a193,193,0,0,1-30.68-13.64l1.05-1.66a189,189,0,0,0,30.33,13.49Z"/><path class="cls-13" d="M3383.73,2702.69c-9.72-1.53-17.49-4.56-25.7-7.77-2.66-1-5.42-2.11-8.33-3.18l.75-1.78c3,1.07,5.71,2.15,8.38,3.19,8.45,3.3,15.75,6.15,25.24,7.64Z"/><path class="cls-13" d="M3352.41,2726.72c-2.38-.16-4.74-.34-7-.51l-4-.3.15-1.92,4,.3c11.64.89,24.84,1.89,33.33-.66l.66,1.83C3372.36,2727.61,3362.26,2727.37,3352.41,2726.72Z"/><path class="cls-13" d="M3342.49,2760.59l-.58-1.85c6.61-1.7,15.11-2.34,22.62-2.9,3.46-.26,6.73-.5,9.21-.82l.3,1.9c-2.54.33-5.83.58-9.32.84C3357.31,2758.31,3348.9,2758.94,3342.49,2760.59Z"/><path class="cls-13" d="M3446.17,2538.92l-1.49-1.37a80,80,0,0,0,13.54-16.23l1.82,1A82.4,82.4,0,0,1,3446.17,2538.92Z"/><path class="cls-13" d="M3444.93,2539.07c-6.83-3.47-10.78-7.4-12.07-12-2.12-7.55,3.32-15.37,8.59-22.92a82.88,82.88,0,0,0,6-9.44l1.9.82a86,86,0,0,1-6.13,9.67c-5,7.21-10.22,14.66-8.33,21.4,1.14,4.08,4.76,7.62,11,10.81Z"/><path class="cls-13" d="M3401.22,2507.06l-1.51-1.34a50.44,50.44,0,0,0,14-24.59l2.05.4A52.47,52.47,0,0,1,3401.22,2507.06Z"/><path class="cls-13" d="M3377.13,2493.73l-1.81-1c3.9-6.1,4.53-18.14,5.08-28.76.15-2.81.29-5.46.48-8l2.08.15c-.19,2.53-.32,5.17-.47,8C3381.9,2475.47,3381.28,2487.23,3377.13,2493.73Z"/><path class="cls-13" d="M3345.54,2497.2l-2-.54c3.36-11-1.79-23.41-13.11-31.64l1.29-1.5C3343.7,2472.24,3349.13,2485.46,3345.54,2497.2Z"/><path class="cls-13" d="M3316,2550.85l-.56-1.85c7.68-1.9,14.65-5.59,15.61-7.15l1.82,1C3331.41,2545.24,3323.53,2549,3316,2550.85Z"/><path class="cls-13" d="M3313.79,2593.34l-2-.55c5.19-16.41,19.52-26.18,33.38-35.63l4.18-2.86,1.27,1.54-4.2,2.87C3332.83,2568,3318.78,2577.55,3313.79,2593.34Z"/><path class="cls-13" d="M3334.3,2615l-2-.63c4-10.84,13.29-25.78,18.84-34.7,1.09-1.74,2-3.26,2.77-4.48l1.83.94c-.74,1.23-1.69,2.75-2.78,4.51C3347.46,2589.45,3338.22,2604.29,3334.3,2615Z"/><path class="cls-13" d="M3361.54,2628.54l-1.73-1.09c6.78-9.13,18.29-28.17,18.43-41.58l2.09,0C3380.19,2598.88,3370.12,2617,3361.54,2628.54Z"/><path class="cls-13" d="M3305.71,2518.49c-2.63-.18-5-.34-6.64-.47l.16-1.92c4,.32,12.32.84,18.37,1.21l4.82.3,1.42.09c.53,0,1.51.11,1.48,1a1,1,0,0,1-1.15.92v-.35l-.05.34c-.3,0-3.24-.21-6.64-.42C3313.89,2519,3309.52,2518.74,3305.71,2518.49Z"/><path class="cls-13" d="M3455.18,2765.15l-.26-1.91c16-1.7,31.3-1.7,44.27,0l-.28,1.9C3486.12,2763.47,3471,2763.47,3455.18,2765.15Z"/><path class="cls-13" d="M3463.71,2731.06l-.06-1.92c3.42-.06,6.9-.15,10.26-.24,12.11-.32,24.63-.64,37,.45l-.18,1.92c-12.23-1.09-24.69-.76-36.73-.45C3470.62,2730.91,3467.14,2731,3463.71,2731.06Z"/><path class="cls-13" d="M3491.47,2698.71a47,47,0,0,1-6.88-.95l.46-1.87c9.72,2.09,19.4.52,28.76-1A148.72,148.72,0,0,1,3529,2693l.15,1.92a146.37,146.37,0,0,0-14.91,1.89C3506.8,2698,3499.21,2699.21,3491.47,2698.71Z"/><path class="cls-13" d="M3365.63,2757.92c1.5-39.78,25.63-208.44,118.13-145.4,54.64,37.25,25.4,90.36,5.36,127-14.47,26.46-43,50.95-60.92,76.17h-56.55C3368.13,2796.46,3364.91,2777.11,3365.63,2757.92Z"/><path class="cls-13" d="M3437.76,2600.82c24.66-20.19,19.94-69.63-11.19-96.82-17-14.85-63.72-39.34-86.55-27.28-29.71,15.69-10.57,74.73,5,95.94,18.68,25.41,52.9,33.16,78.69,40.53Z"/><path class="cls-22" d="M3395.05,2684.24l-.18,2.67a4.29,4.29,0,0,0,1.16,3.14,5,5,0,0,0,3.24,1.48c2.55.06,4.82-1.59,5-4l.18-2.67a4.29,4.29,0,0,0-1.16-3.14,5,5,0,0,0-3.24-1.48c-2.55-.06-4.82,1.59-5,4Z"/><path class="cls-22" d="M3445.3,2657.1l2.9.19a5.1,5.1,0,0,0,3.4-1,4.23,4.23,0,0,0,1.59-3,4.6,4.6,0,0,0-4.4-4.63l-2.9-.19a5.1,5.1,0,0,0-3.41,1.05,4.23,4.23,0,0,0-1.58,3,4.59,4.59,0,0,0,4.4,4.62Z"/><path class="cls-22" d="M3450.91,2696.33l2.72,2.86a5.06,5.06,0,0,0,6.64.43,4.16,4.16,0,0,0,.42-6.1l-2.72-2.85a5.07,5.07,0,0,0-6.64-.44,4.15,4.15,0,0,0-.42,6.1Z"/><path class="cls-22" d="M3402.68,2726.54l2.9.19a5.08,5.08,0,0,0,3.41-1.05,4.23,4.23,0,0,0,1.58-3,4.58,4.58,0,0,0-4.39-4.62l-2.9-.19a5.13,5.13,0,0,0-3.41,1,4.25,4.25,0,0,0-1.58,3,4.59,4.59,0,0,0,4.39,4.63Z"/><path class="cls-22" d="M3443.59,2766.68a4.33,4.33,0,1,0,.59-8.63,4.33,4.33,0,1,0-.59,8.63Z"/><path class="cls-22" d="M3385.82,2760.21l2.89.19a5.07,5.07,0,0,0,3.41-1.05,4.19,4.19,0,0,0,1.58-3,4.58,4.58,0,0,0-4.39-4.62l-2.9-.19a5.13,5.13,0,0,0-3.41,1,4.27,4.27,0,0,0-1.58,3,4.59,4.59,0,0,0,4.4,4.63Z"/><path class="cls-22" d="M3481,2673.27a8.52,8.52,0,0,0,13.62.91c1.55-1.76.77-4.85-1.27-6a5.07,5.07,0,0,0-6.53,1.12c.08-.1.75-.7.27-.34.64-.36.8-.46.48-.31s-.14.07.23-.06c.76-.22.15,0,0,0-.54,0,1.31,0,.39,0-.67,0,.41,0,.49.12a1.74,1.74,0,0,0-.47-.16l.66.3q-.45-.3.06.09c.67.56-.34-.69.5.59a5,5,0,0,0-6.32-2c-2.08,1.05-3.45,3.71-2.09,5.79Z"/><path class="cls-22" d="M3363.52,2570.19l2.71,2.86a5.06,5.06,0,0,0,6.64.43,4.15,4.15,0,0,0,.42-6.1l-2.72-2.85a5.06,5.06,0,0,0-6.64-.44,4.15,4.15,0,0,0-.41,6.1Z"/><path class="cls-22" d="M3409.11,2522l-.18,2.66a4.26,4.26,0,0,0,1.16,3.14,5,5,0,0,0,3.24,1.49,4.63,4.63,0,0,0,5-4l.18-2.66a4.26,4.26,0,0,0-1.16-3.14,5,5,0,0,0-3.24-1.49,4.63,4.63,0,0,0-5,4Z"/><path class="cls-22" d="M3412.23,2581.42l2.72,2.86a5,5,0,0,0,6.63.43,4.15,4.15,0,0,0,.42-6.1l-2.71-2.85a5.06,5.06,0,0,0-6.64-.44,4.15,4.15,0,0,0-.42,6.1Z"/><path class="cls-22" d="M3373.49,2515.93a4.33,4.33,0,1,0,.59-8.63,4.33,4.33,0,1,0-.59,8.63Z"/><path class="cls-22" d="M3342,2508.51l2.9.19a5.1,5.1,0,0,0,3.4-1,4.25,4.25,0,0,0,1.59-3,4.6,4.6,0,0,0-4.4-4.63l-2.9-.19a5.1,5.1,0,0,0-3.41,1,4.23,4.23,0,0,0-1.58,3,4.59,4.59,0,0,0,4.4,4.62Z"/><path class="cls-9" d="M3263,2826.82c1.56-.72,2-1.56,3.33-1.8,12.23,37.06,35.95,115.29,35.95,115.29s86.48,18.1,183-6.53c1.53-24.31,8.89-105.68,9.34-126.89-81.38-4.35-153.44,3.72-234.29,8.65a14.61,14.61,0,0,0,4.18,12.71Z"/><path class="cls-5" d="M3515.22,2791.93c-51.1-1.25-102.23,8.28-153,10.54-28.15,1.25-55.48-.16-83.58,3.15-8.93,1.05-17.95,2.72-26.69,3.54,1.22,11.13,3,22,5.29,33.43a64.27,64.27,0,0,1,1.56,7c48.53-12.93,99.44-4,149.55-4.13,35-.09,70-.68,105-2C3513.78,2826.27,3514.59,2809.1,3515.22,2791.93Z"/><path class="cls-6" d="M2475.13,2676.27c36.75,126.15,87,325,233.69,328.14,88.65,1.91,178.81-1.39,267.88-1.39,30,0,87,12.57,114.29.44,29.48-13.08,142.2-239.22,108-364.89Z"/><path class="cls-13" d="M2425.23,2529c12.16,26.47-7.18,121.62-.54,154.36,131.58,6.83,261.38-16.22,392.38-16.24,143.69,0,289.91,7.56,432.49-.86,2.29-44.73,11.15-134.75-16.37-164.43Z"/><path class="cls-13" d="M2487.67,2277.54c0-165.35,28.29-335.19,221-364.63,160.57-24.53,278.58,74.46,343.87,207.94,28.85,59,16,112.62,26.55,174.19-80.68,9.89-173.77-3.07-255.72-3.07-59.14,0-119-2.44-178.1-.08-20.14.81-43.44-1.4-56.51,10.91Z"/><path class="cls-12" d="M2644,2129.31a19.06,19.06,0,0,0-16.31-7.06c-7.17.41-14-7.81-26.66.74-12.16,8.19-22,28.36-30.49,40.7-43.41-68.76-119.89-60.76-90.08,25.68,5.81,16.87,12.05,20.53,15.79,37,4.72,20.78-20.13,20.76,1.37,39.92,34.82,31,47.35-34.29,76.28-32.32-22.54,87.08,64.64,43.09,90.09-1.19-4.08-2.21-9.16-6.56-13.24-9.39,97.38-13.39,11.92-66.14-6.53-93.8Z"/><path class="cls-16" d="M2601.94,2185.94c-8.72-10-17.58-12.39-26.82-8.63l-5.43,8.16C2570.22,2206.64,2590.21,2209.48,2601.94,2185.94Z"/><path class="cls-6" d="M3022.94,2208c22.11,14.42,80.41-13,95.66-36.17-10.15.67-19.59-3.82-31.23-.74,20.86-29.83,56.78-42.32,76.09-75.09-13.39-5.95-28-1.68-42.5,8.19,10.32-17.7,26-32.21,21.17-50.55-44.72,31.23-104.16,69.71-137.28,114.46Z"/><path class="cls-12" d="M2854.73,2111.62c-17.79-8.92-61.87,48.68-6.61,73.91-68.5,29.75,87,127.56,87.68,25.15,47.16,74.65,138.88-63.77,53.73-82.91a85,85,0,0,0,36.24-39.67c-29.89-51-65.74-54.74-96.55-6.12,8.08-91.15-151-74.51-78.36,27.07Z"/><path class="cls-16" d="M2898.14,2163.74c-5.32,7.12,8.7-12.21,10.38-14.38.24.23,10.21,6.78,10.5,6.9-4,16.2-10.58,8.51-17,10Z"/><path class="cls-6" d="M2621.07,1992.88l.21.21c4.9,4.92,7.08,9.78,6.94,14.61-.25,7.84-6.92,13.86-12.78,19.15-2.75,2.48-5.39,4.86-6.81,7,6.67,3.05,11.29,7.72,13.74,13.9,5.59,14.09-2,31.78-3.54,35.19-10.88,23.57-24.95,27.85-34.84,27.28-13.11-.75-24-10.16-28.21-17.83-4.84,9.21-12.36,14.19-21.42,14.09-13.11-.13-25.36-10.42-29.18-19.87-2.06-5.09-1.82-9.84.65-13.66a25.43,25.43,0,0,1-19.56-12.38c-4.68-7.6-5.33-16.42-1.67-23,2.31-4.18,7.2-9.09,17.52-10.29a22.84,22.84,0,0,1-8.09-14c-2.15-11.16,1.9-24.5,10.08-33.2,7-7.44,14.71-11.23,22.95-11.26,15.65-.08,30.6,12.91,44.46,27.26,7.1-7.76,16.54-12.43,26-12.76A31.09,31.09,0,0,1,2621.07,1992.88Zm-16.37,42.46.59-1.35c1.33-3,4.51-5.9,8.2-9.23,5.44-4.91,11.6-10.46,11.8-17.08.13-4-1.9-8.09-6.18-12.46-6-6.1-13.49-9.26-21.56-9-9.13.32-18.21,5-24.9,12.87l-1,1.2-1.09-1.14c-13.71-14.32-28.48-27.57-43.46-27.5-7.53,0-14.36,3.43-20.88,10.36-7.58,8.07-11.34,20.4-9.35,30.71.92,4.76,3.5,11.13,10.49,14.37l5.77,2.68-6.36,0c-9.6.08-16.39,3.22-19.64,9.09-3.16,5.71-2.54,13.43,1.6,20.15,4.48,7.26,12,11.41,20,11.09l3.68-.15-2.62,2.59c-4.24,4.19-3.4,9.35-2,12.94,3.5,8.64,15,18,26.56,18.09,6.17.06,14.68-2.53,20.12-15.22l1.49-3.47,1.18,3.58c2.43,7.37,13.86,18.1,27,18.85,9,.52,21.88-3.51,32.08-25.63,1.49-3.21,8.63-19.92,3.47-32.92-2.33-5.88-6.92-10.23-13.64-12.93Z"/><path class="cls-6" d="M2459.85,2033.66c15.22,15.29,28.1,36.66,33.12,52.08a42.81,42.81,0,0,1-2.69,33.48c-7.46,14.53-23.07,26.74-41.75,32.66-14.77,4.68-46-2.9-59-17.39-5-5.57-6.68-11.64-5-17.7-12.42-10.71-23.68-25-28.45-40-3.91-12.28-3-23.46,2.74-33.23,12.46-21.24,51-33.47,72.65-28.21C2441,2017.69,2450.85,2024.61,2459.85,2033.66Zm-67.07,100.07c12.72,12.78,41.58,19.64,54.89,15.43,18-5.7,32.95-17.38,40.07-31.25a39.45,39.45,0,0,0,2.51-31.28c-7.6-23.36-35.16-62.58-59.39-68.47-20.54-5-57.94,7.15-69.52,26.88-5.29,9-6.13,19.43-2.48,30.92,4.58,14.4,15.36,28.1,27.31,38.45l2,.88-.25.6a93.76,93.76,0,0,0,20.58,13.24c14.88,6.73,30.16,5.51,41.91-3.35,11.17-8.43,17.15-22.37,15.23-35.53-2.08-14.22-12.77-25.59-30.09-32-16.09-6-27.17-5.07-32,2.61-6.49,10.24-.24,32,12.85,45.21.15.14.29.29.44.44,6.08,5.94,18.32,14.53,32.13,5.36a11.22,11.22,0,0,0,5-9.37,10.73,10.73,0,0,0-4.81-9.11l-.35-.23a5.92,5.92,0,0,0-7.75,1.06,5.79,5.79,0,0,0-.51,7.64l-2.21,1.82-.09-.13a8.64,8.64,0,0,1,.72-11.28,8.78,8.78,0,0,1,11.38-1.52l.39.26a13.72,13.72,0,0,1,6.09,11.49,14.07,14.07,0,0,1-6.25,11.75c-11.31,7.51-24.32,5.44-35.7-5.7l-.44-.44c-12.84-12.9-21.2-36.27-13.28-48.78,4-6.24,13.32-12,35.44-3.76,18.35,6.8,29.69,19,31.93,34.28,2.07,14.18-4.34,29.19-16.34,38.23-12.61,9.51-28.94,10.85-44.81,3.68a95.36,95.36,0,0,1-20.27-12.9c-.87,4.7.68,9.3,4.66,13.75C2392,2133,2392.4,2133.36,2392.78,2133.73Z"/><path class="cls-6" d="M2484.2,1965.1l1,1.78c10.89,20.09,12.92,38.58,5.56,50.74-6.05,10-18.29,15.16-35.37,14.9l0-2.86c16,.24,27.39-4.43,32.89-13.52,6.51-10.76,4.73-27.93-4.72-46.18-2.88,2.73-7.48,6.19-12.68,10.1-13.3,10-31.52,23.73-30.92,33.32.17,2.72,1.9,5,5.31,6.94l-1.42,2.48c-4.24-2.43-6.51-5.53-6.74-9.24-.7-11.13,17.46-24.8,32.05-35.78,6-4.55,11.26-8.47,13.68-11.17Z"/><path class="cls-6" d="M2436,1945.41c12.84,12.91,18.49,23.19,18.73,33.25.28,11.46-6.31,23-22.51,39.14l-2-2c15.19-15.12,21.93-26.45,21.68-37s-7.48-21.94-24.18-37.24c-9.47,13.78-33.33,53.5-9,72.93l-1.77,2.23c-27.13-21.64.3-65.3,9.36-78.16l.93-1.32,1.2,1.08Q2432.55,1942,2436,1945.41Z"/><path class="cls-6" d="M2393.26,1979.79a79.9,79.9,0,0,1,5,11.33c4.65,13.42,4.24,25.11-1.18,33.8l-2.43-1.52c6.26-10,4-22.57.91-31.34-6.73-19.39-23.2-38.71-37.93-44.66-6.43,12.11-2.18,34.95,5.56,51.76,6.09,13.21,13.88,22,20.34,23.07l-.44,2.82c-7.51-1.18-15.92-10.42-22.5-24.7-8-17.42-13-42.22-4.81-55.47l.61-1,1.09.39C2370.29,1948.89,2384.56,1963.42,2393.26,1979.79Z"/><path class="cls-6" d="M2457.33,2175.57c4.06,4.09,7.07,8.49,8.47,13.37,1.74,6.09.77,12.52-2.89,19.12-7.54,13.58-19.6,22.13-33.36,23.72-13,1.5-25.73-3.45-35.59-13.35l-.17-.17c-10.27,20.06-23.49,22.32-30.95,22.2-13.24-.21-26.46-9.6-32-22.94-4.51-10.77-3.69-22.2,2.14-32.71a15.78,15.78,0,0,1-12.87-.14c-10.31-4.52-16.93-18.08-14.46-29.62,3.1-14.48,11.55-24.7,24.45-29.56,22.85-8.61,53.72,1,72.4,14.86,6,4.48,13.77,8.77,22,13.32C2436.65,2160.42,2449.13,2167.34,2457.33,2175.57Zm-61.65,41.14c9.24,9.28,21.29,13.78,33.39,12.38,13-1.51,24.15-9.47,31.34-22.42,3.33-6,4.19-11.54,2.64-16.94-3.89-13.57-22.24-23.74-40-33.56-8.3-4.6-16.14-8.93-22.31-13.52-18.06-13.44-47.8-22.73-69.69-14.48-12.11,4.56-19.74,13.81-22.67,27.49h0c-2.16,10.12,3.82,22.46,12.81,26.41,5.45,2.39,10.88,1.23,15.67-3.24a53.6,53.6,0,0,1,3.81-4.43l2.2,1.81a30.8,30.8,0,0,1-3.84,4.49c-8.53,11.17-10.63,24-5.68,35.8,5.16,12.32,17.24,21.06,29.37,21.26s22.42-7.73,29.06-22.29l.91-2,1.45,1.6C2394.65,2215.65,2395.16,2216.19,2395.68,2216.71Z"/><path class="cls-6" d="M2424,2152.92c6.06,6.09,6.45,13.68,6.18,17.53-.82,11.29-8.67,21.8-17.15,22.94-3.76.5-10.49-.5-15.54-11.82a31.3,31.3,0,0,1-6.39,9.3c-8.22,8.2-18.31,5.8-24.21.1l-.26-.26c-5.46-5.48-7.72-14.35-2.61-22.06-10.95,1.86-21.68-2.17-26.08-10.24-4.19-7.7-1.25-16.82,7.85-24.4,14.8-12.33,30.19-5.72,45.07.68,2.75,1.18,5.6,2.4,8.39,3.48l-1,2.67c-2.84-1.1-5.71-2.33-8.49-3.53-14.73-6.33-28.65-12.31-42.11-1.11-8.1,6.75-10.71,14.34-7.17,20.84,3.67,6.75,14.37,11.8,27,7.87l5.1-1.6-4.3,4.66c-6.74,7.22-4.51,15.73.45,20.72l.23.22c5.09,4.93,13.31,6.82,20.2-.06a29.45,29.45,0,0,0,7.05-11.63l1.32-3.95,1.38,3.93c3.3,9.36,8.21,14.11,13.82,13.35,7.11-1,14-10.44,14.67-20.31.76-10.46-5.38-18.34-16.83-21.59l.78-2.75A28.59,28.59,0,0,1,2424,2152.92Z"/><path class="cls-12" d="M2703.87,1966.29c-42.86-33.29-125.27,22.4-50.91,67.36-58.27,45.78,15.87,99.65,47.4,48.23,26.41,22.07,52.82,27.67,77.27.35,30.82-34.43,7.66-44.8-22.73-66.42,88.92-10,87.16-109.34,6-52,12.53-14.27,25.58-27.77,37.52-42.13,15.39-18.5-9.32-43.35-27.82-28C2741.4,1918,2715,1961,2718,1970.13Z"/><path class="cls-6" d="M2865,2003.4c7.08-12.7,30.05-52.44,20.33-83-23.6,16.74-21.59,56.3-16.17,85.1Z"/><path class="cls-6" d="M2865.83,1993.46a369.66,369.66,0,0,1-41.25-20c-14.28,27.43,22.63,44.78,45.52,53.16Z"/><path class="cls-6" d="M2894.17,2003.17c11.49-18.81,11.68-42.27,24.52-60.78,7.27.64,16.17,4.33,21.81,8.27-2.75,26.19-29.39,87.5-63.05,69.28Z"/><path class="cls-12" d="M2907.41,1923.65c-38.07,13.09-72.74-24.79-27.76-33.33-63.46-34.91-11.41-118.55,33.38-82-17.73-34.71,26.17-31.51,44-19.61,35.35,23.61,35.12,52.3,1.5,77.33,64.88-6,13.06,112.83-46.66,63.24Z"/><path class="cls-16" d="M2924,1874.05c-.07,4.35-23.74,13.54-27.11-6.32-2.05-12.09,34-30.39,28.3-3.74Z"/><path class="cls-6" d="M2882.81,1792.84c-57.27-55.54,47.31-24.52,2.22,2.81Z"/><path class="cls-6" d="M2907,1769.19c-3.87-17,1.47-34.06,15.34-43.33,17.07,15.57,5.56,37.64-13.12,46.15Z"/><path class="cls-6" d="M2984.63,1809.22c9.12-9.86,20.61-21.1,17.21-35.7-25.13,2.15-41.33,15.72-32.91,39Z"/><path class="cls-6" d="M3184.21,2222.86c-16.34-12.25-31.32-30.5-38.13-44.26a40.52,40.52,0,0,1-2-31.72c5-14.63,18-28.2,34.65-36.3,13.19-6.4,43.49-3.56,57.6,8.24,5.42,4.53,7.84,10,7.08,15.9,13.1,8.33,25.59,20.15,32.11,33.55,5.33,11,6,21.57,2,31.5-8.78,21.6-43.21,38.32-64.2,36.35C3204,2235.25,3193.88,2230.11,3184.21,2222.86ZM3233.37,2120c-13.66-10.24-41.62-12.72-53.51-6.95-16.06,7.79-28.49,20.77-33.28,34.73a37.4,37.4,0,0,0,1.93,29.65c10.3,20.84,41.48,53.82,65,56,19.92,1.87,53.29-14.61,61.44-34.67,3.73-9.19,3.09-19-1.9-29.3-6.26-12.87-18.22-24.22-30.83-32.29l-2-.55c.06-.2.11-.4.16-.59a88.25,88.25,0,0,0-21.09-9.6c-14.85-4.27-29-1-38.79,8.86-9.32,9.42-13,23.3-9.41,35.37,3.89,13,15.45,22.22,32.55,25.88,15.89,3.39,26.14,1,29.65-6.82,4.68-10.48-4.15-30.05-18.21-40.59l-.48-.35c-6.5-4.74-19.14-11.12-30.82-.64a10.62,10.62,0,0,0-3.38,9.46,10.17,10.17,0,0,0,5.75,7.88l.36.16a5.59,5.59,0,0,0,7.11-2.05,5.46,5.46,0,0,0-.56-7.22l1.82-2,.11.1a8.19,8.19,0,0,1,.86,10.67,8.32,8.32,0,0,1-10.46,3l-.39-.19a13,13,0,0,1-7.28-9.93,13.3,13.3,0,0,1,4.25-11.86c9.57-8.58,22-8.41,34.22.46l.48.35c13.78,10.33,24.81,31.08,19.09,43.88-2.85,6.39-10.84,13-32.68,8.36-18.12-3.86-30.4-13.72-34.59-27.75-3.88-13,.08-27.93,10.09-38,10.51-10.62,25.63-14.11,41.46-9.56a89.84,89.84,0,0,1,20.75,9.31c.18-4.52-1.91-8.62-6.24-12.24C3234.17,2120.58,3233.78,2120.27,3233.37,2120Z"/><path class="cls-6" d="M3170.77,2290.4l-1.15-1.53c-12.95-17.33-17.37-34.38-12.14-46.77,4.31-10.19,15.06-16.69,31.1-18.78l.35,2.68c-15,2-25,7.89-29,17.16-4.63,11-.62,26.8,10.73,42.61,2.33-2.95,6.16-6.82,10.49-11.2,11.1-11.19,26.29-26.52,24.42-35.43-.54-2.53-2.47-4.41-5.92-5.77l1-2.52c4.3,1.69,6.85,4.3,7.57,7.73,2.18,10.33-13,25.62-25.13,37.9-5,5.08-9.39,9.47-11.29,12.33Z"/><path class="cls-6" d="M3218.63,2302.26c-13.8-10.34-20.52-19.16-22.12-28.55-1.82-10.69,2.65-22.26,15.72-39.7l2.17,1.62c-12.1,16.15-16.91,27.74-15.22,37.63s10,19.51,27.74,31.56c7-14.2,23.92-54.67-1.55-69.55l1.36-2.33c28.37,16.56,8.64,61.2,1.91,74.49l-.69,1.36-1.27-.85Q3222.32,2305,3218.63,2302.26Z"/><path class="cls-6" d="M3257,2268.76a76.68,76.68,0,0,1-8.83-7.71c-9.38-9.62-13.73-19.8-12.58-29.43l2.68.32c-1.32,11.11,5.71,20.93,11.84,27.22,13.56,13.92,35.45,23.84,50.46,23,.64-13-12.19-30.82-25.58-42.11-10.53-8.87-20.77-13.31-26.72-11.58l-.75-2.6c6.91-2,17.83,2.53,29.21,12.11,13.89,11.7,28.09,31,26.44,45.6l-.12,1.09-1.1.1C3289.11,2286,3271,2279.28,3257,2268.76Z"/><path class="cls-6" d="M3167.2,2089.59c-4.37-3.27-7.79-7-9.76-11.36-2.47-5.46-2.43-11.62.1-18.31,5.2-13.74,15.37-23.44,28-26.82,12-3.18,24.6-.33,35.19,7.61l.18.13c6.82-20.1,18.92-24.07,25.92-25,12.43-1.61,26.08,5.4,33.13,17.13,5.69,9.48,6.48,20.31,2.46,31a14.91,14.91,0,0,1,12.07-1.62c10.27,2.83,18.32,14.63,17.58,25.77-.92,14-7.44,24.72-18.86,31-20.23,11.19-50.45,6.44-69.85-4-6.24-3.37-14.09-6.33-22.41-9.47C3188.64,2101,3176,2096.19,3167.2,2089.59Zm52.13-47c-9.93-7.44-21.83-10-33-7-12,3.19-21.33,12.17-26.29,25.28-2.3,6.07-2.36,11.38-.17,16.23,5.5,12.19,24.08,19.2,42,26,8.4,3.17,16.34,6.16,22.74,9.61,18.75,10.13,47.88,14.77,67.25,4.05,10.73-5.93,16.61-15.63,17.48-28.85h0c.64-9.78-6.64-20.52-15.6-23-5.43-1.5-10.36.33-14.24,5.17a52.71,52.71,0,0,1-3,4.67l-2.31-1.4a29.29,29.29,0,0,1,3-4.72c6.47-11.64,6.69-23.91.43-34.31-6.51-10.84-19-17.38-30.41-15.9s-19.94,10.29-24.18,24.84l-.57,2-1.59-1.3C3220.43,2043.49,3219.88,2043.06,3219.33,2042.64Z"/><path class="cls-6" d="M3201.5,2106.25a21.2,21.2,0,0,1-8.17-15.57c-.78-10.69,5.14-21.6,12.93-23.82,3.45-1,9.89-1,16.17,8.94a29.65,29.65,0,0,1,4.71-9.58c6.58-8.81,16.36-7.94,22.67-3.4l.28.21c5.85,4.38,9.19,12.39,5.45,20.3,10-3.24,20.61-.93,25.83,6,5,6.63,3.47,15.58-4,23.92-12.18,13.57-27.5,9.48-42.31,5.52-2.74-.73-5.58-1.49-8.33-2.12l.59-2.63c2.81.63,5.67,1.4,8.44,2.14,14.67,3.91,28.52,7.62,39.59-4.72,6.67-7.42,8.08-14.88,3.87-20.49-4.35-5.82-15.06-9.09-26.31-3.69l-4.56,2.19,3.39-4.95c5.32-7.68,2.08-15.35-3.25-19.34l-.24-.19c-5.45-3.91-13.41-4.56-18.92,2.83a27.81,27.81,0,0,0-5,11.85l-.69,3.88-1.83-3.49c-4.37-8.32-9.62-12.09-14.77-10.62-6.53,1.86-11.66,11.69-11,21,.72,9.9,7.55,16.44,18.72,17.92l-.36,2.69A27,27,0,0,1,3201.5,2106.25Z"/><path class="cls-6" d="M2683.94,1908a104.33,104.33,0,0,1-14.51-13.44c-26.06-28.63-28.83-57.8-7.8-82.15,12-13.91,28.7-22.45,43.52-22.28,10.85.12,20.41,4.81,27.63,13.57l-.13.1a95.54,95.54,0,0,1,29.64,15.51c17.72,13.73,26.37,31,23.72,47.28-3.31,20.38-35.67,44-51.49,49.49C2716.15,1922.48,2700,1920,2683.94,1908Zm40.4-108.69a32.15,32.15,0,0,0-19.22-6.48c-14-.16-29.93,8-41.44,21.35-27,31.27-6.74,62.64,7.75,78.56,20.31,22.31,39.49,28.73,62.19,20.79,15.65-5.48,46.69-28.7,49.72-47.37,2.49-15.32-5.79-31.61-22.71-44.71l-1.09-.83c-20.63-15.46-48-21.74-64.28-14.6-14.61,6.42-23.37,17-24.68,29.81-1.26,12.29,4.65,25,15.15,32.47,10.3,7.31,23.29,8.2,35.63,2.42,13.53-6.32,17.56-20.2,15.54-31.15-2.3-12.52-11.78-21.21-24.15-22.12-9.43-.7-16.05,2.11-18.63,7.89s-.6,13.9,4.59,18.88c4.74,4.53,11,5.38,17.18,2.3l1.21,2.42c-7.26,3.62-14.64,2.61-20.26-2.77-6.07-5.82-8.26-15-5.19-21.93,1.78-4,6.92-10.55,21.3-9.49,13.64,1,24.08,10.56,26.61,24.33,2.21,12-2.21,27.16-17,34.09-13.25,6.2-27.23,5.23-38.34-2.67-11.26-8-17.64-21.7-16.28-35,1.41-13.81,10.74-25.18,26.29-32,9.15-4,21.28-4.17,33.87-1A35.71,35.71,0,0,0,2724.34,1799.28Z"/><path class="cls-6" d="M2777.33,1837.49c-9.83-7.37-17.38-17.31-19.75-29-4.14-20.38,4.15-39.76,21.12-49.37,16-9,42.27-10.25,68.21,13.45,24,21.9,9,46.1,8.86,46.34l-1.14-.72c-.06.71-.14,1.43-.25,2.15-2.91,19.21-16,30.52-35.81,31C2805,1851.72,2789.44,1846.56,2777.33,1837.49Zm61.08-68.45c-22.61-16.94-44.59-15.35-58.38-7.55-16.17,9.17-23.76,27-19.8,46.48,5,24.73,34.74,41.3,58.27,40.7,18.41-.46,30.51-10.93,33.2-28.71,2.88-19-15.37-36-33.94-40.89-17.51-4.58-31.29,1.45-36.84,16.14-3.74,9.89,3.08,23,11.47,27.71,6.62,3.71,13.19,2,18.48-4.82,4.2-5.4,2.53-9.8,1.17-11.95-2.53-4-7.78-6.3-12-5.34-3.72.85-6.1,4.13-6.71,9.25l-2.68-.32c1-8.55,5.94-10.92,8.78-11.57,5.32-1.22,11.71,1.59,14.86,6.53,3,4.67,2.5,10.16-1.31,15.06-6.12,7.89-14.12,9.9-21.94,5.52-9.52-5.33-17-19.73-12.68-31,7.17-19,25.4-21.63,40.06-17.8,18.43,4.82,35.87,20.21,36.26,38.73,2.94-6.23,8.7-23.85-9.62-40.59C2842.86,1772.55,2840.63,1770.71,2838.41,1769Z"/><path class="cls-6" d="M2580.52,1830.2c-19.73-14.78-28.53-37.73-21.44-56.92,6.73-18.23,26-27.79,50.2-24.92,18.65,2.2,48.23,15.25,55.58,37.36,3.5,10.53,3.14,20.33-.93,25.57a11.7,11.7,0,0,1-9.46,4.43,27.88,27.88,0,0,1-13.38,20.17c-16.84,10.33-43,6.22-57.5-3.51C2582.54,1831.67,2581.52,1831,2580.52,1830.2Zm65.86-64.07A83.24,83.24,0,0,0,2609,1751c-23.27-2.74-41,5.92-47.34,23.18-7,19,2.65,42,23.47,55.91,13.85,9.27,38.66,13.22,54.58,3.46,9.53-5.85,13.75-15.78,12.2-28.73-1.8-15-23.4-28.73-39.82-29.43-6.41-.28-17.59,1.3-20.41,14.89-1.48,7.13,4.92,18.35,13.44,23.51,3,1.8,8.58,4.24,13.18.49,2.85-2.32,4.07-4.69,3.62-7-.58-3.12-4.17-6.15-9.12-7.74s-12.18-1.85-16.68,2.46l-1.87-2c4.4-4.23,12-5.44,19.38-3.08,6,1.91,10.17,5.67,10.95,9.8.45,2.35,0,5.93-4.57,9.66-4.37,3.55-10.16,3.46-16.29-.27-8.48-5.16-16.58-17.25-14.69-26.38,2.36-11.36,10.8-17.57,23.17-17,17.46.75,40.45,15.58,42.39,31.82a42.94,42.94,0,0,1,.23,8.46,8.84,8.84,0,0,0,7-3.37c3.48-4.47,3.67-13.52.51-23.05C2659.59,1778.44,2653.67,1771.59,2646.38,1766.13Z"/><path class="cls-6" d="M2673.11,1801.45c.07-16,7.56-23.46,13.84-26.91,10.52-5.78,25.72-4.54,37.82,3.07,9.41,5.92,15,14.51,15.78,24,13.23-17.21,15.55-34.27,6.47-48.34-10.33-16-33.66-24.3-53.11-18.85-11,3.09-29.58,13.18-30.44,46.11l-2.7-.07c.65-25.32,12.47-43,32.41-48.64,20.52-5.76,45.17,3,56.11,20,6,9.24,12.71,28.59-9,54.45l-2.61,3.11.22-4c.55-10-4.76-19.21-14.57-25.38-11.29-7.11-25.39-8.31-35.08-3-8.08,4.44-12.38,12.93-12.44,24.55Z"/><path class="cls-6" d="M2635.46,1757.91c-7.5-5.62-12.77-13.65-15.7-23.94-5.88-20.63-.6-46.1,7.66-60.59,8-14.06,27.12-18.14,39.93-13.13a20.3,20.3,0,0,1,10.81,9.11,45.19,45.19,0,0,1,9.24-15.43c10-11.21,23.82-17.47,35.25-16,9.88,1.3,16.11,4.58,19.06,10,5.24,9.7-1.5,23.74-7.46,36.13-.79,1.67-1.57,3.28-2.29,4.83,11.51-5.06,23.85-3.81,34.36,3.62,11.27,8,17.78,21.52,15.8,32.93-1.33,7.7-6.3,13.81-14.22,17.65,14.36,1.18,19.76,7.67,21.75,11.8,3.23,6.73,1.64,15.12-4.18,21.91-6.18,7.23-18.37,13.27-34,8.53l.79-2.59c14.39,4.36,25.54-1.12,31.17-7.7,5.1-6,6.55-13.23,3.79-19-3.46-7.19-12.81-10.89-26.33-10.42l-11.28.4,10.86-3c13.8-3.87,17.95-11.94,19-18,1.8-10.42-4.21-22.83-14.7-30.26-10.69-7.56-23.42-8.19-34.93-1.75l-3.47,2,1.57-3.66c1.13-2.63,2.47-5.42,3.89-8.37,5.67-11.81,12.1-25.19,7.51-33.67-2.51-4.63-8.08-7.46-17-8.64-10.57-1.39-23.47,4.53-32.88,15.09a40.77,40.77,0,0,0-9.62,17.74,24.94,24.94,0,0,1,0,12.24l-1.27,5.46-1.36-5.43a27.5,27.5,0,0,1-.12-12.19c-1.52-4.89-5.14-8.62-10.65-10.78-11.52-4.51-29.38-.71-36.6,12-8,14-13.09,38.59-7.41,58.51,3.35,11.76,9.91,20.36,19.5,25.57l-1.29,2.38A41.91,41.91,0,0,1,2635.46,1757.91Z"/><path class="cls-6" d="M2659.87,1755.48a32.49,32.49,0,0,1-11.62-16.69,28.35,28.35,0,0,1,2.83-22.52c6-10.24,22-14.07,31.23-10.41,3.32,1.32,5.48,3.48,6.34,6.21a25.49,25.49,0,0,1,18.72-11.75c9.21-1,18.52,2.83,23.73,9.9,5.34,7.25,5.85,16.78,1.43,26.84l-2.47-1.09c4-9.14,3.61-17.71-1.14-24.15s-13-9.75-21.24-8.81c-8.44,1-15.37,6.33-19,14.73l-2.56-.84c1.14-5-2-7.4-4.81-8.53-8.23-3.27-22.51.14-27.9,9.27a25.38,25.38,0,0,0-2.57,20.39,29.63,29.63,0,0,0,14.67,17.79l-1.24,2.41A31.41,31.41,0,0,1,2659.87,1755.48Z"/><path class="cls-6" d="M2461.52,1936.25c-8.37-6.27-15.85-16-16-28.06a30,30,0,0,1,13.57-26c8.4-5.38,19.06-6.07,29.7-2-5.68-11.78-5.65-23,.17-31.79,6.15-9.34,18.24-14.46,30.79-13,16.09,1.81,29.37,13.14,36.64,31.18,29.11-21.06,44.24-12.29,49.42-7.48,9.31,8.64,10.48,24.43,3.41,39.14,14.83-10.3,25-13.84,33.36-11.78,7.19,1.77,13.2,7.85,18.39,18.59,8.13,16.83-1.18,31.32-7.45,38.45-9.44,10.74-23.3,17.85-30.28,15.53l.85-2.57c5.28,1.75,18.11-4.18,27.4-14.75,5.83-6.63,14.5-20.06,7-35.48-4.81-10-10.24-15.58-16.6-17.15-8.4-2.06-19.17,2.38-36,14.87l-5.84,4.33,3.9-6.14c9.34-14.74,9.34-32.39,0-41-9.93-9.22-27.68-6-47.39,8.71l-1.45,1.07-.63-1.68c-6.74-18-19.52-29.35-35-31.1-11.55-1.3-22.63,3.35-28.23,11.85-5.79,8.79-5.18,20.28,1.71,32.38l2.15,3.76-3.91-1.87c-10.92-5.24-22.09-5.11-30.63.34a27.32,27.32,0,0,0-12.32,23.7c.27,19.7,21,31.39,29.54,32.95l-.48,2.66C2472.82,1943,2467,1940.34,2461.52,1936.25Z"/><path class="cls-6" d="M2510,1943.25c-1.32-1.9-2.57-3.61-3.73-5.19-8.37-11.46-12.2-16.69-1.29-34.92,3-5.08,6.59-7.67,10.56-7.7,7.46,0,14.76,8.86,21.64,19.47.6-5,3.49-10.1,8.27-14.26,7-6.08,15.84-8.41,22.57-5.93,8.73,3.22,14.66,8.24,17.63,14.93,2.78,6.28,2.78,13.81,0,22.4,8.83-4.57,19.6-2.71,26.74.66,8.53,4,13.73,10.53,13.91,17.39.66,25.1-25.16,39.35-44,40l-.09-2.71c17.77-.6,42-13.86,41.43-37.21-.15-5.73-4.89-11.49-12.35-15s-19-5.27-27.4,1.25l-4,3.09,1.88-4.66c3.81-9.49,4.29-17.59,1.4-24.1-2.66-6-8.07-10.53-16.09-13.49-5.72-2.11-13.7.08-19.86,5.44-5.71,5-8.39,11.31-7.16,16.93l1.69,7.74-4.16-6.74c-6.89-11.14-14.89-22.52-22-22.48-3,0-5.73,2.17-8.26,6.39-10,16.69-7,20.84,1.16,31.94,1.16,1.59,2.42,3.32,3.76,5.23Z"/><path class="cls-6" d="M2679.29,2174c-8.82-6.61-13.1-17.71-12.13-31.84a32.42,32.42,0,0,1,15.67-26.12c10.29-6.47,24.24-8.45,36.24-5.44a20.94,20.94,0,0,1-3.47-20.72c4.88-14.15,22-25.77,39-26.45,8.65-.35,24.05,2,34.06,20.62,1.75-9.92,6.92-16.93,14.33-19.13,9.08-2.69,19.54,2.44,28,13.74,9.79,13.11,10.93,38.77,2.43,54.9-2.83,5.38-6.56,9.31-10.93,11.63,9.51.77,17.92,5,22.43,11.62,4.62,6.81,4.38,15.16-.68,23.51-3.75,6.19-8,9.52-13,10.19-9.25,1.22-19.57-7.08-31-17.87,2.7,17.48-1.1,34.57-10.1,44.43-6.46,7.07-15.2,10.16-25.27,8.95-13.08-1.58-23.71-7.9-29.93-17.8-6.38-10.15-7.62-23.52-3.61-38-14.94,10.69-34,13.42-47.53,6.51A30.58,30.58,0,0,1,2679.29,2174Zm96.11-101.61a31.7,31.7,0,0,0-20.73-6.26c-15.66.63-32,11.68-36.52,24.63-2,5.71-2.43,14.12,6.55,21.76l6.3,5.36-7.68-3.07c-12-4.82-28.09-3.37-39.06,3.52a29.82,29.82,0,0,0-14.4,24c-1,15.15,4.3,26.5,15,32,13.7,7,33.43,3.35,48-8.82l3.71-3.1-1.56,4.57c-5.28,15.49-4.57,29.26,2.06,39.82,5.78,9.19,15.71,15.07,28,16.55,9.16,1.11,17.1-1.69,22.94-8.09,9.14-10,12.55-28.12,8.69-46.15l-.92-4.3,3.18,3c12.18,11.64,23,21.17,31.84,20,4.16-.55,7.78-3.47,11.08-8.91,4.47-7.39,4.74-14.71.75-20.6-5.37-7.91-17.55-12-29.64-10l-.11-.67c-.42,0-.85,0-1.28,0l.1-2.71c10.23.41,16.13-6.63,19.28-12.61,8.07-15.33,7-39.64-2.21-52-7.73-10.35-17.09-15.11-25-12.76-7.39,2.2-12.23,10.18-12.95,21.36l-.36,5.55-2.23-5.09C2785,2082,2780.64,2076.27,2775.4,2072.35Z"/><path class="cls-6" d="M2740.37,2170.92a44.84,44.84,0,0,1-6.52-6c-15.07-16.92-12.75-26.62-10-30.9,4.48-7,15.61-9.3,28.88-6.1-7.43-13-8.3-24.53-2.3-32,5-6.13,13.84-8.2,22.13-5.14,10.84,4,17.22,14.9,17.25,29.35,4-.26,14.62-.37,21.07,5.33,3.36,2.95,5.07,7,5.09,12.06,0,10.76-3.74,18.52-10.62,21.84-7.85,3.8-18.94,1.36-30.23-6.49,5,15.5-.15,21.67-3.94,24C2763.71,2181.56,2750.73,2178.68,2740.37,2170.92Zm36.61-74.64a21.43,21.43,0,0,0-5.37-2.92c-7.2-2.65-14.88-.92-19.09,4.31-5.67,7-4.13,18.61,4.24,31.74l1.95,3.07-3.49-1.05c-13.3-4-25-2.37-29.11,4.08-3.94,6.18-.38,16.25,9.76,27.64,9.76,10.95,25.91,16.43,33.87,11.49,5.85-3.64,6.31-12.51,1.28-25l-1.91-4.76,4,3.2c11.72,9.35,23.29,12.65,31,8.9,5.88-2.84,9.11-9.73,9.08-19.4,0-4.23-1.41-7.61-4.16-10-7-6.18-20.35-4.56-20.49-4.54l-1.56.19,0-1.57C2787.38,2110.35,2783.69,2101.31,2777,2096.28Z"/><path class="cls-6" d="M3015.09,2073.42a30.33,30.33,0,0,1-3-2.51L3014,2069c15.6,15.06,56.19,17.42,83.5,4.82,12.46-5.75,27-16.8,25.8-36.82-.87-14.06-13.86-23.13-26.35-25.88-9.05-2-21.09-1.16-28.45,6.61-1.18,1.71-2.33,3.3-3.42,4.76l-2.28-1.44a24.22,24.22,0,0,1,3.5-4.9c10.47-15.06,23.8-39.1,19.21-58.83-2.3-9.86-8.94-17.67-19.75-23.23-9.43-4.84-18.78-5.76-27.79-2.72-15.36,5.17-30.21,22-43,48.69l-3.34,7,.78-7.71c2.5-24.92-9.66-41.26-21.86-48.23-8.66-5-17.89-5.5-23.5-1.39-13.14,9.64-19.89,20.52-20,32.34-.17,13.12,8,26.76,23.09,38.41l-1.66,2.14c-15.74-12.18-24.31-26.59-24.13-40.58.16-12.72,7.27-24.32,21.14-34.49,6.57-4.82,16.7-4.35,26.45,1.22,11.82,6.75,23.62,21.74,23.54,44.28,12.43-24,26.75-39.22,41.63-44.23,9.74-3.29,19.79-2.32,29.89,2.87,11.56,5.94,18.67,14.36,21.15,25,4.18,18-5.57,39-15.24,54.38,6.71-3.61,15.38-4.65,24.63-2.61,13.49,3,27.52,12.88,28.47,28.35,1,16.81-8.67,30.82-27.36,39.44C3072,2088.52,3033.07,2086.89,3015.09,2073.42Z"/><path class="cls-6" d="M2998.12,2042.72l1.56-2.21c17.63,12.44,31.31,14.41,41.8,6,7.9-6.29,8.67-15.29,5.35-20.92-2.25-3.81-7.09-6.85-14.18-4.74-.69.26-1.4.51-2.13.76l-.94-2.54c.76-.31,1.5-.58,2.23-.8,15.05-5.84,20.52-17.66,20.55-27.08s-5-17.48-12.51-20c-11-3.72-25,4.32-38.46,22.06l-2.16-1.63c14.2-18.73,29.32-27.11,41.49-23,8.61,2.91,14.38,12,14.34,22.6,0,8.79-4.33,19.49-15.68,26.37a13.57,13.57,0,0,1,9.78,6.65c3.91,6.64,3.11,17.15-6,24.4C3031.61,2057.89,3016.87,2055.94,2998.12,2042.72Z"/><path class="cls-6" d="M3124.06,2046.2l1.38-2.33c14.12,8.36,20.94,11.46,34.45-2.67,4.86-5.06,6.68-10.74,5.42-16.87-2.14-10.49-12.95-20.11-22.52-24.2l-4.46-1.91,4.8-.68c17.73-2.5,26.75-12.73,29.28-21.47,2-6.79.33-13.24-4.38-17.25-7.81-6.65-22.39-5.72-39.91,2.6l-5.37,2.55,3.74-4.62c14.78-18.28,14.16-26.34,12.48-29.52-2.13-4-7.84-4.19-11-3.92-12.74,1.06-33.71,12.46-39.92,31.14l-2.57-.86c6.58-19.78,28.78-31.86,42.27-33,6.69-.55,11.54,1.35,13.66,5.35,3.15,6-.12,15.66-9.46,28.23,16.35-6.69,30-6.76,37.88,0,5.55,4.72,7.51,12.22,5.23,20.07-2.56,8.83-11.08,19.05-27.39,22.65,8.92,4.91,18.21,13.86,20.34,24.3,1.43,7-.69,13.63-6.11,19.29C3147,2058.62,3138.66,2054.84,3124.06,2046.2Z"/><path class="cls-6" d="M3103.73,1898.22l-1.52,1.11c10.37-.08-.7,30.62-9.93,26.82-9.07-3.73,1.48-24.88,9.8-29Z"/><path class="cls-6" d="M3146.2,1905.52c-3.87,9.14-21.18-.13-24.19-9.79a4.42,4.42,0,0,0,.38-.89,18,18,0,0,1,1-2.54c4.4-1.88,8.74-2.24,13.4,0C3140.39,1894,3148.35,1900.43,3146.2,1905.52Z"/><path class="cls-6" d="M3207.3,1820.87c2.06,7.3-9,8.93-13.56,8.77-12.14-.43-19.85-8-27.14-16.66a29.22,29.22,0,0,0,.54-3.6c4.15-1.63,12-2.19,13.91-2C3188.22,1808.24,3204.93,1812.53,3207.3,1820.87Z"/><path class="cls-6" d="M3200.61,1786.17c-6.86,2.83-14.54,2.42-21.73.86-8-1.73-13.92-6-21.18-9l-.31-.72c14-8.46,36-21.26,49-9.82C3214.21,1774.42,3208.33,1783,3200.61,1786.17Z"/><path class="cls-6" d="M3200.83,1862.83c10.65-1.52,27.5,3.84,32.52,14.76,2.3,5,2,11.86-4.06,12.89-8.68,1.47-18.73-9.32-24.94-14.22-4.91-3.87-6-5.43-6.13-9.87A27.82,27.82,0,0,1,3200.83,1862.83Z"/><path class="cls-6" d="M3121,1754.53c-3.25,13.31-23.82,16.7-34.84,20.6a22.56,22.56,0,0,0-4.27-3.26,70,70,0,0,1,8.18-17.93c4-5.68,12.29-13.06,19.37-14.07S3122.62,1747.82,3121,1754.53Z"/><path class="cls-6" d="M3059.36,1742.86c4.44,7.67-3.63,24.11-8.84,29.93l-2.32.86h-.59c-4.65-9.77-3.61-21.66,1.81-30.91C3052.12,1738.1,3056.09,1737.21,3059.36,1742.86Z"/><path class="cls-6" d="M3081.71,1852.07c1-.24,1.93-.47,2.9-.69,2.52-.58,5.06-1.12,7.6-1.6,3.34-4.64,7-10.48,10.85-16.61,3-4.71,6.08-9.7,9.41-14.72,2-3,4-6,6.17-8.94.81-1.12,1.62-2.23,2.45-3.33,15.25-20.28,34-36.92,57.08-30l-.51,1.89c-21.1-6.34-38.71,8.32-53.25,27,.66-.18,1.35-.35,2.05-.5,20.75-4.5,51.4,5,63.37,13.46l-1.1,1.61c-11.68-8.28-41.58-17.53-61.82-13.14a35.47,35.47,0,0,0-4.59,1.31c-6.49,8.67-12.34,18-17.62,26.4-3.41,5.44-6.67,10.64-9.71,15a200.7,200.7,0,0,1,38.31-3.16l3.1.08q8.54.29,16.77,1.36,7.77,1,15.13,2.75c5.93-3.47,14.76-5.65,24.53-5.9,13-.34,24.33,2.67,30.42,8l-1.26,1.48c-10.38-9.15-36.78-9.93-50.88-2.94,17.35,4.45,32.68,11.84,45,21.8l-1.2,1.53c-12.79-10.33-28.55-17.7-46.22-22-.86-.21-1.73-.41-2.6-.6a159.77,159.77,0,0,0-27.58-3.58c14.32,13.75,28.53,38.72,23.38,53l-1.83-.72c2.71-7.5-.28-19.29-8.19-32.32a91.3,91.3,0,0,0-16.3-20,197,197,0,0,0-42.22,3.53q-.57.79-1.14,1.53l-1.33-1c-1.34.26-2.68.55-4,.84,5.62,4.29,10.37,11.63,13.47,20.92l34.44,23.91-1.07,1.63-32.46-22.53c3.83,13.6,3.2,27.77-1.71,35.9l-1.67-1.06c4.91-8.14,5.25-22.82.83-36.62l-.06-.17c-.33-1-.67-2-1-3-3.23-8.48-7.91-15-13.29-18.43-1.3.3-2.6.62-3.91,1a205.85,205.85,0,0,0-38,13.68c-.13.57-.27,1.13-.4,1.7l-1.9-.5a.29.29,0,0,0,0-.09c-32.59,16.09-57.32,39.89-68,66.77l-1.81-.78a100.88,100.88,0,0,1,9.68-18.33c8.16-12.29,19.29-23.69,32.88-33.6a180.12,180.12,0,0,1,27.89-16.6,320.45,320.45,0,0,1,21.62-60.6,78.16,78.16,0,0,1-9-13.69c-.39-.74-.76-1.5-1.11-2.26-4.45-9.65-6.38-20.41-.74-28.91a21.21,21.21,0,0,1,2.23-2.8l1.43,1.37c-7.24,7.73-6,18.34-1.84,28.08a136.54,136.54,0,0,1,9-16.94c3.91-5.89,8.57-10.77,14.41-12.65l.62,1.89c-10.35,3.33-17,17.4-22.37,28.7-.21.46-.43.9-.63,1.34a75.89,75.89,0,0,0,8.87,14,176.66,176.66,0,0,1,10.84-19c6.41-9.67,13.42-17.46,20.79-21.9l1,1.71c-11.65,7-22.36,22.67-31.29,40.85-.31.63-.63,1.26-.92,1.9a319.28,319.28,0,0,0-20.68,57.89,209,209,0,0,1,36.88-13.09C3080.5,1852.37,3081.1,1852.21,3081.71,1852.07Z"/><path class="cls-6" d="M2421.82,1873.74l1.88.16c-8.92,5.3,16.44,25.83,22.37,17.81s-14.14-20.53-23.4-19.75C2422.39,1872.55,2422.1,1873.14,2421.82,1873.74Z"/><path class="cls-6" d="M2389.26,1902c8,5.82,18.06-11.08,15.63-20.9a4.73,4.73,0,0,1-.79-.56,18.94,18.94,0,0,0-2.13-1.68c-4.74.68-8.64,2.61-11.48,6.93C2388.29,1889.12,2384.78,1898.72,2389.26,1902Z"/><path class="cls-6" d="M2293.17,1861.15c2,7.31,12.33,3,16.14.49,10.16-6.65,12.85-17.1,14.6-28.3a29.94,29.94,0,0,1-2.33-2.81c-4.39.75-11.41,4.36-12.92,5.52C2303,1840.47,2290.88,1852.79,2293.17,1861.15Z"/><path class="cls-6" d="M2280.93,1828c7.34-1.13,13.7-5.46,19-10.51,6-5.63,8.83-12.3,13.48-18.65,0-.26-.08-.52-.11-.77-16.37,0-41.8.43-47,16.94C2263.22,1825,2272.67,1829.26,2280.93,1828Z"/><path class="cls-6" d="M2320.42,1893.7c-9.89,4.22-21.54,17.52-20.18,29.47.62,5.47,4.43,11.18,10.14,8.92,8.19-3.23,11.2-17.66,14-25.07,2.2-5.86,2.3-7.74.14-11.61A26.47,26.47,0,0,0,2320.42,1893.7Z"/><path class="cls-6" d="M2332.69,1759.71c9.67,9.71,29,2,40.48-.4a22.4,22.4,0,0,1,2-5,70,70,0,0,0-16.28-11.11c-6.32-2.81-17.27-4.81-23.85-2S2327.82,1754.82,2332.69,1759.71Z"/><path class="cls-6" d="M2379.38,1717.84c.18,8.86,15.59,18.75,23,21l2.44-.46c.16-.11.33-.21.5-.31-1.08-10.77-8.13-20.41-17.55-25.52C2383.11,1710,2379.25,1711.31,2379.38,1717.84Z"/><path class="cls-6" d="M2416.78,1822.85l-2.84.91c-2.46.81-4.91,1.66-7.33,2.57-5.26-2.25-11.42-5.35-17.88-8.61-5-2.5-10.23-5.15-15.67-7.72-3.25-1.53-6.56-3-9.91-4.46-1.27-.54-2.54-1.06-3.81-1.58-23.56-9.46-48.22-14-64.37,3.89l1.42,1.36c14.78-16.35,37.43-12.92,59.54-4.45-.66.19-1.33.4-2,.64-20.08,6.89-41.4,30.85-47.25,44.32l1.77.81c5.71-13.14,26.51-36.52,46.1-43.25a35.37,35.37,0,0,1,4.61-1.25c10,4.06,19.88,9,28.73,13.47,5.73,2.89,11.22,5.66,16.08,7.83a200,200,0,0,0-34.41,17.13c-.87.55-1.75,1.1-2.61,1.67q-7.16,4.65-13.65,9.84-6.12,4.89-11.52,10.18c-6.87.1-15.55,2.81-24,7.64-11.27,6.43-19.44,14.89-21.87,22.63l1.84.61c4.15-13.2,26.34-27.53,42-28.84-12.55,12.78-21.84,27-27.23,41.94l1.82.69c5.6-15.46,15.26-29.92,28.17-42.73l1.92-1.86a159.15,159.15,0,0,1,21.74-17.33c-5.14,19.17-4.37,47.9,7.41,57.43l1.2-1.56c-6.21-5-9.75-16.65-9.72-31.9a90.93,90.93,0,0,1,3.57-25.58,196.32,196.32,0,0,1,38-18.84c.6.26,1.19.5,1.77.73l.6-1.59c1.28-.47,2.58-.91,3.88-1.36-2.59,6.58-2.87,15.32-.7,24.87l-17.1,38.29,1.76.83,16.11-36.07c3.77,13.62,11.64,25.42,20.05,29.83l.88-1.77c-8.42-4.42-16.31-16.81-19.66-30.9,0-.06,0-.12,0-.18-.24-1-.45-2.06-.63-3.07-1.63-8.93-1-16.9,1.83-22.65l3.83-1.21a206.11,206.11,0,0,1,39.6-8c.41.42.83.84,1.22,1.25l1.38-1.41-.07-.07c36.22-3.09,69.69,4.47,92.77,21.92l1.15-1.6a100.52,100.52,0,0,0-17.76-10.67c-13.35-6.3-28.77-10.3-45.53-11.74a178.9,178.9,0,0,0-32.45.24,320.24,320.24,0,0,0-49.86-40.67,79,79,0,0,0,.6-16.37c-.06-.83-.13-1.67-.23-2.5-1.18-10.56-5.11-20.77-14.32-25.12a22.36,22.36,0,0,0-3.37-1.25l-.5,1.92c10.19,2.87,14.64,12.58,16.1,23.07a135.7,135.7,0,0,0-16.5-9.81c-6.4-3-12.91-4.78-18.88-3.37l.45,1.93c10.57-2.5,23.56,6.09,34,13l1.24.82a76.2,76.2,0,0,1-.37,16.53,177.3,177.3,0,0,0-19.12-10.66c-10.49-5-20.52-8-29.12-8l0,2c13.59,0,30.87,7.82,47.91,18.76.6.37,1.19.75,1.78,1.15a319.52,319.52,0,0,1,47.65,38.82,209.58,209.58,0,0,0-38.33,7.89Z"/><path class="cls-6" d="M2393.39,2218.67a66.51,66.51,0,0,1-11.73,10,42.2,42.2,0,0,1-21,7,28.35,28.35,0,0,1-10.64-1.44c-40.41,35.17-70.87,94.16-81.64,138.9,26-26.34,36.36-65.23,66-91,22-19.05,45.21-37.39,64.74-58.82A32.33,32.33,0,0,1,2393.39,2218.67Z"/><path class="cls-6" d="M2393.38,2218.66a66.51,66.51,0,0,1-11.72,10c-.43.3-.88.58-1.32.85-23.26,30-48.25,58.15-60.59,94.07,33.79-34,58.91-67.63,97-94.19C2407.89,2228.41,2399.39,2224.86,2393.38,2218.66Z"/><path class="cls-6" d="M2368,2094.82a18.84,18.84,0,0,1-3.16-4.93c-38.93-7.23-81.06-14.69-114.35-12.59,40.63,30.37,85.46,24.78,130.24,31.93C2376.37,2104.53,2372.24,2099.62,2368,2094.82Z"/><path class="cls-6" d="M3193.23,2029.61a33.94,33.94,0,0,1,9.12,0c5.57.75,10.47,3.23,15,6.41.67.47,1.35.92,2,1.36,46.67-37.86,132.28-56.86,188-69.37C3326.33,1969,3258.65,1986,3193.23,2029.61Z"/><path class="cls-6" d="M3370.86,2026c-36.24-7-67-2.36-97.62,3.6.13.17.27.33.39.51a21.49,21.49,0,0,1,8.35,11.48c62.1-11.52,138.58,2.38,195.87,2.61C3441.25,2042.73,3406.43,2033,3370.86,2026Z"/><path class="cls-6" d="M2382.75,2111.62l-1.63-2.8c-23.34,13.59-56.07,17.81-87.73,21.88-29.14,3.76-56.7,7.31-76.8,17.68-2.48-2.56-6.08-4.61-11-6l-2.32-5.33c-4.79-.31-13.63,1.47-21.55,2.73l.76-2c-1.93-.75-4.46-1.91-7.4-3.24-13.34-6.08-35.66-16.25-51.07-10.39-5.87,2.23-10.27,6.59-13.09,13l-.76,1.71,1.8.51a63.92,63.92,0,0,1,11.66,5.16c2.7,1.4,5.44,2.83,8.24,4-14.88,2.5-24.54,11.82-27,26.48l-.18,1.07.92.57c9,5.63,17.36,8.53,25.2,8.73-6.72,4.47-10.39,10.58-10.36,17.65,0,9.57,7.15,18.85,16.53,21.57a19.28,19.28,0,0,0,11.06,0v.09c-.36,5.09,2.56,10.21,7.79,13.69a27.13,27.13,0,0,0,14.89,4.3,31.57,31.57,0,0,0,14.29-3.53c16.41-8.27,27.51-42.59,29.1-60.27,6.41-9.71,9.26-20.34,4.58-27.92,19.55-9.89,46.6-13.38,75.17-17.06C2325.78,2129.81,2358.85,2125.55,2382.75,2111.62ZM2202,2182.46c-1.69,2.81-3.24,5.91-4.86,9.14-5.9,11.81-11.49,23-24,21.18a87.19,87.19,0,0,0,3.24-8.32c1.81-5.17,3.52-10.06,7.39-14.78l-2.31-2.26c-10.72,9.13-19,5.44-22.11,3.43-5.37-3.5-8.07-10-6.42-15.46,2.06-6.85,10.31-10.74,22.59-10.65l.28-3.23c-5.48-.9-10.84-3.63-16-6.28a89.67,89.67,0,0,0-10.34-4.74c6.73-7.69,16.07-10.19,26.53-7.25,1.06,1.38,3.63.5,5.06,3.79-2.55,1.92-9.29,4.26-10.72,7.2,1.31,2.92,7.74,3.31,10,5.46,1.15,3.95-3.77,6.94-3,11,5.49,1.87,13.47,2.79,19,4.27-.44,2.32-.82,4.64-1.14,7A28.88,28.88,0,0,0,2202,2182.46Zm-18.53,53.82c-10.51,5.3-20.28,3.18-25.92-.57-4.25-2.83-6.62-6.85-6.35-10.77a8.88,8.88,0,0,1,.3-1.76,30.36,30.36,0,0,0,11.26-10.92l3.08-4.81-5.15,2.47c-6,2.88-10.06,6.65-11.8,10.87a16,16,0,0,1-11.07.73c-8.05-2.34-14.16-10.28-14.19-18.47,0-4.92,2.22-13.72,17-18.89.76-.22,1.53-.46,2.29-.74l-1-3.08c-.74.22-1.47.46-2.18.7-9.49,2.7-19.85.55-31.54-6.52,3-15.12,14.91-23.62,32.88-23.37l.21-3.24c-5.49-.63-10.95-3.47-16.23-6.22a80.26,80.26,0,0,0-10.44-4.83,19.24,19.24,0,0,1,10.48-9.59c14.15-5.38,35.7,4.44,48.57,10.3,2.17,1,4.12,1.88,5.8,2.59l-1.69.24c-12.84-3.9-24.59-.42-32.35,9.93l-1.41,1.89,2.27.64a69.91,69.91,0,0,1,12.05,5.27c2.75,1.4,5.55,2.83,8.43,4-12.41,2.16-15.94,9-16.92,12.29-2,6.81,1.21,14.85,7.75,19.12,5.77,3.77,12.68,3.93,19.41.68a75.17,75.17,0,0,0-3.67,9.14,69.3,69.3,0,0,1-4,9.81l-1,1.84,2,.5a23.25,23.25,0,0,0,5.46.69c12.61,0,18.73-12.23,24.2-23.18a105.68,105.68,0,0,1,5.73-10.5,17.63,17.63,0,0,1,4.38.77,125.45,125.45,0,0,1-6.46,23.73C2198,2222.22,2190.78,2232.61,2183.49,2236.28Z"/><path class="cls-6" d="M2825.71,1759.24c1,.36,1.92.75,2.84,1.17l.38-.48c33.81-11.7,44.71-162.72,38.22-202.39-21.59,32.18-22.4,98.47-28.29,137-2.93,19.13-8.81,43.48-16.65,63.65A33.66,33.66,0,0,1,2825.71,1759.24Z"/><path class="cls-6" d="M2787,1760.75a48.53,48.53,0,0,1,8.42-1.89h0l2.52-.51a46.2,46.2,0,0,1,4.65-1,55.29,55.29,0,0,1,10.85-.68c6-58,13.43-140.5-27.16-187.3-2.57,41.83,9.6,87.2,9.52,130.18C2795.77,1719.38,2789.37,1740.9,2787,1760.75Z"/><path class="cls-6" d="M3443.23,2196.6l-.2.32a425.31,425.31,0,0,0-39-19.07c17.47-4.1,42-19.3,52.84-33.5a36.21,36.21,0,0,0,2.29-3.33,11.35,11.35,0,0,1-2.71-1.43l-.16-.12a34.71,34.71,0,0,1-2,2.92c-11.3,14.84-39.43,31.44-55.82,33.14q-6.35-2.59-13.1-5.09c-.25-.25-.51-.51-.77-.75,10.9-9.32,32.31-30.16,40.75-47.37l-2.91-1.39c-7.44,15.09-26.36,35-41.49,47.59l.39.46c-7.66-2.72-15.66-5.29-24-7.6l-.74-.2-.08,0c18.33-10,32.55-29.33,45.16-46.46l2.3-3.13c-.94-.53-1.88-1.08-2.82-1.64-.7.94-1.39,1.89-2.1,2.84-13.06,17.75-27.87,37.87-46.93,47l.13.27c-33.06-8.66-63.1-11.07-89.63-7.21a24.49,24.49,0,0,1,3,2.88c28.5-3.66,59.33.13,89.38,8.34,7.51,3.83,14.34,12.65,19.46,25.21,8.88,21.84,9.88,48.83,2.36,64.17l2.92,1.43c8-16.36,7.08-43.84-2.28-66.82-3.7-9.11-8.34-16.39-13.53-21.42q9.8,3,19.41,6.5c16.93,17.19,29,57.23,23.66,80.19l3.17.73c5.06-21.92-5.1-58.83-20.45-78.52,2.52,1,5,2,7.53,3l0,.4.79-.06a412.51,412.51,0,0,1,57.7,29.32l.08.05,1.7-2.77-.1-.07Z"/><path class="cls-23" d="M3432.48,2243.29c16.48,11.11,22.93-14.08,15.62-18.9C3432,2213.81,3419,2234.17,3432.48,2243.29Z"/><path class="cls-23" d="M3360.26,2263.16s1.11.56,3.86,1.84a12.16,12.16,0,0,0,16.77-6.95C3389.07,2234.47,3341.19,2235.82,3360.26,2263.16Z"/><path class="cls-23" d="M3451.51,2207.62h0c31.73,26.79,15.86-35.71.73-8.74A10.67,10.67,0,0,0,3451.51,2207.62Z"/><path class="cls-23" d="M3461.18,2178.2l.16.08a7.89,7.89,0,0,0,11.31-6.28c.55-5.2-1.75-9.61-6.48-12.64a7.62,7.62,0,0,0-11.64,4.67l-.06.22A12.46,12.46,0,0,0,3461.18,2178.2Z"/><path class="cls-23" d="M3409.76,2097.21c-10-13.2-28.18-4.08-21.66,9.79C3395.18,2122.06,3422.71,2114.24,3409.76,2097.21Z"/><path class="cls-23" d="M3416.33,2259.61c.21-9-7.45-15.07-14.22-12.23-6.59,2.77-7.51,11.9-2,16.78.83.74,1.69,1.44,2.57,2.09A8.52,8.52,0,0,0,3416.33,2259.61Z"/><path class="cls-23" d="M3444.45,2130.85s-13.41,22.7,12.86,20.23C3471.53,2135,3454.5,2117.68,3444.45,2130.85Z"/><path class="cls-23" d="M3414.75,2108.61l-.12.16a8.55,8.55,0,0,0,1.59,12.18,23,23,0,0,0,8.6,4c3.52-6.34,4.66-10.78,3-14.56A7.73,7.73,0,0,0,3414.75,2108.61Z"/><path class="cls-16" d="M2687.57,2557c4.44.44,12.1.56,19.08,1.34a86.7,86.7,0,0,1,14.23-1.21h64c1.66-3.09,3.72-5.31,6.34-6.28,10.74-4,29.63-.89,41.47-1.45,8-.38,15.89-1,23.72-1.83,10.94-1.14,21.81-2.59,32.92-4.09,18.67-2.52,44.37-5.05,66.27-2.81a88.87,88.87,0,0,1,18.84-2.1c4.65,0,9.29,0,13.93-.06a93,93,0,0,1,32.46-6.12h34c.76,0,1.52,0,2.28.06,9.53-3.64,22.31-4,30.9-7.86,24-10.72,32.43-24.14,36.82-50.69a415.93,415.93,0,0,0,5.08-59.2c.77-39.1-2.75-79.27-7.35-116-3.38-27-20.73-43.95-44.32-54.64-44.1-20-110-18.19-147-19.62-15.83-.61-31.65-.74-47.47-.52-12.55.16-25.1.52-37.63,1h0c-51.44,2-102.79,6-153.93,6.3-4.43-13-8.15-26.22-12.21-39.21-8,8.7-12.69,27.23-21.4,35-5,4.42-12.4,4.57-18.25,5.76-11.84,2.41-23.85,4.74-35.85,7.15-9.15,1.83-18.3,3.71-27.38,5.72-15.22,3.36-31.17,6.52-46.8,7.51-6.65.41-27.42,5.21-31.5,3.61-2.27-.88-4.66-4.21-7-8.66-5.47-10.31-10.74-26.67-13.88-32.81-3.73,15-7.46,92.44-7.66,109.44-.26,22.06-1.69,45.75,1.49,67.12,1.13,7.57,1.85,15.49,2.44,23.6,2.55,35.1,2.72,73.58,23.82,101.87,15.15,20.3,37,23.13,60.42,26.19,28.1,3.67,56.31,11.54,83.9,13.11C2657.33,2557.51,2672.67,2555.52,2687.57,2557Z"/><path class="cls-6" d="M2610.24,2327c-2.25-14.52-2.92-29.51-4.37-44.14-1.15-11.52.37-29.39-1.38-42.9-9.15,1.83-18.3,3.71-27.38,5.72-15.22,3.36-31.17,6.52-46.81,7.51-2.45.15-6.83.9-11.59,1.71-10.49,5.06-22,8.63-32.9,12.6a111.46,111.46,0,0,0-13.41,5.51c-1.62,18-2,38.32-2.14,51.76-.26,22.06-1.69,45.75,1.49,67.12,1.13,7.57,1.85,15.49,2.44,23.6,4.19-.53,8.51-1.48,11-2,30-6.47,64.82-11.14,92.28-25.25,10.26-5.27,25.9-14.6,31.93-24.85C2616.37,2351.51,2612.19,2339.64,2610.24,2327Z"/><path class="cls-24" d="M2670.07,2228.5c.63-4,2.63-10.09,6.94-13,2.63,4.91,4.75,10.48,7.65,14.43Z"/><path class="cls-24" d="M2479.61,2261.82c.64-1.63,1.77-11.08,3.13-15.85,5.22,1.67,7.64,7.23,10,12.93Z"/><path class="cls-6" d="M2936.79,2269.63c-1.65,10.1-9.14,19.77-12.94,29.74-5.07,13.26-8.13,27.05-12.22,40.66-2.6,8.67-3.47,23.9-8.89,28.5-7.63,6.46-32.37,2.9-41.77,2.9-23.45,0-44.35,10.62-49.46-14.58-3-14.65-4.93-30.87-7.12-46.07-3.6-25.11-11.43-52.26-10.35-78.05l52.09-8.08h0c12.53,0,25.08-.71,37.63-.86C2898.37,2240,2918.41,2259.64,2936.79,2269.63Z"/><path class="cls-6" d="M3130,2414.68c-13.34-1.41-27.32-5.67-40.69-8.42-10.94-2.26-21.63-3.29-32.69-5.3-6.69-1.21-30.25-1.08-34.71-5-7.66-6.78-6.56-34.76-7.51-44.52-2.47-25.46-1.09-31.9,15.24-50.72,14.5-16.73,31.45-32.95,43-51.78l5.66-4.85c23.59,10.69,40.94,27.64,44.32,54.64C3127.2,2335.41,3130.72,2375.58,3130,2414.68Z"/><path class="cls-6" d="M2963.24,2541.64c-23.31-3.85-53-1-73.89,1.82-11.11,1.5-22,2.95-32.92,4.09,8.19-18,10.81-54,28.33-63.52,16.74-9.05,60.76,1.29,78.32,5.84C2963.69,2507,2963.31,2524.39,2963.24,2541.64Z"/><path class="cls-5" d="M2741.16,2518.38c-9.22-12.05-28.46-.63-21.92,13.06,2.7,5.65,8.87,9.46,19,6.79C2750.7,2535,2746.69,2525.62,2741.16,2518.38Z"/><path class="cls-5" d="M2505.54,2512.71c12.45-17.83,46.93-9.06,34,11.15-10.18,15.94-28.44,2.37-34.28-9.49Z"/><path class="cls-6" d="M2645.83,2496.52a107.35,107.35,0,0,0-8.15-9c0-.15.05-.31.07-.46,2.55-1.93,5.59-4.89,7-7.79-5.65.13-11.32.1-17,.1,2.34,2.4,5.2,4.44,7.55,7.09-.48,4.08-3.26,8.72-6,13.24-2.28,3.8-4.63,7.72-5.69,11.42l2.4.68c1-3.38,3.23-7.16,5.42-10.82a58.1,58.1,0,0,0,5.48-10.67c2.4,2.4,4.63,5,7,7.82a87.5,87.5,0,0,0,11,11.57l1.58-1.92A84.74,84.74,0,0,1,2645.83,2496.52Z"/><path class="cls-6" d="M3126,2445.89c40.34,32-17,78.51-44,92-37.58,18.76-83.46,21-125.63,18.87-1.3-4.79-1.37-12.91,0-17.63,32.72-6.95,68.37-12.85,100-22,41.27-12,54-22.11,66.52-58.84Z"/><path class="cls-6" d="M2557.81,2486.65c-14.44,0-30.91-.18-44.16-6.07l1.57-3.27c12.56,5.57,28.55,6.34,42.58,6.34h.37v3Z"/><path class="cls-6" d="M2735.85,2495.58c-8.21,0-17.1-1.71-24-3-1.08-.21-2.11-.41-3.06-.58l.71-3.81,3.09.59c10.81,2.08,28.92,5.57,37.52-.29l2.18,3.2C2748,2494.58,2742.12,2495.58,2735.85,2495.58Z"/><path class="cls-20" d="M2831.5,73.37c54.74-45.76,162.67,13.86,112.26,78.13,90.64,1.61,190.37,82.46,100.52,165.22,39.43,66.71-14.94,216.13-106.54,188.66,19.61,93-149.5,101.87-187.29,43.71-52.46,99.58-190.83,31.63-223.12-49.64-48.53,80.47-208.41-94.26-119.59-149.31-53.66-43.88-13.43-159.07,48.86-142.47-57.95-45.76,100.6-154.76,130.3-93.56-36.59-70.86,72.54-122.25,163.26-113C2819.45,8.1,2831.5,73.37,2831.5,73.37Z"/><path class="cls-20" d="M2508,567.78c34.52,13.75,29,53.36-2.81,45.47C2479.81,607,2482.56,557.65,2508,567.78Z"/><path class="cls-20" d="M2416,656.82c-22.9-28.49,14.67-68.83,40-38.46C2478,644.8,2450.82,700.12,2416,656.82Z"/><path class="cls-20" d="M2355.86,657.56a25.06,25.06,0,0,1-16.73,1.81c-24.3-5.71-21.93-41.4,2.83-44.47l.64-.08C2367.66,611.79,2378.52,646.45,2355.86,657.56Z"/><path class="cls-6" d="M2721.69,519l-1.65-2.64c5.26-3.3,4-27.7,3.27-40.81-.23-4.38-.43-8.16-.41-10.65l3.12,0c0,2.39.18,6.13.41,10.47C2727.52,496.07,2728,515,2721.69,519Z"/><path class="cls-6" d="M2790.59,514.6l-1.8-2.54c7.89-5.6,4.75-32.12,1.36-41.37l2.92-1.07C2796.72,479.57,2800.38,507.66,2790.59,514.6Z"/><path class="cls-25" d="M2781.9,517.83c7.85,2.1,13.12-1.14,12.32-8.86C2794.22,509,2773.91,501.27,2781.9,517.83Z"/><path class="cls-25" d="M2725,513.52c3.59-5.37-16.84-10.53-15.73,2.1,1,11,14.05,7,16-2.29Z"/><path class="cls-13" d="M2752,117.49c-17-13.73-55.79-7.49-77.72-6.57-26.32,1.1-47.95,0-72.08,7.42-58.94,18-65.19,72.34-68.09,127.58-2.76,52.51-5.89,136,67.89,127.19,16.37-2,89.88-16.65,96-4.47,3.92,7.78-7.84,65.71,1.28,86.43,18.7,42.5,73,25.46,109.36,22,54.3-5.23,147.41-1.54,175.46-59.61-40.64-2.6-68-2.27-100.66-29.78-21.92-18.49-41.84-36.65-54-62.93C2807.4,276.82,2794,230,2781.41,178.9,2777.62,163.54,2766.64,129.32,2752,117.49Z"/><path class="cls-6" d="M2980.79,420c.62.05,1.24.12,1.85.2.35-4.36-4.21-13.21-9-22-.58-1.08-1.1-2-1.51-2.82l-.51-1-.88.65c-7.43,5.53-14.43,11.14-18.56,18.68-2-7.92-5.43-16.2-8-22.42l-.41-1-.92.54c-4.73,2.73-8.85,6.66-12.83,10.46-3.63,3.47-7.07,6.75-10.82,9.07a218.57,218.57,0,0,1-4.28-36.66l-.09-2.35-1.55,1.76c-7,8-17.51,15.4-28.22,20-1.7-7.32-1.3-16.14-.92-24.68.22-4.83.44-9.82.26-14.36l0-1.13-1.11.26a101.78,101.78,0,0,0-12.12,4c-6,2.28-12.26,4.64-18.43,4.93.79-4.21,2-8.57,3.33-13.16,2.41-8.49,4.89-17.27,4.56-25.53l0-1.22-1.16.36c-10.76,3.33-19.56,4.73-26.84,4.28,5.47-10.48,13.79-27,12.28-38.71l-.1-.77-.78,0c-5.11-.28-10.38-.3-15.47-.31-5.48,0-11.13,0-16.62-.38,2.29-7.72,8.83-16.45,14.62-24.19,1.6-2.14,3.12-4.17,4.46-6.06l.42-.6-.48-.55c-6-7-17.9-6.35-28.36-5.81-3.12.16-6.1.32-8.71.25,10.79-12.12,22.81-27.25,24.37-39.86l.07-.63-.55-.31c-8.74-4.78-21.57-5.76-32.89-6.63-2.58-.2-5-.38-7.34-.61,2.94-7.71,9.59-13.67,16-19.44a96.21,96.21,0,0,0,10.39-10.28l.69-.83-.93-.56c-10.13-6.08-20-7.33-31.5-7.11a80.7,80.7,0,0,1,7.36-8.94c4.28-4.75,8.71-9.66,10.43-15.09l.27-.84-.83-.32-4.51-1.7c-8-3-16.21-6.15-24.08-8.41l-.51,1.8c7.79,2.24,16,5.35,23.93,8.36l3.66,1.38c-1.77,4.72-5.65,9-9.75,13.56a69.75,69.75,0,0,0-8.49,10.71l-.87,1.46,1.7-.05c11.56-.36,21.36.58,31.28,6.24a103,103,0,0,1-9.48,9.22c-6.93,6.21-14.1,12.63-17,21.36l-.36,1.09,1.15.13c2.65.28,5.52.5,8.57.73,10.88.84,23.18,1.78,31.56,6.11-2.17,14.15-18.8,32.65-25.12,39.67l-1.27,1.41,1.89.15a90,90,0,0,0,10.89-.15c9.74-.5,20.73-1.07,26.35,4.63-1.21,1.69-2.56,3.5-4,5.4-6.17,8.25-13.16,17.59-15.23,25.94l-.27,1.08,1.11.08c5.9.42,12,.44,17.88.46,4.81,0,9.77,0,14.59.26,1,11.59-7.61,28.12-12.82,38.09l-.64,1.23,1.38.13c7.53.74,16.62-.53,27.78-3.88,0,7.62-2.27,15.8-4.52,23.73a143.17,143.17,0,0,0-3.58,14.48l-.19,1.1h1.12c6.88,0,13.65-2.6,20.21-5.08a112.26,112.26,0,0,1,10.78-3.67c.11,4.12-.09,8.47-.3,13-.4,9.09-.83,18.49,1.24,26.28l.27,1,1-.4a85.44,85.44,0,0,0,28.37-19.21,215.88,215.88,0,0,0,4.51,36l.27,1.22,1.09-.6c4.39-2.45,8.23-6.11,12.3-10,3.64-3.48,7.39-7.06,11.56-9.66,2.81,6.72,6.44,15.58,8.09,23.66l.59,2.87,1.18-2.68c3.56-8,10.63-13.94,18.29-19.68.3.57.64,1.19,1,1.87C2975.05,404.69,2981.14,415.94,2980.79,420Z"/><path class="cls-16" d="M2628.14,330c-1.63-4.79-5.72-9.35-10.39-11a143.85,143.85,0,0,0-7.25,17.17c-6.26-4.71-10.42-12.15-15.55-17.77-4.07,4.76-8.13,11.6-11.28,17.58-5.33-3.69-8.15-11.48-12.32-15.8-2.87,6.07-2.95,13.14-6.58,17.3a73,73,0,0,0-6.34-15.48l-.25-.44,0-2.67c9.58-1.31,19-3.06,28.28-4.78,13.56-2.51,27.52-5.1,41.61-6.26l.34,0c.05,1,.1,2,.13,3.06A146,146,0,0,1,2628.14,330Z"/><path class="cls-6" d="M2757,421.51a20.09,20.09,0,0,1-4.78-.74c-15.27-4-24.8-31.6-23.21-44l1.85.24c-1.47,11.53,7.7,38.22,21.83,41.93,3.69,1,6.25.89,7.83-.26,2.49-1.82,2.75-6.52,3.06-12,.11-2,.23-4.13.47-6.32.38-3.63.9-7.26,1.4-10.77a157.19,157.19,0,0,0,2-20.45l1.86,0a156.24,156.24,0,0,1-2,20.69c-.5,3.5-1,7.11-1.4,10.71-.23,2.14-.34,4.22-.45,6.23-.34,5.92-.62,11-3.83,13.38A7.52,7.52,0,0,1,2757,421.51Z"/><path class="cls-26" d="M2764.23,411.59c-1.65,12.22-8.56,9.57-17.91,5.62l-3-2.3c-.05,0-3.56,16.59-5.2,22.76,4.12-6.62,10.55-10.76,16-16.06-.28,10-1.67,21.69,5.81,28.14,2.24-8.19,2.73-16.83,4-25.27,5.77,4.77,12,10.24,18.93,13.81C2780.84,428,2772.28,418.75,2764.23,411.59Z"/><path class="cls-6" d="M2634.5,310.57c-2,.09-4,.22-5.94.38-14,1.13-28,3.72-41.51,6.23-9.38,1.74-18.91,3.51-28.62,4.83a214.39,214.39,0,0,1-29.7,2.18v-3.12a210.1,210.1,0,0,0,29.46-2.17c9.58-1.31,19-3.06,28.28-4.78,13.56-2.51,27.52-5.1,41.61-6.26q3.12-.25,6.25-.41Z"/><path class="cls-26" d="M2686.07,247c.22,2.1-.14,4.1.19,6.19,5.28-2.07,4.8-1.92,6-7.51a54.49,54.49,0,0,0-6.15-.28Z"/><path class="cls-3" d="M2701,272.1c-13-12.75-34.42,2.13-26.34,18.47,3.42,6.93,11.24,11.11,23,6C2713.89,289.5,2708.48,279.38,2701,272.1Z"/><path class="cls-6" d="M2667.24,149.33a16.68,16.68,0,0,1-9.66-3.14c-3.95-2.83-5.82-5.65-5.55-8.39s2.64-5.17,6.85-7.05a22.84,22.84,0,0,1,20.16.92l.17.09a7.55,7.55,0,0,1,1.64,12.08A20,20,0,0,1,2667.24,149.33Zm.86-19.25a21.08,21.08,0,0,0-8.71,1.8c-3.72,1.67-5.89,3.82-6.12,6s1.47,4.71,5,7.25c7.27,5.2,16.42,2.81,21.69-2.24a6.28,6.28,0,0,0-1.38-10.07l-.17-.1A22.09,22.09,0,0,0,2668.1,130.08Z"/><path class="cls-6" d="M2706.31,158.82c-3.46,0-6.19-.89-7.94-2.53-2.07-1.94-3-4-2.9-6.26.17-2.53,1.87-5.08,4.78-7.15a9.54,9.54,0,0,1,11.68.35,9.15,9.15,0,0,1,2.9,10.85h0a7.1,7.1,0,0,1-6.44,4.66C2707.67,158.8,2707,158.83,2706.31,158.82Zm-.48-16.52a8.12,8.12,0,0,0-4.85,1.59c-2.61,1.86-4.12,4.07-4.27,6.22-.12,1.83.72,3.6,2.51,5.27s5,2.44,9.07,2.12a5.87,5.87,0,0,0,5.39-3.9,7.93,7.93,0,0,0-2.52-9.39A8.9,8.9,0,0,0,2705.83,142.3Z"/><path class="cls-6" d="M2715.45,135.49l-.58,0c-6.33-.49-13.61-3.77-13.91-7.7-.14-1.81,1.18-4.32,8.29-6l.09,0a36.27,36.27,0,0,1,6.83.26,6.51,6.51,0,0,1,5.84,7.42A6.43,6.43,0,0,1,2715.45,135.49Zm-6-12.49c-4.85,1.15-7.43,2.81-7.29,4.67.22,2.83,6.55,6.08,12.77,6.56a5.25,5.25,0,0,0,5.8-4.92,5.31,5.31,0,0,0-4.75-6.06A35.44,35.44,0,0,0,2709.49,123Z"/><path class="cls-6" d="M2673.7,163.57a4.91,4.91,0,0,1-4.28-2.67,5,5,0,0,1,1.16-6.21,17.14,17.14,0,0,1,1.44-1.11l.09-.06.1,0c6.89-1.68,9.95.11,10.53,2.34.64,2.47-1.82,6-7.63,7.54A5.48,5.48,0,0,1,2673.7,163.57Zm-1.08-8.89c-.19.13-.64.46-1.23,1a3.71,3.71,0,0,0-.87,4.68,3.64,3.64,0,0,0,4.27,1.86h0c4.79-1.3,7.23-4.15,6.74-6C2681.1,154.46,2678.17,153.35,2672.62,154.68Z"/><path class="cls-6" d="M2630.7,141.91a6.52,6.52,0,0,1-6.33-4.85,6.41,6.41,0,0,1,2.91-7.45,17,17,0,0,1,6.75-2.18h0a11.51,11.51,0,0,1,12,7l.18.42-.18.28c-2.91,4.39-8,6.69-15.13,6.81Zm3.48-13.25a15.82,15.82,0,0,0-6.26,2,5.22,5.22,0,0,0-2.35,6,5.32,5.32,0,0,0,5.3,3.94c6.54-.11,11.22-2.12,13.92-6a10.28,10.28,0,0,0-10.61-6Z"/><path class="cls-6" d="M2804.28,348.61a7.77,7.77,0,0,1-3.78-1,32.38,32.38,0,0,1-10.14-9,9.06,9.06,0,0,1-.79-9.29,9.26,9.26,0,0,1,7.73-5.32c4.13-2.3,7.13-1.44,8.92-.29,4.18,2.66,6.45,9.69,5.77,17.91a7.55,7.55,0,0,1-4,6.09A7.69,7.69,0,0,1,2804.28,348.61Zm-2-24.82a9.05,9.05,0,0,0-4.52,1.36l-.13.08h-.15a8,8,0,0,0-6.83,4.62,7.84,7.84,0,0,0,.69,8h0a30.9,30.9,0,0,0,9.74,8.62,6.49,6.49,0,0,0,6.25.1,6.33,6.33,0,0,0,3.38-5.1c.63-7.64-1.46-14.37-5.2-16.75A6,6,0,0,0,2802.32,323.79Z"/><path class="cls-6" d="M2838,379.05h-.14c-6.55-.24-14.46-13.6-16.1-24a7,7,0,0,1,3.89-7.41c3.34-2,7.43-1.52,11.22,1.25,5.39,3.94,10,12.77,8,21.35C2843.19,377.52,2840.23,379.07,2838,379.05Zm-7.85-31.36a7.37,7.37,0,0,0-3.89,1.07l0,0a5.73,5.73,0,0,0-3.22,6.09c1.52,9.62,9.17,22.72,14.92,22.93,3.27.11,4.93-4.19,5.78-7.82,1.89-8.07-2.48-16.36-7.55-20.07A10.39,10.39,0,0,0,2830.13,347.69Z"/><path class="cls-6" d="M2809.59,379.52a6.27,6.27,0,0,1-1.92-.32c-4.57-1.5-7.68-7.92-8-13.27a4.06,4.06,0,0,1,3.89-4.34c4.46-2.84,10.41-1,13.42,2.35s2.89,7.72-.37,11.59C2814,378.65,2811.52,379.53,2809.59,379.52Zm-5.87-16.69a2.83,2.83,0,0,0-2.84,3c.32,4.83,3.16,10.85,7.18,12.17,2.46.8,5.07-.33,7.57-3.29,2.86-3.4,3-7,.39-10s-8.16-4.58-11.95-2l-.16.11Z"/><path class="cls-6" d="M2869.44,420.33a14.57,14.57,0,0,1-4-.61c-8.67-2.48-17.87-12.7-16.73-22.16l0-.1a9.37,9.37,0,0,1,11.46-6.5c7.46,2,17.26,6.56,20.32,13.11a9.72,9.72,0,0,1-.08,8.62C2878.11,417.71,2874.21,420.36,2869.44,420.33ZM2850,397.76c-1,8.7,7.83,18.47,15.84,20.77,3.47,1,9.84,1.49,13.52-6.37a8.54,8.54,0,0,0,.08-7.57c-2.87-6.15-12.31-10.54-19.51-12.42A8.13,8.13,0,0,0,2850,397.76Z"/><path class="cls-6" d="M2835.38,400a5.46,5.46,0,0,1-4.92-3.09l-.09-.18h0a8.07,8.07,0,0,1,.52-7.84,8.2,8.2,0,0,1,6.68-3.81.82.82,0,0,1,.66-.21c1.25.18,3.66,4.66,2.91,10.21a5.57,5.57,0,0,1-4.74,4.84A5,5,0,0,1,2835.38,400Zm2.52-13.68a7,7,0,0,0-6,3.24,6.81,6.81,0,0,0-.44,6.64l.08.16a4.22,4.22,0,0,0,4.62,2.33,4.38,4.38,0,0,0,3.71-3.77,12.33,12.33,0,0,0-1.69-8.59h-.32Z"/><path class="cls-6" d="M2818.45,406.73a4.22,4.22,0,0,1-3.94-2.64c-.54-1.27-1.12-2.58-1.68-3.87s-1.14-2.6-1.64-3.79a9.33,9.33,0,0,1,.08-7.45,8.69,8.69,0,0,1,5.19-4.75l.17-.05a3.85,3.85,0,0,1,3.28.45,4,4,0,0,1,1.78,2.85l0,.43a129,129,0,0,1,1.1,14.53,4.24,4.24,0,0,1-3.46,4.21A4.08,4.08,0,0,1,2818.45,406.73Zm-.64-21.48a2.28,2.28,0,0,0-.81.12l-.15.05a7.43,7.43,0,0,0-4.44,4.07,8,8,0,0,0-.07,6.45h0c.5,1.19,1.06,2.47,1.64,3.78l1.68,3.88a3,3,0,0,0,3.47,1.82,3,3,0,0,0,2.46-3,126.88,126.88,0,0,0-1.09-14.37l-.05-.43a2.69,2.69,0,0,0-2.64-2.38Z"/><path class="cls-6" d="M2899.24,426a4.89,4.89,0,0,1-4.44-2.84,5,5,0,0,1,.59-5.33,5.94,5.94,0,0,1,3.87-4.93,6.52,6.52,0,0,1,6.57,1.52c2.32,2.22,2.92,5.9,1.66,10.09l-.11.37-.39.06-2.13.36a38.28,38.28,0,0,1-5.44.7Zm2.06-12.19a4.81,4.81,0,0,0-1.63.27,4.73,4.73,0,0,0-3.07,4.09l0,.19-.12.14a3.77,3.77,0,0,0-.54,4.12,3.71,3.71,0,0,0,3.46,2.14h0a40,40,0,0,0,5.27-.69l1.76-.29c1.34-4.86-.32-7.38-1.44-8.46A5.43,5.43,0,0,0,2901.3,413.85Z"/><path class="cls-6" d="M2796.4,315.26a5.26,5.26,0,0,1-4.92-3.32c-.11-.24-.92-4.57-2.42-12.87l0-.31.21-.22c2.71-3,4.87-4.77,10-3.06l.32.1.09.33c0,.06.07.35,1.19,6.7.5,2.76,1,5.62,1.05,5.85a5.33,5.33,0,0,1-3.57,6.49A5.66,5.66,0,0,1,2796.4,315.26Zm-6.06-16.11c.88,4.82,2.17,11.87,2.3,12.34a4.11,4.11,0,0,0,5.29,2.28,4.07,4.07,0,0,0,2.75-5h0c0-.05-.06-.31-1-5.91-.45-2.52-1-5.31-1.12-6.28C2794.34,295.26,2792.68,296.62,2790.34,299.15Z"/></g></g></svg>