<?xml version="1.0" encoding="utf-8"?>
<!-- Generator: Adobe Illustrator 24.0.1, SVG Export Plug-In . SVG Version: 6.00 Build 0)  -->
<svg version="1.1" id="svg948" xmlns="http://www.w3.org/2000/svg" xmlns:xlink="http://www.w3.org/1999/xlink" x="0px" y="0px"
	 viewBox="0 0 5000 5000" style="enable-background:new 0 0 5000 5000;" xml:space="preserve">
<style type="text/css">
	.st0{fill:#735232;}
	.st1{fill:#E8692E;}
	.st2{fill:#996D43;}
	.st3{fill:#E8BE47;}
	.st4{fill:#A38F4A;}
	.st5{fill:#C98F5C;}
	.st6{fill:#A37955;}
	.st7{fill:#D9A171;}
	.st8{fill:#B3854F;}
	.st9{fill:#ECB814;}
	.st10{fill:#33BCA8;}
	.st11{fill:#23A38F;}
	.st12{fill:#853F2F;}
	.st13{fill:#FFE1C7;}
	.st14{fill:#FFD9B9;}
	.st15{fill:#CD925A;}
	.st16{fill:#F4D472;}
	.st17{fill:#4F3B29;}
	.st18{fill:#F07D65;}
	.st19{fill:#F3977A;}
	.st20{fill:#BA8227;}
	.st21{fill:#44565B;}
	.st22{fill:#5A7379;}
	.st23{fill:#7B8F94;}
	.st24{fill:#FAF1E2;}
	.st25{fill:#E35724;}
	.st26{fill:#D4C78F;}
	.st27{fill:#FFFFFF;}
	.st28{fill:#E8D5C1;}
	.st29{fill:#D9B997;}
	.st30{fill:#9E972E;}
	.st31{fill:#B1AC58;}
	.st32{fill:#EEC2A1;}
	.st33{fill-rule:evenodd;clip-rule:evenodd;fill:#33A696;}
	.st34{fill:#FFB170;}
	.st35{fill:#F79B5C;}
	.st36{fill:#E89F35;}
	.st37{fill:#5C2F21;}
	.st38{fill:#7D594D;}
	.st39{fill:#FCFBAA;}
</style>
<g id="g1517" transform="matrix(-1 0 0 1 5000 0)">
	<path id="path188" class="st0" d="M5000,0v3855.5c-80.2-201-170.5-417.8-182.8-510.3c-45.4-341.4-91.6-679.2-155.7-1017.8
		c-27.7-146.2-99.9-266.1-137.8-403.4c-42.7-154.7-22-322.5-77.9-476c-43.5-119.4-92.6-232.8-128-356.6
		c-32.6-114.4-44.6-243.2-114.1-344.4c-186-271.2-501.1-285.6-817.7-263.3c-114.2,55.5-214.9,145.4-331.4,198.9
		c-159.4,73.1-324.5,119.7-492.8,168.9c-411.6,120.6-797.5,184.9-1227.5,143.6c289.4-51.9,587.9-56.2,876.6-126
		c316.5-76.6,602.9-198.6,879.7-360.4c-22.6,1.8-44.9,3.3-67,4.6c-497.4,29.2-964.3-37.6-1457.3-59.8c-34.9-1.5-74.6-6.9-117.1-15.3
		c-89.2,41.9-229.4,28-323.2,55.6c-119.3,35.2-230.8,67.7-349.3,106.6c-160.9,52.8-307.4,130.7-452.6,216.1c0-3.9-0.1-7.7-0.3-11.5
		c79.4-44.7,161-88,247.7-133.2c330.8-172.7,634.5-233.3,724.6-248.1l100.3,2.7c-120.3-29.4-254.8-79.9-362.8-139.1
		c3.5-1.7,6.9-3.5,10.2-5.4l9.3,5.7c107.1,25,202.9,80.8,311.9,102.1c130.2,25.4,276.4,40.6,409,44.7
		c125.2,3.9,251.7-16.8,376.6-11.4c109,4.8,353.8,26.2,452.2-19.6C2499,281.1,2194.8,98.6,2021.4,0H2174
		c85.5,45.3,159.3,100.7,207.8,129.4c131.4,77.6,224.2,216,386.8,216.5c239.4,0.6,471.3,14.3,711.4-43.1
		c-79.4-84.5-188.9-106.4-222-226.1c-5.9-21.4-9.9-47.7-12.3-76.7h67.1c10.5,36.4,27.6,69.5,57.8,95.5
		c93.9,81.2,285.4,124.8,406.8,129.4c43.8,1.6,142.1,22.2,170.2-7.8c37.1-39.7-9.2-160.1-17.6-204.7L3927.6,0H5000z"/>
	<path id="path190" class="st1" d="M1609.8,847.4c30.5,45.4-46,42-53,20.1C1552.5,854,1586.6,812.9,1609.8,847.4z"/>
	<path id="path192" class="st1" d="M1486.4,884.4c-15.4-34.5,47.7-41.3,49.2-6.9C1537,910.1,1495,909,1486.4,884.4z"/>
	<path id="path194" class="st1" d="M1488.4,946.6c29.5,44.1-60.7,65.6-56.7,12.4C1432.9,944.5,1460.6,905.2,1488.4,946.6z"/>
	<path id="path196" class="st1" d="M1357.6,905.2c-36.5-39,46.4-96.7,67-42.6C1442.2,909,1383.4,919.1,1357.6,905.2z"/>
	<path id="path198" class="st1" d="M1228.7,971.9c1.8,60.1,114.3,42.2,70.6-17.4c-44.3-60.5-100.3,30.5-51,28L1228.7,971.9z"/>
	<path id="path200" class="st1" d="M1261.1,883.2c-116.9-24.7,10-156,66.5-83.1C1385,874.1,1261.1,883.2,1261.1,883.2z"/>
	<path id="path202" class="st1" d="M1138.1,800.3c-27-15.2,26.7-51.2,43.3-23.5C1199.8,807.4,1148.8,806.4,1138.1,800.3z"/>
	<path id="path204" class="st1" d="M1102.6,901c-39.2-18.8,17.4-53.8,37.1-22.2C1160.5,912.5,1102.6,901,1102.6,901z"/>
	<path id="path206" class="st1" d="M1169.6,698.6c33.9,8,1.7,49.7-17.7,32C1146.9,726,1146.6,693.2,1169.6,698.6z"/>
	<path id="path208" class="st2" d="M1371.7,832.1l-3.5,1.3c-27.1-68.9,9.4-225.5,61.9-395.3l3.4,1.6
		C1381.3,608.6,1345,764.2,1371.7,832.1z"/>
	<path id="path210" class="st2" d="M1389.4,584.9l-2.2,3c21.5,16.1,49.9,60,74.1,114.7c25.3,57,41.6,115.6,43.7,156.7l3.7-0.2
		C1504.1,766.4,1434.8,618.8,1389.4,584.9L1389.4,584.9z"/>
	<path id="path212" class="st2" d="M1576,854.5l-3.6,0.9c-15.8-59.6-64.3-129.6-120.8-174.1l2.3-2.9
		C1511,723.4,1560,794.2,1576,854.5z"/>
	<path id="path214" class="st2" d="M1368.2,695.6l-1.6,3.4c-29-13.1-92.2-25.2-157.1-30.2c-69.2-5.3-119.8-0.7-132.3,12
		c-3.3,3.5-3.9,7.4-1.6,12.1l-3.4,1.6c-2.9-6.1-2.1-11.7,2.3-16.3c8.1-8.2,28.7-12.8,55.7-14.5
		C1203.4,659.1,1323.6,675.6,1368.2,695.6z"/>
	<path id="path216" class="st2" d="M1301.4,470.6c44.3,4.3,83.8,16.6,111.2,34.7l-2,3.1c-55.1-36.1-160.2-46.6-225.1-22.5
		c-28.5,10.6-46.5,26.8-52.3,47.1l-3.6-1c6.1-21.5,25-38.6,54.6-49.6c18.5-6.9,41-11.2,65.1-12.7
		C1266.1,468.6,1283.7,468.9,1301.4,470.6L1301.4,470.6z"/>
	<path id="path218" class="st1" d="M1103.8,688.3c59.5,60.4-82.7,117.6-92.8,47.3C1009.7,726.7,1043.5,627.2,1103.8,688.3z"/>
	<path id="path220" class="st1" d="M3571.4,502.8c54.7-2.6,12.1,61.1-10.2,55.7C3547.4,555.2,3529.9,504.7,3571.4,502.8z"/>
	<path id="path222" class="st1" d="M3539.2,627.5c-37.6-4.7-10.6-62.2,19.5-45.6C3587.3,597.5,3564.7,632.9,3539.2,627.5z"/>
	<path id="path224" class="st1" d="M3593.4,658c53-2.4,24.7,85.9-18.7,54.9C3562.9,704.4,3543.6,660.3,3593.4,658z"/>
	<path id="path226" class="st1" d="M3490.3,748.5c-52.3,11-58.8-89.8-1.8-79.4C3537.3,678,3515.5,733.6,3490.3,748.5z"/>
	<path id="path228" class="st1" d="M3480.5,893.3c52.4,29.5,95.3-76,21.7-69.5c-74.7,6.6-25.8,101.7-2.4,58.1L3480.5,893.3z"/>
	<path id="path230" class="st1" d="M3421.5,819.6c-81.7,87.3-128.3-89.4-36.7-100C3477.9,708.9,3421.5,819.6,3421.5,819.6z"/>
	<path id="path232" class="st1" d="M3286.8,881.9c-27,15.2-30-49.4,2.4-49.3C3324.8,832.8,3297.6,875.9,3286.8,881.9z"/>
	<path id="path234" class="st1" d="M3354.6,964.4c-36.4,23.8-37-42.8,0.2-43.2C3394.4,920.8,3354.6,964.4,3354.6,964.4z"/>
	<path id="path236" class="st1" d="M3216.2,802.2c24.4-24.8,43.3,24.4,18.1,31.8C3227.9,835.9,3199.6,819.1,3216.2,802.2z"/>
	<path id="path238" class="st2" d="M3435,698.5l-0.7,3.7c-52.3-9-126.3-69.4-207.6-151.8c0.7-1.1,1.3-2.2,1.9-3.3
		C3309.6,629.4,3383.2,689.6,3435,698.5L3435,698.5z"/>
	<path id="path240" class="st2" d="M3232.8,555.3l1.4,3.5c24.8-10.1,77.2-11.6,136.5-4c61.9,7.9,120.4,24.3,156.6,43.8l1.8-3.3
		C3447.4,551.2,3285.3,534.1,3232.8,555.3z"/>
	<path id="path242" class="st2" d="M3560,535.4l-1.1,3.6c-59.1-17.4-144.1-12.2-211.5,13.1l-1.3-3.5
		C3414.2,523.1,3500.1,517.8,3560,535.4L3560,535.4z"/>
	<path id="path244" class="st2" d="M3316.4,630.8l2.2,3.1c-26.3,18.1-69.4,65.9-107.2,118.8c-40.4,56.4-62.7,102.1-58.3,119.4
		c1.2,4.6,4.3,7.1,9.5,7.6l-0.4,3.7c-6.7-0.7-11.1-4.3-12.7-10.4c-2.9-11.2,3.9-31.2,16.4-55.1
		C3199.9,752.9,3276.3,658.6,3316.4,630.8L3316.4,630.8z"/>
	<path id="path246" class="st1" d="M3173.2,853.2c82.5-19.6,57.8,131.6-7.6,103.9C3157.3,953.6,3089.8,873.1,3173.2,853.2z"/>
	<path id="path248" class="st1" d="M2321.7,1253.1c24.4,49-51,35.7-55.1,13.2C2264,1252.3,2303.2,1215.9,2321.7,1253.1z"/>
	<path id="path250" class="st1" d="M2194.6,1274c-10.9-36.2,52.5-34.8,49.6-0.5C2241.4,1306,2199.9,1299.5,2194.6,1274z"/>
	<path id="path252" class="st1" d="M2188.5,1335.9c23.7,47.6-68.6,57.3-57.7,5C2133.7,1326.7,2166.4,1291.3,2188.5,1335.9z"/>
	<path id="path254" class="st1" d="M2064.1,1278.1c-31.1-43.4,58.5-90,72-33.6C2147.6,1292.7,2087.9,1295.1,2064.1,1278.1z"/>
	<path id="path256" class="st1" d="M1927.7,1327.6c-5.8,59.9,108,56.5,72.4-8.1c-36.3-65.7-103.5,17.3-54.2,21.2L1927.7,1327.6z"/>
	<path id="path258" class="st1" d="M1971.3,1243.9c-112.8-39.5,30-153.5,76.7-73.9C2095.4,1250.8,1971.3,1243.9,1971.3,1243.9z"/>
	<path id="path260" class="st2" d="M2087.5,1207.3l-3.6,1c-12.9-51.6,12.4-143.7,55-251.3c1.3,0.1,2.6,0.3,3.9,0.4
		C2100.2,1064.7,2074.8,1156.4,2087.5,1207.3L2087.5,1207.3z"/>
	<path id="path262" class="st2" d="M2136.9,964.5l-2.6,2.7c19.2,18.7,41.7,65.9,58.8,123.3c17.7,59.8,26.4,120,23.1,161l3.7,0.3
		C2227.3,1159.2,2177.5,1004,2136.9,964.5L2136.9,964.5z"/>
	<path id="path264" class="st2" d="M2287.2,1255.8l-3.7,0.5c-7.9-61.1-47.1-136.8-97.3-188.2l2.6-2.6
		C2239.6,1117.5,2279.2,1194,2287.2,1255.8L2287.2,1255.8z"/>
	<path id="path266" class="st1" d="M2797.3,243.9c-4.7,54.5,60.6,14.6,56.2-7.9C2850.7,222.1,2801,202.5,2797.3,243.9z"/>
	<path id="path268" class="st1" d="M2923.3,216.9c-3.1-37.7-61.7-13.2-46.4,17.6C2891.4,263.7,2927.7,242.6,2923.3,216.9z"/>
	<path id="path270" class="st1" d="M2951.5,272.3c-4.6,52.9,84.8,28.2,55.6-16.4C2999.2,243.7,2955.9,222.7,2951.5,272.3z"/>
	<path id="path272" class="st1" d="M3046.2,173c13.1-51.7-87.3-62.4-79.3-5C2973.8,217.1,3030.3,197.6,3046.2,173z"/>
	<path id="path274" class="st1" d="M3179.1,188c44.5-21.5-48.4-74.3-58.1,0.1c-9.6,73.2,97.6,34.7,70.3-18.8L3179.1,188z"/>
	<path id="path276" class="st1" d="M3120.1,107.2c90.6-78-84-131.8-98.4-40.8C3007.1,159,3120.1,107.2,3120.1,107.2z"/>
	<path id="path278" class="st2" d="M3002.3,115.2l-3.7,0.5c-4.1-31.1-26.1-70.8-60-115.7h4.5C2976.5,44.6,2998.2,84.1,3002.3,115.2z
		"/>
	<path id="path280" class="st2" d="M2894.9,203.8l-3.3,1.6c-0.6-1.2-1.2-2.5-1.8-3.8c-21-45.2-33.6-111.7-37.1-171.6
		c-0.2-2.9-0.4-5.9-0.5-8.8c-0.3-7.2-0.5-14.3-0.6-21.2h3.8c0.1,14.4,0.9,29.7,2.2,45.5c5.2,60.1,18.4,117.4,35.5,154.5
		C2893.7,201.3,2894.3,202.6,2894.9,203.8L2894.9,203.8z"/>
	<path id="path282" class="st2" d="M2852.4,20.7l3.5,1.4c-28,66.3-36.8,151-21.9,210.8l-3.6,0.9
		C2815.3,173.3,2824.1,87.6,2852.4,20.7z"/>
	<path id="path284" class="st3" d="M1314,1120c8.2-70.7,102.4,2,125.7,22c31.8,27.4,79.2,83.6,8.4,96.3
		C1411.7,1244.8,1310.1,1153.9,1314,1120z"/>
	<path id="path286" class="st3" d="M1244.2,1593.6c-33.4-31.7,90.2-111.9,116-90.7C1360.2,1502.9,1316.6,1662.5,1244.2,1593.6z"/>
	<path id="path288" class="st3" d="M1482.6,1660.8c16.4,27.2-5.2,104.8-54.2,94.2c-62.9-13.6,11.4-88.3,50.8-90.5L1482.6,1660.8z"/>
	<path id="path290" class="st3" d="M1328.6,1447.8c-22.6,2-77.9-6.3-75.9-39c2.1-32.9,33.7-38.5,66-34.9
		c30.4,1.2,67.5,9.2,74.8,24.8C1407.7,1428.8,1355.2,1445.5,1328.6,1447.8z"/>
	<path id="path292" class="st2" d="M1610.8,1340.7c-122.1,78-237.5,151.7-292.7,200.5l-3.1-3.6c55.4-49,171-122.8,293.3-200.9
		c222.1-141.8,473.8-302.5,478.5-382.8l4.8,0.3C2086.7,1036.9,1833.9,1198.3,1610.8,1340.7z"/>
	<path id="path294" class="st2" d="M1581.8,1358.6c-0.1,0.3-0.2,0.5-0.3,0.8c-6.4,22.8-19.9,65.2-35.1,112v0.1
		c-1.3,3.9-2.5,7.8-3.8,11.7c-15.6,48-32.6,99.3-45.4,138c-5.2,15.9-10,30.3-13.6,41.3v0.1c-4.3,12.9-7,21.3-7.3,22.3l-2.3-0.4
		l1.5,1.9l-2.8,0.1c-1.6-1.1-1.6-1.1,4.8-20.6c0.1-0.5,0.3-0.9,0.4-1.3v-0.1c3.7-11.1,8.8-26.6,14.8-44.8
		c25.6-77.4,67.8-204.9,82.8-256.4c0.6-2.1,1.2-4.1,1.7-6L1581.8,1358.6z"/>
	<path id="path296" class="st2" d="M1552.2,1533.9c6.6,64.6,13.4,131.3,2.2,192.8l-4.7-0.8c11.1-60.9,4.4-127.3-2.2-191.5
		c-2.1-20.7-4.3-42.1-5.8-63l4.7-0.4C1547.9,1491.9,1550.1,1513.3,1552.2,1533.9z"/>
	<path id="path298" class="st2" d="M1384.7,1161.7c0.7-1.5,1.2-3,1.7-4.5c85.1,49.8,173,101.4,250.3,161.1l-2.9,3.7
		C1557,1262.7,1469.5,1211.3,1384.7,1161.7L1384.7,1161.7z"/>
	<path id="path300" class="st2" d="M1451,1441.3l-3.8,2.8c-10.8-14.5-58.7-29.2-85.7-32.1l0.5-4.7c21.8,2.3,68.7,14.7,85.7,30.3
		C1449,1438.8,1450.1,1440,1451,1441.3L1451,1441.3z"/>
	<path id="path302" class="st3" d="M2026.4,590.9c73.8-7.2,42.5,61.9,18.6,98c-17.5,26.5-90.8,125.1-118.6,57.2
		C1913,713.4,1988.4,594.7,2026.4,590.9z"/>
	<path id="path304" class="st3" d="M1724.3,295.1c-24.3,40.9,121,85.9,140.6,57.7C1864.9,352.8,1777,206.4,1724.3,295.1z"/>
	<path id="path306" class="st3" d="M1937.9,158.9c-39.8,8.8-134.5-44.6-75.8-75.7c45.7-24.3,88.9,46.8,80.2,78.4L1937.9,158.9z"/>
	<path id="path308" class="st3" d="M1927.2,446.9c-2.9,17.6-37.5,35.9-67.3,45.6c-31.2,12.6-64.1,16-75.4-16.2
		c-11.1-31.9,41.5-55.7,64.5-60C1876,411.2,1932.9,413,1927.2,446.9L1927.2,446.9z"/>
	<path id="path310" class="st2" d="M2745.1,692.9l-4.6,1.6c-27.1-78.5-322.3-167.6-582.6-246.2c-143.4-43.3-278.8-84.2-347.6-117.4
		l2.1-4.4c68.5,33,203.7,73.9,346.9,117.1C2420.8,522.6,2717.2,612.1,2745.1,692.9L2745.1,692.9z"/>
	<path id="path312" class="st2" d="M2125.5,434l-4.2,2.6c-1.1-1.7-2.2-3.6-3.4-5.5c-1.7-2.8-3.6-5.8-5.7-9
		c-32.7-51.3-104-156.9-148.4-222.5c-11-16.4-20.4-30.4-27.2-40.4c-0.3-0.4-0.6-0.8-0.8-1.2c-11.9-17.6-11.9-17.6-10.6-19.1l2.9-0.7
		l-1,2.2l2.2-1c0.5,0.9,5.6,8.5,13.5,20.2c6.7,10,15.4,22.9,25.1,37.3c23.6,34.9,54.8,81,83.7,124.3c0.1,0,0.1,0,0,0
		c2.4,3.6,4.8,7.1,7.1,10.6c23.8,35.6,45.4,68.5,59.3,90.4c2.6,4.1,4.9,7.8,7,11C2125.1,433.5,2125.3,433.7,2125.5,434L2125.5,434z"
		/>
	<path id="path314" class="st2" d="M2058.8,332.3l-4.8,0.9c-4.3-21.2-8.1-43.1-11.8-64.3c-11.5-65.6-23.4-133.4-51.5-190.7l4.4-2.2
		c28.4,58,40.3,126.2,51.9,192.1C2050.7,289.2,2054.5,311.1,2058.8,332.3z"/>
	<path id="path316" class="st2" d="M2187.3,455.8l4,2.9c-60.1,80.9-132.9,156.7-203.5,230.1c-0.9-1.4-1.8-2.7-2.9-4
		C2055.2,611.7,2127.7,536.2,2187.3,455.8z"/>
	<path id="path318" class="st2" d="M1970.1,393.1c-12.4,20.2-55.6,45.7-76.6,54.1l-1.8-4.5c26-10.4,69.5-38.5,76.1-56l4.6,1.8
		C1971.8,390,1971,391.5,1970.1,393.1L1970.1,393.1z"/>
	<path id="path320" class="st3" d="M519.8,1260c-45.2-8.8,15.7-142.9,48.8-139C568.6,1121,617.9,1279,519.8,1260z"/>
	<path id="path322" class="st3" d="M756.8,1188.1c28.5,14.1,52.1,91.2,5.1,108.6c-60.3,22.4-38-80.5-6-103.6L756.8,1188.1z"/>
	<path id="path324" class="st3" d="M512.3,1091.7c-17.9,13.8-69,36.6-84.9,8c-16-28.9,7.6-50.6,36.8-65
		c26.2-15.4,61.8-28.6,76.4-19.4C568.8,1033,533.5,1075.4,512.3,1091.7z"/>
	<path id="path326" class="st2" d="M811.6,584.2c-35.8,85.1-78.5,177.3-119.2,265.2c-60.9,131.5-118.4,255.7-138.6,326.5l-4.5-1.3
		c20.2-71.2,77.8-195.5,138.8-327.2c40.4-87.1,82.7-178.4,118.3-262.8C808.1,584.5,809.9,584.4,811.6,584.2L811.6,584.2z"/>
	<path id="path328" class="st2" d="M764.6,1213.5l-2.3,1.6c-1.9,0-1.9,0-7.1-19.9c-0.1-0.5-0.2-0.9-0.3-1.3v-0.1
		c-2.9-11.4-7-27.2-11.7-45.7c-20.1-79.1-53.3-209.2-68.4-260.6c-0.6-2.2-1.2-4.2-1.8-6l4.5-1.4c0.1,0.3,0.2,0.6,0.3,0.9
		c6.8,22.6,18.3,65.6,30.8,113.2c1,4,2,8,3.1,12c12.7,48.9,26,101.2,36.1,140.7c4.1,16.2,7.9,30.9,10.8,42.2
		c3.4,13.2,5.6,21.8,5.9,22.8l-2.1,0.9L764.6,1213.5z"/>
	<path id="path330" class="st2" d="M747.1,1043.8c40.3,50.8,82,103.3,105.7,161.2l-4.4,1.8c-23.4-57.3-64.9-109.5-105-160.1
		c-12.9-16.3-26.3-33.2-38.9-50l3.8-2.8C720.9,1010.6,734.2,1027.5,747.1,1043.8L747.1,1043.8z"/>
	<path id="path332" class="st2" d="M612,1020.2l-1.7,4.4c-16.9-6.4-65.3,7-89.6,19.2l-2.1-4.3c19.6-9.8,65.9-24.6,88.6-20.6
		C608.9,1019.2,610.5,1019.7,612,1020.2L612,1020.2z"/>
	<path id="path334" class="st3" d="M4089.3,889c66.8-24.3,44,92.5,36.5,122.3c-10.2,40.7-39.3,108.2-82.3,50.6
		C4021.4,1032.2,4057.2,900.7,4089.3,889L4089.3,889z"/>
	<path id="path336" class="st3" d="M3634.5,1038.6c13.4-44.1,140.4,30.5,133,63C3767.5,1101.6,3605.3,1134.1,3634.5,1038.6z"/>
	<path id="path338" class="st3" d="M3681.1,1281.8c-17,26.8-96.1,42.3-108.5-6.3c-16-62.3,84-29.4,103.7,4.9L3681.1,1281.8z"/>
	<path id="path340" class="st3" d="M3802.6,1048.7c-11.9-19.3-29.2-72.4,1-85.2c30.3-13,49.5,12.8,60.7,43.4
		c12.6,27.6,22,64.4,11.3,77.9C3855,1111,3816.6,1071.5,3802.6,1048.7z"/>
	<path id="path342" class="st2" d="M4024.7,1253.2c-124.4-74.3-241.9-144.5-310.2-172l1.7-4.4c68.7,27.6,186.4,97.9,310.9,172.3
		c149.4,89.3,439.3,307.1,556.5,256.7l1.9,4.4C4509.4,1542.9,4251.9,1389,4024.7,1253.2L4024.7,1253.2z"/>
	<path id="path344" class="st2" d="M3995.7,1235.2c-0.3,0.1-0.6,0.1-0.9,0.2c-23.2,4.4-67.2,11.3-115.8,18.7
		c-4.1,0.6-8.1,1.2-12.2,1.9c0-0.1,0-0.1,0,0c-50,7.5-103.4,15.2-143.8,21.1c-16.5,2.4-31.5,4.6-43,6.3h-0.1
		c-13.5,2-22.2,3.3-23.2,3.6l-0.7-2.3l-1,2.2l-1.4-2.5c0.3-1.9,0.3-1.9,20.6-4.9l1.4-0.2c11.7-1.7,27.8-4.1,46.7-6.9
		c80.7-11.7,213.6-31,266.4-40.7c2.2-0.4,4.2-0.8,6.1-1.1L3995.7,1235.2z"/>
	<path id="path346" class="st2" d="M3825.7,1287.3c-54.8,34.7-111.4,70.7-171.5,88.1l-1.3-4.5c59.4-17.3,115.8-53,170.2-87.6
		c17.6-11.2,35.8-22.7,53.8-33.5l2.4,4.1C3861.4,1264.6,3843.2,1276.1,3825.7,1287.3L3825.7,1287.3z"/>
	<path id="path348" class="st2" d="M4083.7,970.9c1.6-0.1,3.2-0.2,4.7-0.5c-6.5,98.4-13.3,200.1-32.1,295.9l-4.6-0.9
		C4070.4,1170.1,4077.2,1068.9,4083.7,970.9L4083.7,970.9z"/>
	<path id="path350" class="st2" d="M3863.2,1155.3l-4.2-2.1c8.2-16.2-0.1-65.6-9.6-91.1l4.4-1.7c7.7,20.6,17.6,68.2,11.2,90.3
		C3864.5,1152.4,3863.9,1153.9,3863.2,1155.3L3863.2,1155.3z"/>
	<path id="path352" class="st2" d="M4311.8,919.8c4-8.8,12-15.4,20.5-19.6c9.6-4.8,20.9-6.9,31.6-5.4c9.9,1.3,16.3,5.3,23,12.2
		c16.1,16.3,26.4,38.3,34.8,59.3c8.3,20.9,14.3,42.6,18.7,64.6c4.1,20.1-15,34.8-32.4,39.5c-15.3,4.1-43.7,2-47.8-18
		c-5.4-27.1-13.2-54-25-79c1.1,2.4,2.3,4.8,3.5,7.2c-6.6-13.6-14.3-26.8-25-37.6C4308,937.2,4308.8,926.4,4311.8,919.8L4311.8,919.8
		z"/>
	<path id="path354" class="st2" d="M4451.8,986.1c7.6-6.5,17.3-10.5,26.9-13.1c9.5-2.6,19.9-3.9,29.8-2.1c5.6,1,13.6,3.5,15.3,10
		c9.4,37.5,24.4,73.8,41.6,108.4c2.9,5.7-4.7,13.4-8.2,16.3c-7.6,6.4-17.3,10.5-26.9,13.1c-13.2,3.5-37.5,7.3-45.1-8
		c-17.2-34.5-32.1-70.8-41.6-108.3C4441.9,995.9,4447.3,989.8,4451.8,986.1L4451.8,986.1z"/>
	<path id="path356" class="st2" d="M4435.7,1176.6c9.7-2.6,20.4-3.4,30.2-0.7c6.8,1.8,14.3,6,16.2,13.4
		c4.9,19.3,12.3,37.8,21.6,55.5c-1.1-1.9-2.1-3.9-3.1-5.8c8.3,15.5,17.9,30.3,28.4,44.4c11.5,15.4-7.6,30.6-20.3,36.3
		c-9.8,4.4-20.8,6.6-31.5,5.9c-7.4-0.5-17.4-2.6-22.2-9c-23.6-31.7-43.3-67.4-53.1-105.9C4397.3,1192.6,4422.2,1180.2,4435.7,1176.6
		L4435.7,1176.6z"/>
	<path id="path358" class="st2" d="M4553.7,1228.8c4.1-8.6,12.2-14.9,20.6-18.9c17.5-8.4,40.4-9,54.4,5.8
		c10.6,11.2,12.2,24.9,12.2,39.5c0,8.4-8,16.8-14,21.3c-8.7,6.5-19.4,10.2-30.2,11c-9.3,0.7-19.4-0.7-27.3-6.1
		c-7.3-5-9.7-11.5-9.7-20c0-2.3,0-4.6-0.1-6.9c0.1,2.5,0.3,5.1,0.5,7.6c-0.4-3.9-1.3-7.5-3-11.1c1.1,2.3,2.3,4.6,3.4,6.9
		c-1.5-2.6-3.2-4.8-5.2-6.9C4549.8,1245.2,4550.6,1235.4,4553.7,1228.8L4553.7,1228.8z"/>
	<path id="path360" class="st2" d="M4578.1,1424.2c8.3-5.2,17.9-8.6,27.4-11.1c9.4-2.6,19.4-4.4,29.3-4.1c5.3,0.1,10.8,0.5,14,5.3
		c22.5,34.1,40,71.8,58.3,108.3c2.2,4.4-7.4,10.3-9.5,11.6c-8.4,5.1-17.9,8.5-27.4,11.1c-9.5,2.5-19.5,4.3-29.3,4.1
		c-4.6-0.2-11.5-0.4-14-5.3c-18.2-36.5-35.7-74.3-58.3-108.4C4565.9,1431.7,4576.5,1425.1,4578.1,1424.2z"/>
	<path id="path362" class="st2" d="M4461.1,1414.6c8.2-5.4,17.8-9,27.3-11.6c9.4-2.5,19.5-4.2,29.4-3.6c6,0.4,10.9,1.4,14.3,6.5
		c15.2,23.2,24.6,48.9,33.3,75c1.8,5.3-6,10.7-9.1,12.8c-8.2,5.5-17.8,9-27.3,11.6c-9.5,2.5-19.6,4.2-29.4,3.6
		c-4.5-0.3-12.6-1.1-14.4-6.5c-8.7-26.1-18-51.8-33.3-75C4449,1423,4459.1,1416,4461.1,1414.6z"/>
	<path id="path364" class="st2" d="M4543.8,1637.4c7.9-6.1,17.5-10,27-12.5c9.5-2.6,19.9-4,29.7-2.7c5.4,0.7,13.1,2.6,14.9,8.7
		c25.1,83.8,48.7,169.9,96.2,244.3c-0.9-1.4-1.7-2.8-2.6-4.1c1.3,1.9,2.5,3.8,3.8,5.7c2.7,2.5,3.5,5.5,2.4,9c-1,1.7-2,3.4-3,5.1
		c-5.5,6.7-14,11-21.9,14.1c-9.9,3.9-20.6,6.4-31.3,6.6c-5,0.1-17.7,0.1-21.1-5.1c-51.2-77.2-76.3-166.3-102.7-254.1
		C4533.4,1646.4,4539.8,1640.5,4543.8,1637.4z"/>
	<path id="path366" class="st2" d="M4676.6,1660.4c7.6-6.6,17.2-10.8,26.8-13.3c9.6-2.6,20.1-3.8,29.9-1.9
		c5.9,1.2,13.8,4.1,15.5,10.7c8.6,34.2,24.6,65.9,33.3,100c1.7,6.8-3.4,13-8,17c-7.6,6.6-17.3,10.8-26.9,13.3
		c-9.5,2.6-20,3.8-29.8,1.9c-5.9-1.1-13.8-4-15.5-10.7c-8.7-34.1-24.6-65.9-33.3-100C4666.9,1670.7,4672,1664.4,4676.6,1660.4z"/>
	<path id="path368" class="st2" d="M4709.2,1990.8c7.1-7.2,16.7-11.9,26.5-14.5c14.5-3.9,40.3-5,46.4,13c8.8,25.9,24.5,49,33.3,75
		c2.5,7.1-2.5,15.1-7.2,19.9c-7.1,7.2-16.8,11.9-26.5,14.5c-14.5,3.9-40.4,4.9-46.5-13c-8.8-25.9-24.4-49-33.3-75
		C4699.5,2003.6,4704.5,1995.6,4709.2,1990.8L4709.2,1990.8z"/>
	<path id="path370" class="st2" d="M4551,1966.6c7.3-7.1,16.9-11.6,26.6-14.2c13.9-3.7,40.2-5.7,46.2,11.9c8.8,25.9,24.4,49,33.3,75
		c2.4,6.9-2.9,14.6-7.5,19.1c-7.2,7.1-16.9,11.6-26.5,14.2c-13.9,3.7-40.2,5.7-46.2-11.9c-8.8-25.9-24.5-49-33.3-75
		C4541.2,1978.8,4546.4,1971.1,4551,1966.6L4551,1966.6z"/>
	<path id="path372" class="st2" d="M4336.3,748.8c8.3-5.2,17.9-8.6,27.4-11.2c9.4-2.5,19.5-4.3,29.3-3.9c5.5,0.2,10.9,0.7,14.1,5.6
		c20.8,31.6,33.1,70.4,33.3,108.3c0.1,5.7-5,9.2-9.4,11.9c-8.3,5.2-17.9,8.7-27.3,11.2c-9.5,2.5-19.5,4.3-29.4,4
		c-2.3-0.1-14-0.6-14.1-5.6c-0.2-37.9-12.4-76.8-33.3-108.4C4324.2,756.6,4334.6,749.9,4336.3,748.8L4336.3,748.8z"/>
	<path id="path374" class="st2" d="M4666.2,2169.1c15.8-7.4,41.9-10.4,54.2,5.2c20.5,25.8,34.8,57.1,46.1,87.9
		c11,30.3,19.3,61.8,23.9,93.7c2.9,19.7-16.2,32.6-33,37.1c-9.8,2.6-20.7,3.1-30.4-0.1c-6.7-2.2-15.6-7.7-16.8-15.5
		c-6.7-46.2-20.4-92.4-41.3-134.2l3.4,6.6c-7.3-14.3-15.4-28.2-25.4-40.8C4634.4,2193.3,4652.8,2175.5,4666.2,2169.1L4666.2,2169.1z
		"/>
	<path id="path376" class="st2" d="M4793.3,1832.2c15.7-4.2,37.5-1.2,43.3,16.4c6.8,21.1,8.8,43.4,18.4,63.6
		c-1.1-2.2-2.1-4.4-3.1-6.6c1.9,4,4.1,7.7,6.5,11.4c10.1,15.6-2.5,31.9-16.7,38.9c-14.1,7-39.4,9.2-49.4-6.3
		c-8.8-13.4-15-28.5-18.8-44.1c-3.1-12.5-5.4-25.2-9.4-37.5C4758.4,1850.4,4779.2,1836,4793.3,1832.2z"/>
	<path id="path378" class="st2" d="M4792.3,2164.5c6.4-4.5,14.1-7.4,21.6-9.4s15.6-3.3,23.5-2.6c2.4,0.2,11.4,1.3,11.5,5.6
		c0.1,13.6,4.3,27.4,12.1,38.5l-2-2.8c3.5,4.8,7.7,8.8,12.9,11.6c4.2,2.2,1.2,7.5-0.8,9.7c-4.7,4.9-11.4,8.1-17.6,10.4
		c-12.3,4.6-29.1,8.9-41.4,2.5c-17.9-9.5-26.8-33.6-27-52.8C4785.1,2170.2,4788.4,2167.3,4792.3,2164.5L4792.3,2164.5z"/>
	<path id="path380" class="st2" d="M4796,2450.6c7.5-2,15.8-2.9,23.5-1.2c4.7,1,10.9,3.5,12.2,8.9c9.2,37,16.6,74.6,16.7,112.9
		c0,5.4-8.1,11.1-11.8,13.4c-7.2,4.4-15.5,7.1-23.8,8.1c-6.8,0.9-14.5,0.8-20.7-2.3c-5.5-2.7-6.5-6-6.5-11.6v-1.5v4.5
		c-0.4-36-8-71.9-16.7-106.7C4765.6,2461.7,4786.7,2453.1,4796,2450.6L4796,2450.6z"/>
	<path id="path382" class="st2" d="M4479,834.8c12.2-5.5,31.5-8.5,42,2.3c6.8,7,11.5,16.4,16.2,24.9c3.8,7,7.6,14.1,11.2,21.3
		c2.5,5-2.6,12.1-5.8,15.2c-5.6,5.7-13.2,9.3-20.7,11.3c-7.6,2-16,2.7-23.7,0.6c-6.3-1.7-9.7-4.6-12.6-10.3c-1.9-3.7-3.8-7.4-5.7-11
		c0.8,1.5,1.6,3,2.4,4.5c-5.5-10.3-11-22.1-19.3-30.7C4452.4,852,4470.5,838.5,4479,834.8z"/>
	<path id="path384" class="st2" d="M4630.8,966.7c7.8-2.9,16.2-4.9,24.5-5.4c4.1-0.2,12.9-0.8,16.2,2.7c6.4,6.6,11.1,15.3,15.9,23.1
		c5.1,8.5,10,17.3,15.8,25.3c-0.6-0.9-1.2-1.7-1.9-2.6c1.1,1.4,2.3,2.9,3.5,4.2c8.4,8.6-13.1,17.3-18.3,19.3
		c-7.8,2.9-16.1,4.9-24.5,5.4c-4,0.2-12.8,0.8-16.2-2.7c-6.4-6.6-11.1-15.3-15.9-23.1c-5.1-8.5-10-17.3-15.8-25.3
		c0.6,0.9,1.2,1.7,1.9,2.6c-1.1-1.5-2.2-2.9-3.5-4.2C4604.2,977.4,4625.6,968.7,4630.8,966.7L4630.8,966.7z"/>
	<path id="path386" class="st2" d="M4650.3,745.5c6-5.1,13.6-8.3,21.1-10.3c9-2.4,31.1-6.1,35.3,6.4c7.6,22.5,17.5,44.1,25,66.7
		c1.7,4.9-3.1,10.1-6.4,12.9c-5.9,5.1-13.5,8.3-21,10.3c-9,2.4-31.1,6.1-35.4-6.4c-7.5-22.5-17.4-44.2-25-66.7
		C4642.3,753.5,4647.1,748.2,4650.3,745.5z"/>
	<path id="path388" class="st2" d="M4745.1,1347c11.8-3.2,27.9-0.8,32.3,12.4c9.7,29.2,16.9,57.9,17.1,88.8
		c0,13.8-18.4,22-29.6,22.7c-12.5,0.8-25.3-5.3-25.4-19.1c0-5-0.2-10-0.5-14.9c0.1,1.9,0.3,3.7,0.4,5.5
		c-1.9-23.6-8.6-46.1-16.1-68.5C4718.9,1360.7,4734.5,1349.8,4745.1,1347L4745.1,1347z"/>
	<path id="path390" class="st2" d="M4820.3,2728.8c5-4.5,11.6-7.4,18-9.2c9.7-2.5,25.4-4.3,30.7,6.5c6.9,13.8,11.8,28.6,19.4,42.1
		c-0.6-1.1-1.2-2.3-1.9-3.4c1.6,2.8,3.4,5.5,5.6,7.9c8.6,9-7.9,19.2-14.4,21.9c-9.5,4-27.4,8.2-35.8-0.6
		c-6.6-6.9-10.6-16.7-14.4-25.3c-4.2-9.4-8-18.9-12.5-28.1C4813,2736.5,4817.8,2731,4820.3,2728.8L4820.3,2728.8z"/>
	<path id="path392" class="st2" d="M4749.5,2647.7c6-4.1,13.2-6.6,20.4-7.3c6.1-0.5,12.9,0.1,18.2,3.3c4.9,3,6.1,6.7,6.2,12v1.8
		l-0.2-4.6c0.9,17.3,9,33,16.6,48.2c2.2,4.4-2,10.9-4.8,13.8c-4.7,5-11.2,8.2-17.8,10c-6.6,1.7-13.8,2.2-20.4,0.3
		c-5.7-1.7-8.5-4.5-11.1-9.6c-8.8-17.7-16.5-34.6-16.9-54.7C4739.7,2655.7,4745.8,2650.3,4749.5,2647.7L4749.5,2647.7z"/>
	<path id="path394" class="st2" d="M4538.5,1320.2c6.4-1.8,13.5-2.6,20.1-1.3c3,0.6,10.4,2.8,10.4,7.2c0.2,11.1,3.5,21.7,9,31.3
		l-2-3.2c2.3,3.7,4.8,7.2,7.8,10.3c8.5,8.8-8.3,18.7-14.5,21.3c-9.3,3.9-27.5,8.3-35.8-0.3c-11.3-11.7-18.3-28.7-18.5-44.9
		C4514.7,1328.7,4528.7,1322.8,4538.5,1320.2z"/>
	<path id="path396" class="st2" d="M4490,1573.9c-0.9-3.2,4.7-6.3,6.5-7.3c10.8-6.3,25.6-10.7,38.2-10.3c8.1,0.3,15,2,20.1,8.5
		c4.5,5.6,5.8,12.6,5.9,19.6c0.1,3.6-3.9,5.8-6.5,7.3c-5.7,3.4-12.2,5.6-18.6,7.3c-6.3,1.7-13,3-19.7,3c-1.2,0-9.2,0-9.3-3.1
		c-0.1-7-1.4-14-5.9-19.6c0.5,0.5,1,1.1,1.5,1.7c-1.3-1.5-2.8-2.9-4.6-3.8c-1-0.5-3.3-0.8-0.3-0.3c-1.8-0.3-1.1-0.2,2,0.1
		C4497.2,1576.9,4490.8,1577.1,4490,1573.9L4490,1573.9z"/>
	<path id="path398" class="st2" d="M4512.7,1856.7c5.5-3.7,12-6.2,18.4-7.9c6.8-1.8,25.3-6.5,29.6,2.3c5,10.2,8.5,21.3,11.5,32.3
		c2.2,8.3,5,17.3,5.2,26c0.2,9.9-17.4,14.8-24.5,16.8c-6.4,1.7-13.2,2.8-19.9,2.3c-2-0.1-9.6-0.9-9.7-4.6c-0.2-8.7-2.9-17.7-5.2-26
		c-3-11-6.4-22.1-11.5-32.3C4505,1862.3,4510.9,1858,4512.7,1856.7L4512.7,1856.7z"/>
	<path id="path400" class="st2" d="M4606.6,1598.9c-1-3.6,3.9-7,6.2-8.6c10.6-7,25.6-11.1,38.3-10.2c8.4,0.6,14.4,4,19.6,10.4
		c4.5,5.6,8.4,11.6,13.4,16.8c7.1,7.3-11.5,14.6-15.9,16.2c-6.7,2.5-13.9,4.2-21.1,4.7c-3.4,0.2-11,0.8-13.9-2.1
		c-4.3-4.5-7.7-9.7-11.6-14.5c-1.9-2.5-3.9-5-6.2-7c-0.9-0.7-1.7-1.5-2.7-2.1c-2.5-1.4,3.3,0.7,3.6,0.7
		C4613.5,1603,4607.6,1602.6,4606.6,1598.9L4606.6,1598.9z"/>
	<path id="path402" class="st2" d="M4371.8,1103.5c6.5-1.7,13.5-2.5,20.2-1.3c3,0.6,10.3,2.9,10.4,7.2c0.1,8.2,1.9,16.1,4.1,24
		c1.7,5.7,4,11.7,4.2,17.7c0.4,11.8-13.9,17.8-23.5,20.4c-6.5,1.7-13.5,2.5-20.2,1.3c-3-0.6-10.2-2.9-10.4-7.2
		c-0.2-6.1-2.5-12-4.1-17.7c-2.3-7.9-4.1-15.8-4.2-24C4348.1,1112.1,4362.1,1106.1,4371.8,1103.5z"/>
	<path id="path404" class="st2" d="M4411.9,911.8c5-4.6,11.5-7.5,18-9.2c9.9-2.7,25.5-4.1,30.8,6.8c6.6,13.5,10.1,28.2,16.7,41.7
		c2,4.1-2.7,9.7-5.3,12.1c-5,4.6-11.5,7.5-18,9.2c-9.9,2.7-25.5,4.1-30.8-6.8c-6.6-13.5-10.1-28.2-16.7-41.7
		C4404.6,919.8,4409.3,914.2,4411.9,911.8z"/>
	<path id="path406" class="st2" d="M4674.5,1922.4c5.9-4.1,13.1-6.6,20.3-7.2c6.1-0.6,12.9,0.1,18.3,3.4c4.9,3,6,6.8,6.2,12.2v0.9
		c-0.1-1.5-0.1-3.1-0.2-4.7c0.7,8.3,4.6,16.7,8.3,24.1c2.2,4.5-1.9,11-4.7,14c-4.8,5.1-11.3,8.3-17.9,10.1
		c-6.5,1.8-13.8,2.2-20.4,0.2c-5.7-1.8-8.5-4.6-11.1-9.8c-4.7-9.5-8.2-19.1-8.6-29.8C4664.5,1930.6,4670.8,1925,4674.5,1922.4
		L4674.5,1922.4z"/>
	<path id="path408" class="st2" d="M4623.2,2089.7c9.2-3.8,27.3-8.4,35.6-0.1l25,25c8.6,8.6-8.8,18.3-14.7,20.7
		c-9.2,3.8-27.2,8.4-35.6,0.1l-25-25C4599.9,2101.8,4617.3,2092.1,4623.2,2089.7z"/>
	<path id="path410" class="st2" d="M4814.6,2296.9c9.5-4,27.4-8.1,35.8,0.8c6.3,6.5,10.1,15.4,14.5,23.2l-2-3.4c1.7,3,3.5,6,5.7,8.7
		c0.7,1,1.5,1.9,2.5,2.7c1.3,1.1,0.7,0.7-1.8-1.2c3.5,1.7,0.6,1.1-8.5-1.6c8.5,0.6,22.2,5.3,14.8,16.3c-7,10.3-23.8,15.7-35.7,14.8
		c-9.3-0.6-17.4-3.5-22.8-11.4c-4.2-6.1-7.6-12.8-11.3-19.3c0.7,1.1,1.3,2.3,1.9,3.4c-2.2-3.9-4.4-7.7-7.5-10.9
		C4791.6,2310,4808,2299.7,4814.6,2296.9z"/>
	<path id="path412" class="st2" d="M4807.9,2922.9c6-4.2,13.2-6.6,20.4-7.3c6.1-0.6,12.8,0,18.2,3.2c4.8,2.9,6,6.6,6.1,11.9v1.8
		l-0.2-4.6c0.8,15.3,8,29.2,8.5,44.5c0.2,5.1-6.2,10.6-9.8,13.1c-6,4.1-13.2,6.5-20.4,7.2c-6.1,0.6-12.8,0-18.2-3.2
		c-4.9-2.9-5.9-6.5-6.1-11.9v-0.9l0.2,4.6c-0.6-6.3-2.9-12.3-4.6-18.3c-2.5-9-3.7-17.7-3.9-27
		C4798,2930.8,4804.2,2925.4,4807.9,2922.9z"/>
	<path id="path414" class="st1" d="M4078,423.4c-32-44.4,44.6-43.5,52.3-21.9C4135,414.9,4102.3,457.2,4078,423.4L4078,423.4z"/>
	<path id="path416" class="st1" d="M4200.1,382.3c16.6,34-46.3,42.9-48.9,8.5C4148.7,358.3,4190.7,358,4200.1,382.3z"/>
	<path id="path418" class="st1" d="M4196,320.2c-31-43.1,58.6-67.5,56.2-14.2C4251.6,320.5,4225.1,360.7,4196,320.2z"/>
	<path id="path420" class="st1" d="M4328.2,357.3c37.7,37.7-43.2,98.2-65.6,44.8C4243.4,356.3,4301.9,344.3,4328.2,357.3z"/>
	<path id="path422" class="st1" d="M4454.8,286.4c-3.9-60-115.7-38.4-70.1,19.7c46.3,59,99.3-33.8,50.1-29.7L4454.8,286.4z"/>
	<path id="path424" class="st1" d="M4425.3,376.1c117.7,20.8-4.9,156.2-63.8,85.3C4301.7,389.3,4425.3,376.1,4425.3,376.1
		L4425.3,376.1z"/>
	<path id="path426" class="st1" d="M4551,454.9c27.5,14.3-25,52.1-42.6,24.9C4489.1,449.9,4540.1,449.2,4551,454.9z"/>
	<path id="path428" class="st1" d="M4583.1,353c39.8,17.6-15.6,54.4-36.3,23.5C4524.8,343.5,4583.1,353,4583.1,353z"/>
	<path id="path430" class="st1" d="M4522.9,557.6c-34.2-7-3.4-49.7,16.6-32.6C4544.7,529.4,4546,562.2,4522.9,557.6z"/>
	<path id="path432" class="st4" d="M4316.5,430.9l3.4-1.5c29.3,67.9-1.9,225.7-48.8,397.1c-1.1-0.5-2.3-1-3.4-1.5
		C4314.3,654.5,4345.4,497.8,4316.5,430.9z"/>
	<path id="path434" class="st4" d="M4306.9,678.4l2.1-3c-22-15.4-51.8-58.4-77.9-112.2c-27.1-56.2-45.3-114.2-48.7-155.1l-3.7,0.3
		C4186.3,500.9,4260.5,646.1,4306.9,678.4z"/>
	<path id="path436" class="st4" d="M4111.6,415.2l3.5-1.1c17.8,59.1,68.6,127.4,126.5,170.1l-2.2,3
		C4180.9,544.1,4129.5,475,4111.6,415.2z"/>
	<path id="path438" class="st4" d="M4324.5,567.1l1.4-3.4c29.5,12.1,93,22.1,158,24.9c69.3,3.1,119.9-3.2,131.9-16.3
		c3.2-3.6,3.6-7.5,1.2-12.1l3.3-1.7c3.1,6,2.5,11.6-1.8,16.3c-7.8,8.5-28.2,13.7-55.1,16.3C4490.4,598.1,4369.7,585.6,4324.5,567.1z
		"/>
	<path id="path440" class="st4" d="M4398.6,789.8c-44.3-2.9-84.2-13.9-112.3-31l2-3.1c56.2,34.2,161.7,41.2,225.7,15
		c28.1-11.5,45.6-28.4,50.7-48.8l3.6,0.9c-5.4,21.6-23.7,39.4-52.9,51.3c-18.2,7.5-40.6,12.6-64.7,14.9
		C4434,790.6,4416.4,790.9,4398.6,789.8L4398.6,789.8z"/>
	<path id="path442" class="st1" d="M4589,565.7c-61.5-58.4,78.7-120.2,91.2-50.3C4681.8,524.2,4651.2,624.8,4589,565.7z"/>
	<path id="path444" class="st5" d="M3960.9,3968.4l-1413,204.8l-1-44.6L3959,3931.3C3958.5,3943.6,3959.4,3956,3960.9,3968.4
		L3960.9,3968.4z"/>
	<path id="path446" class="st6" d="M2546.9,4128.6l1,44.6l-221.2-56.9l-1.8-38.6L2546.9,4128.6z"/>
	<path id="path448" class="st7" d="M3970.1,3930.5l-1423.2,198.1l-222-50.9l1507.6-203.1c0.2,0,0.3,0,0.4,0.1
		c2.2,0.4,4.3,0.9,6.4,1.4c9.4,2.2,18.6,5.5,27.5,9c0.2,0.1,3.1,1.3,4,1.7c1.7,0.7,3.4,1.5,5.1,2.2c4.2,1.9,8.3,3.9,12.5,5.9
		c8.8,4.2,17.5,8.5,26.3,12.8C3932.6,3916.4,3951.5,3923.3,3970.1,3930.5L3970.1,3930.5z"/>
	<path id="path450" class="st5" d="M4181.6,4048.9l-1390.2,203.3l-0.2-39.7l1383.6-200.1c1.1,0.7,2.2,1.3,3.3,2
		c1,11.4,1.9,22.9,3.5,34.1V4048.9L4181.6,4048.9z"/>
	<path id="path452" class="st6" d="M2792,4212.2l-0.6,40l-222.6-74.2l-1.2-39.9L2792,4212.2z"/>
	<path id="path454" class="st7" d="M4165.1,4006.2c4.5,2.9,9,5.7,13.5,8.6L2792,4212.2l-224.4-74.1l1426.6-198.3l37.2,14.4
		c38.5,14.8,77,29.6,115.2,44.9C4152.8,4001.5,4158.9,4003.9,4165.1,4006.2z"/>
	<path id="path456" class="st8" d="M4330.6,4162.3l-1277.4,201.6l-1.5-60.6l1262.4-203.1c5.1,4.5,10.3,9,15.4,13.5
		C4329.6,4129.9,4329.9,4146.2,4330.6,4162.3z"/>
	<path id="path458" class="st6" d="M3051.7,4303.8l1.4,60.6l-234-85.8l0.7-51.7L3051.7,4303.8z"/>
	<path id="path460" class="st7" d="M4329.5,4115.1l-1277.8,188.7l-231.9-76.9l1384.3-196.4c32.2,19.6,64.7,38.4,96.9,58.2
		c9.5,8.3,19,16.6,28.5,25V4115.1z"/>
	<path id="path462" class="st6" d="M3832,0v3867.3l-7.5-0.1V0H3832z"/>
	<path id="path464" class="st6" d="M2492.8,0v4071.6h-13.3V0H2492.8z"/>
	<path id="path466" class="st6" d="M4227.4,0v4088h-10.9V0H4227.4z"/>
	<path id="path468" class="st9" d="M3742.2,2400.1c-57.5-88.1-19.7-347,89.5-429.1c-1.6,31.5,11.9,66.8,8.3,99.6
		c7.9-11.1,17.2-21.5,25.8-32.1c5.2,69.2,17.1,59.4,69,35.4c-2.4,23.4,8.9,52,5.7,73.6c13-8.7,34.9-18.7,47.6-27.5
		c-21.8,158.5-172.1,265.7-265.6,387.6L3742.2,2400.1z"/>
	<path id="path470" class="st10" d="M3675.1,2469.8c39.9,47,140.2,56.4,117.6-34c-17.2-68.9-118.5-45.9-104.4,33.2L3675.1,2469.8z"
		/>
	<path id="path472" class="st11" d="M4062.9,3523.5c0-0.1,0.2,0,0.3,0.1C4063.2,3523.6,4063,3523.5,4062.9,3523.5z"/>
	<path id="path474" class="st9" d="M3689.1,2593.5c18.1-43.6,46-97.1,89.4-127.1c60.7-41.7,299.2,47.9,386.8,100.3
		c32.7,44.8,59.2,91.9,82,141.3c13.5,29.2,25.7,59,36.5,89.3c2.7,27.5,4.8,55.1,5.9,82.7c1.2,31.9,1.2,63.8-1.1,95.7
		c-0.1,2.1-0.3,4.1-0.4,6.1c-0.1,0.5-0.1,1-0.1,1.3c-0.1,0.3-0.1,0.6-0.1,1c-0.4,4-0.8,8-1.2,11.9c-0.8,7.3-1.8,14.5-2.8,21.7
		c-2.2,14.8-5,29.6-8.5,44.2c-3.7,15.5-8.1,30.9-13.6,46c-0.9,2.4-1.7,4.8-2.6,7.1c-0.2,0.4-1.2,3-1.4,3.5c-1.2,3-2.5,6-3.8,8.9
		c-3,7-6.2,13.9-9.7,20.7c-7.3,14.1-15.5,27.9-24.7,41.2c-1.5,2.1-3,4.2-4.5,6.3c-0.2,0.3-2.4,3.2-2.3,3.2l-6.2,7.8
		c-5.1,6.2-126.9,142.4-239.2,122.4c-0.9-3.7-1.5-192.9-25.6-288.8c-19.9-79.3-71.4-149.3-129.5-213.6
		c-60.8-67.3-72.4-164.8-128.4-236.3C3686.7,2590.2,3688.4,2591.3,3689.1,2593.5L3689.1,2593.5z"/>
	<path id="path476" class="st9" d="M3411.4,3412.3c-40.2-32.8-82.6-62.7-123-95.2c-42-33.7-83-69.6-113.7-112.9
		c-22.1-31.2-35.4-61.9-44.6-99.6c-2.6-10.8-3.9-16.8-5.5-26c-1.7-9.5-3.2-19-4.4-28.6c-2.7-20.6-4.5-41.3-5.5-62.1
		c-2.6-57.7-1-115.3,9.6-172c133.7-208.5,490.7-475.1,666.7-277.5l-60.5-29.5c14.8,26.1,11.2,68.6,8.4,98.2
		c44.4-6.8,48.7,43.3,16.9,71.5c-30.7,27.1-90.4,24.3-127.3,28.4c-82.6,9.2-182.5,88.5-244.5,160.7
		C3266.1,3005.2,3405.4,3235.7,3411.4,3412.3L3411.4,3412.3z"/>
	<path id="path478" class="st12" d="M3738.9,2607.4v0.4C3739,2607.8,3738.9,2607.6,3738.9,2607.4z"/>
	<path id="path480" class="st12" d="M3738.8,2607.1c-0.1-0.1-0.1-0.2-0.2,0.1C3738.7,2607.1,3738.7,2607.1,3738.8,2607.1z"/>
	<path id="path482" class="st13" d="M3329.5,2903c55.3-168.3,323.4-302.3,457.8-286.5c88.9,10.5,161,57.3,214,122.4
		c-8.9-2.6-18.8,1.7-24.2,9.1c-6.9-11-14.3-21.7-22.1-32.1c-7.1-9.3-19.7-12.7-29.9-5.8c-1.1,0.7-2.2,1.6-3.2,2.7
		c-0.5,0.1-1,0.3-1.5,0.4c-1,0.3-2,0.8-2.9,1.3v-0.5c-1.8-11.6-10.4-20.9-22.9-20.1c-10.9,0.7-21.7,11.2-20,22.8
		c2.3,15.6,5.1,31.1,8.4,46.5c-6.8-18.5-12.6-37.4-17.2-56.7c-2.7-11.4-17.1-16.8-27.3-13.3c-11.9,4.1-16,16-13.3,27.4
		c19.4,82.1,62.5,157.2,102.7,230.5c34.5,63.1,52.4,99.4,55.9,107c5.7,12.3,11.1,24.6,16.1,37.2c-5,75.1-9.4,150.3-12.6,225.6
		c-98.5,95.6-244.4,148.6-383.9,147.7c-63.8-0.4-126.6-18.1-182.7-47.6c-1.1-1.6-2.5-3.1-4.2-4.6c-40-33-82.3-62.9-122.9-95.1
		C3184.6,3197.4,3159.7,3022,3329.5,2903L3329.5,2903z"/>
	<path id="path484" class="st9" d="M3423.1,2651.5c29.5-30.6,106.5-35.6,146.9-41c86.9-11.6,193-14.5,278.3,5.3
		c79.3,18.4,169.4,33.2,188.1,112.9c11.3,48.4-14.2,150.8-36.5,194.8c-5.9-40.1-44.4-56.4-79-66.7c-24.3-7.2-84.7-1.9-85.7-40.7
		c-26.8,3.2-53.5-20.7-79.6-24.4c-28.6-4.1-59.9-10.9-90.7-16.1c-29.5-4.9-161.1,8.9-171.1-25.5c-18.2,7.6-47.5,22.4-58.4,0.7
		c-16.3,1.1-33.4,9.9-46.9,16.4c0.1-6.5-3.4-14.7-3.3-21.2c-15.8,5.2-31.3,13.3-47.9,19.6c11.5-35.9,51.4-118.6,89.5-123.4
		L3423.1,2651.5z"/>
	<path id="path486" class="st14" d="M4064.4,3094.6c-1.2-15.9-3.9-31.6-7.1-47.3c0-9.3-0.6-18-3.9-25.1l-1.1,2.5l-0.6-2.6
		c16.6-31.4,56.1-52.4,76.3-5.9C4147.6,3061.3,4100.8,3090.8,4064.4,3094.6L4064.4,3094.6z"/>
	<path id="path488" class="st15" d="M3510.7,2682v0.4C3510.8,2682.2,3510.8,2682.1,3510.7,2682z"/>
	<path id="path490" class="st16" d="M3352.5,2674.4c13.7-20.1,31.9-37.3,46-57.2c-30,17.7-60.3,31.3-87.4,54.8
		c60-83.6,189-176,294.8-159.9l1.2,18.4c12.3-2.5,19-5.4,23.6,16.3C3532.3,2547.9,3422.1,2608.9,3352.5,2674.4L3352.5,2674.4z"/>
	<path id="path492" class="st15" d="M3972.9,2633.3c-0.1-0.1-0.3-0.2-0.4-0.3c0.2,0,0.4,0,0.6,0.1
		C3974.8,2634.8,3974.8,2634.8,3972.9,2633.3L3972.9,2633.3z"/>
	<path id="path494" class="st16" d="M4176.5,2674.8c-38.6-36.6-100.8-58-149.7-82.8c10.1,5.9,20.9,13.9,31,21.6
		c-32.8-2.3-75.2-23.5-108.2-41.1c15.3,10.3,30.2,25.8,38.4,40.2c-25.4-4.3-66.6-22.3-83.4-38.2c3.1,5.5,6,13.9,9.5,18.9
		c-39.6-1.5-51.5-67-92.7-78.9c21.2-7.4,46.4-6.4,65.6,7.3l8.9-5.2c68.9-12.6,126.8,40.1,180.3,75.1
		C4109.1,2613.1,4168.7,2632.9,4176.5,2674.8L4176.5,2674.8z"/>
	<path id="path496" class="st15" d="M3860.7,2543.2l-1.4-1.4C3859.4,2541.9,3860,2542.6,3860.7,2543.2z"/>
	<path id="path498" class="st17" d="M3410.5,2986.5c-10.9-2.5-22-13.8-20.7-38.4l6.6,0.3c-0.9,17.1,5.1,29.2,15.6,31.6h0.2
		c10.5,2.3,26-5.7,35.2-28.9l6.2,2.5c-10.6,26.8-29.6,35.8-42.8,33C3410.7,2986.6,3410.6,2986.6,3410.5,2986.5L3410.5,2986.5z"/>
	<path id="path500" class="st17" d="M3843.5,3020.6c-10.9-2.4-22-13.8-20.7-38.4l6.6,0.3c-0.9,17.1,5.1,29.2,15.6,31.6
		c0.1,0.1,0.1,0.1,0.2,0.1c10.5,2.2,26-5.8,35.2-29l6.2,2.5c-10.6,26.8-29.6,35.9-42.8,33
		C3843.7,3020.7,3843.6,3020.7,3843.5,3020.6L3843.5,3020.6z"/>
	<path id="path502" class="st18" d="M3613.6,3012c13.1,35.6,23.2,101.6-32.4,98.8c-49.1-2.4-4-75,22.4-98
		C3603.6,3012.8,3607,3012.6,3613.6,3012z"/>
	<path id="path504" class="st19" d="M3348.8,3001.4c10.6,6.5,62.9,24.1,55.4,52.5c-9.4,35.5-66,15.4-87.2,6.9
		C3223.4,3023.3,3329,2989.4,3348.8,3001.4z"/>
	<path id="path506" class="st19" d="M3923,3062.9c24.1,37.6-28.4,40.5-54.3,42c-20.6,1.2-86.7,3.9-78-34.7
		c6.3-27.8,56.2-32.4,80.2-31.3C3883.1,3039.4,3908.6,3040.5,3923,3062.9z"/>
	<path id="path508" class="st20" d="M3424.7,2828.4l-1.6-3.7c22.2-9.9,43.7-7.7,66.5-5.5l4.4,0.5l-0.4,4.1l-4.4-0.5
		C3466,2821,3446,2819,3424.7,2828.4L3424.7,2828.4z"/>
	<path id="path510" class="st20" d="M3777.1,2868.5l-2.9-2.9c9.4-9.1,25.2-14.3,40.3-13.1c12.5,0.9,22.8,5.9,29.1,14.1l-3.3,2.5
		c-5.5-7.2-14.8-11.7-26.1-12.5C3800.2,2855.5,3785.6,2860.2,3777.1,2868.5z"/>
	<path id="path512" class="st21" d="M4176.8,3890c19.1,50.8,39.2,70.1,11.6,109.3c-31.6,45-375.1,51.5-424.4,67.2
		c-112.3,36-204.8-2.8-308.3-58.1c-48-25.7-179.8-102-117.8-162.4c47.9-46.5,206.1-33.2,267.4-38.8c72.6-6.7,188.1-17.5,249.2,26.3
		L4176.8,3890z"/>
	<path id="path514" class="st21" d="M3427.2,3858.1c52.3-68.4,188.3,172.8,197.6,211.4c1.7,1.4,1.8,1.3,0.3-0.3
		c-42.1-27.2-109.7-30.4-151.4-57.8c-71.5-47.1-92.5-69-178.1-38.5c-63.5,22.5-106.1,41.3-169,73.8c-26.3,13.6-41.3,26.8-27.9-9.3
		c11-29.7,44.6-169.7,348.6-205.7L3427.2,3858.1z"/>
	<path id="path516" class="st22" d="M3748.9,4128.5c-31.4,13.7-79.7,13.9-124,13.1c-22.6-0.3-44.1-1-61.8-0.2
		c-65.8,3-131.8,8-196.2,1.6c-45.6-4.6-93.5-14.7-138.8-23.8c-10.7-2.1-21.2-4.2-31.5-6.1c-40.4-7.5-80.4-33.2-112.3-40.2
		c0,0,7.7-18.2,12.8-29c1-2.2,2-4.1,2.7-5.5c24.1-46.3,110.5-72.6,161.8-89.9c65.2-21.9,115.3-23,178.3,2.4
		c63.1,25.5,123.1,46.3,181.1,80c6,3.5,14.5,8.4,24.3,14.2l7.4,4.5l5.4,3.2C3695.5,4075.7,3742.7,4107.5,3748.9,4128.5z"/>
	<path id="path518" class="st23" d="M3097.1,4043.9c43.5-27.2,130.7-8,134.6,50.4c0.6,9.4-0.7,17.7-3.6,24.9
		c-10.7-2.1-21.2-4.2-31.5-6.1c-40.4-7.5-80.4-33.2-112.3-40.2C3084.3,4072.9,3092,4054.7,3097.1,4043.9L3097.1,4043.9z"/>
	<path id="path520" class="st24" d="M4216.5,3920.8c-40.5,10.4-115.4-1.4-160,1.4c-104.4,6.4-217.1,11.5-326.2,18.2
		c-194.6,11.9-429.9,8.6-605.3-89c18.1-23.7,24.8-57.1,27.9-87.2c346.2,49.3,713.8,167,1056,46.6
		C4212,3847.4,4213.3,3884.2,4216.5,3920.8z"/>
	<path id="path522" class="st25" d="M3367.9,3316.7c-0.9,0.9,2.7-2.3,8.8-4.9c46.7-20,100.3-8.6,150.5-9.3
		c84.6-1.3,172.4-15.8,256.7-24.7c69.4-7.4,145.7-11.5,213.8-26.6c56.5-12.5,56.9-2.3,78.1,49.6c32.6,79.6,53.5,157.5,74.4,237.1
		c25,94.9,63.7,212.4,64.2,312.5c-144.6,44.2-304.8,33.9-456.3,43.2c-92.2,5.6-181.6-7.9-272.7-10.8c-59.5-1.9-117.6-4.2-176.2-19.7
		c-32.6-8.6-151.8-41.3-161.1-64.2c-6-14.5,14.8-101.8,18.8-119.6c8.7-39.8,28.1-74.7,53.8-106.8c56.5-70.5,98.4-173.5,152.6-242.4
		L3367.9,3316.7z"/>
	<path id="path524" class="st26" d="M3573.8,3267.1l-27,76.8c-2.2,0.3-12.5-5.1-22.1-10.6
		C3535.6,3308.6,3550.2,3285.7,3573.8,3267.1z"/>
	<path id="path526" class="st1" d="M4126.7,3269.4c114,92,215.8,255.7,57.5,374.1c-61.8,46.3-196.8,110-269.6,55.1
		c-44.4-33.5,1.2-41.3,42-57.2c37.7-14.8,54.6-27.6,90.8-46.1c81.6-41.6,87.1-127.3,46.1-200.2c-15-26.6-47.3-61.8-49.7-93
		C4039.3,3243,4108.4,3254.6,4126.7,3269.4L4126.7,3269.4z"/>
	<path id="path528" class="st27" d="M3041.8,3192.9c0,0-51.5-49.9-82.5-96.9c120.3-17.4,421.9,3.9,542.2,69.1
		c54,29.2,116.1,83.6,135.6,147L3041.8,3192.9z"/>
	<path id="path530" class="st27" d="M3626,3309.1c65.1-128,146.6-175.5,270-201.1c119-24.7,294.4,4.4,342.3,5.4
		c-25.3,47.5-86.9,52.3-116,94.9c-49.3,72.2-468.9,135.3-476.9,117.3L3626,3309.1z"/>
	<path id="path532" class="st28" d="M3617.4,3328.6c78.1-112.3,140.2-146.2,262.7-176.5c100.9-25,320.1,11.7,368,12.7
		c-25.2,47.4-74.8,52.1-103.9,94.7c-49.3,72.1-507.4,121-515.3,103L3617.4,3328.6z"/>
	<path id="path534" class="st29" d="M3635,3329.9c88.7-114.1,145.8-136.3,269.2-161.5c104.4-21.4,312.4,40.4,360,46.4
		c-29.4,44.6-47.9,45.4-80.6,84.8c-55.5,66.7-533.9,84-540.2,65.3L3635,3329.9z"/>
	<path id="path536" class="st28" d="M3021.5,3216.6c0,0-51.6-49.8-82.5-96.8c120.2-17.4,421.9,3.9,542.2,69.1
		c54,29.2,130.4,64.2,149.9,127.6L3021.5,3216.6z"/>
	<path id="path538" class="st30" d="M4260,3268.4c-36.9,67.4-394.8,503.5-394.8,503.5s-147.1-53.3-243.4-40.5
		c10.2-144.9,11.8-423.3,13.1-416.6c0,0,32.4-12.7,33.6-13.6c83.9-62.2,192.3-104.6,288-112.2
		C4070.7,3179.9,4179.5,3209.3,4260,3268.4L4260,3268.4z"/>
	<path id="path540" class="st31" d="M4110.5,3347.7c-18.3,26.9-81.1,134.3-81.1,134.3s-190.5-30.7-309.9,38.3
		c3.3-58.8,13.2-156.1,14-153.4c0,0,77.2-64.6,206.2-58.1C3998.9,3311.8,4067.8,3322.4,4110.5,3347.7z"/>
	<path id="path542" class="st30" d="M3591.1,3728.2c0,0-197.4,7.2-289.3,87.1c-46.8-34.9-346.4-559.5-397-604.3
		c128.3-8.8,242.2-31.5,372.4-20.5c221.4,18.6,312.7,61,330.3,113.8C3613.8,3392.5,3591.1,3728.2,3591.1,3728.2z"/>
	<path id="path544" class="st31" d="M3624.1,3731.5c0,0-7,6.9-20.7,6.3c-12.7-0.7-22.2-9.3-22.2-9.3l17.4-442c0,0,16.5,13.3,39,14.9
		c15.4,1.1,37.5-4.6,37.5-4.6L3624.1,3731.5z"/>
	<path id="path546" class="st1" d="M3165.7,3810c-8.6,15.5-16.2,38.1-19.5,59.5c-1-0.2-2-0.4-3-0.5c3.3-21.4,10.9-44.1,19.4-59.8
		C3163.7,3809.5,3164.7,3809.7,3165.7,3810z"/>
	<path id="path548" class="st1" d="M3195.4,3819.9c-1.2,2.7-2.4,5.3-3.5,7.9c-7.2,16.4-14.5,33-19.3,50.2c-0.9-0.4-1.9-0.8-2.8-1.3
		c4.8-17.2,12.1-33.8,19.3-50.1l3.4-7.8C3193.4,3819.1,3194.4,3819.5,3195.4,3819.9L3195.4,3819.9z"/>
	<path id="path550" class="st1" d="M3213.4,3827.4c-9.5,18.8-17.6,41.3-20.7,61.5c-0.9-0.5-1.8-1.1-2.8-1.6
		c3.4-20.9,11.9-43.2,20.8-61C3211.6,3826.6,3212.5,3827,3213.4,3827.4z"/>
	<path id="path552" class="st1" d="M3250.7,3843.6c-9.8,20.9-18.5,42.3-22.2,64.3c-1-0.3-2-0.6-2.9-0.9
		c3.8-22.2,12.4-43.6,22.3-64.6L3250.7,3843.6L3250.7,3843.6z"/>
	<path id="path554" class="st1" d="M3275.6,3853.5c-6.5,18.9-11.7,39.4-14,61.8c-1.1,0.2-2.1,0.5-3.2,0.9
		c2.3-23.1,7.6-44.3,14.3-63.7C3273.6,3852.8,3274.6,3853.2,3275.6,3853.5z"/>
	<path id="path556" class="st1" d="M3293.6,3859.6c-6.5,19.2-11.5,38.6-14.8,57.7l-3-0.8c3.4-19.2,8.4-38.6,14.9-57.8
		C3291.6,3859,3292.6,3859.3,3293.6,3859.6L3293.6,3859.6z"/>
	<path id="path558" class="st1" d="M3323.2,3867c-1.9,6.5-4,13-6,19.4c-4,12.3-8,24.9-10.8,37.7c-1-0.2-2-0.4-3-0.7
		c2.8-12.9,6.9-25.5,10.8-37.9c2.1-6.3,4.1-12.7,6-19.1L3323.2,3867z"/>
	<path id="path560" class="st1" d="M3343.3,3869.9c-6.6,18.9-11.6,39-14.8,59.2c-1-0.3-2-0.5-3-0.7c3.2-20,8.2-40,14.7-58.8
		C3341.2,3869.7,3342.3,3869.8,3343.3,3869.9z"/>
	<path id="path562" class="st1" d="M3375.6,3871.7c-3.3,16.8-5.8,33.7-8.3,50.2c-0.7,4.8-1.4,9.6-2.1,14.4l-3-0.6
		c0.7-4.7,1.4-9.5,2.1-14.2c2.4-16.4,4.9-33.2,8.2-49.9C3373.6,3871.7,3374.6,3871.7,3375.6,3871.7z"/>
	<path id="path564" class="st1" d="M3413.7,3871.4c-1.6,7.3-3.2,14.5-4.9,21.5c-3.7,16.1-7.4,32.3-10,48.9c-1.1-0.1-2.1-0.3-3.1-0.4
		c2.7-16.7,6.4-33.1,10.1-49.2c1.6-6.8,3.2-13.7,4.7-20.7C3411.6,3871.5,3412.6,3871.5,3413.7,3871.4z"/>
	<path id="path566" class="st1" d="M3457,3870.7c-2.4,13-5.3,27.5-8.3,41.8c-3.5,16.2-6.5,28.5-9,37.9c-1.1,0.1-2.2,0.1-3.3,0.1
		c2.6-9.3,5.7-21.9,9.3-38.9c3-13.9,5.8-28.1,8.2-40.9L3457,3870.7L3457,3870.7z"/>
	<path id="path568" class="st1" d="M3488.2,3871.7c-1.3,5.1-2.7,10.3-4.1,15.3c-3,10.6-6,21.4-8,32c-1.8,9.7-2.9,19.9-3.8,29.8
		c-1.1,0.1-2.1,0.1-3.1,0.2c1-10.2,2.1-20.6,3.9-30.6c2-10.7,5-21.6,8-32.2c1.4-4.8,2.7-9.8,4-14.7
		C3486.2,3871.6,3487.2,3871.6,3488.2,3871.7L3488.2,3871.7z"/>
	<path id="path570" class="st1" d="M3517.9,3874.4c-0.8,7.3-1.7,14.7-2.5,22.3c-1.9,16.6-3.8,33.6-6.4,50.1c-1,0.1-2,0.1-3.1,0.2
		c2.6-16.7,4.6-33.8,6.4-50.7c0.9-7.6,1.7-15,2.6-22.2c0.3,0,0.7,0,1.1,0.1C3516.7,3874.3,3517.3,3874.3,3517.9,3874.4
		L3517.9,3874.4z"/>
	<path id="path572" class="st1" d="M3564.2,3881.1c-2.2,25.2-4.1,46.2-5.9,63.2l-3.2,0.2c1.9-17.5,3.9-38.8,6-63.9
		C3562.1,3880.8,3563.1,3881,3564.2,3881.1L3564.2,3881.1z"/>
	<path id="path574" class="st1" d="M3601.7,3887.6c-1.4,18.4-3.8,37.2-6.9,55.5c-1,0-2,0-3.1,0.1c3.2-18.6,5.5-37.5,7-56.1
		C3599.7,3887.2,3600.7,3887.4,3601.7,3887.6z"/>
	<path id="path576" class="st1" d="M3636.3,3893.7c-1.5,16.4-3.8,32.8-6.3,49.1h-3.1c2.6-16.5,4.9-33.1,6.3-49.6
		C3634.3,3893.4,3635.3,3893.6,3636.3,3893.7z"/>
	<path id="path578" class="st1" d="M3701.7,3903.8c-1.3,14-1.7,28.4-1.1,42.2c-1-0.1-2-0.2-3-0.3c-0.5-13.8-0.1-28.2,1.2-42.3
		C3699.7,3903.5,3700.7,3903.7,3701.7,3903.8L3701.7,3903.8z"/>
	<path id="path580" class="st1" d="M3749.6,3908c-1.4,11.7-2.4,23.5-2.8,35.2c-1,0.1-2,0.3-3.1,0.5c0.4-11.9,1.4-23.9,2.8-35.9
		C3747.5,3907.9,3748.5,3907.9,3749.6,3908z"/>
	<path id="path582" class="st1" d="M3789.4,3908.3c-1.2,10.2-2.2,20.4-3,30.5c-1.1,0.1-2.1,0.2-3.1,0.3c0.8-10.2,1.8-20.4,3-30.7
		C3787.3,3908.4,3788.3,3908.4,3789.4,3908.3z"/>
	<path id="path584" class="st1" d="M3837,3903.6c-2.7,11.3-5.1,22.6-6.6,33.7h-3.1c1.5-10.9,3.8-22,6.4-33.1
		C3834.8,3904,3835.9,3903.8,3837,3903.6L3837,3903.6z"/>
	<path id="path586" class="st1" d="M3888.8,3889.9c-3.4,16.6-6.3,33.1-8.7,49.3c-1-0.1-2-0.2-3-0.3c2.2-15.7,5.1-31.7,8.3-47.8
		L3888.8,3889.9z"/>
	<path id="path588" class="st1" d="M3934.6,3887.7c-0.3,1.4-0.6,2.8-0.9,4.2c-2.2,10.3-4.3,20-5.7,29.4c-1.1,7.2-1.7,14.9-2.3,23.1
		c-0.7,0.1-1.5,0.3-2.2,0.5h-0.9c0.6-8.5,1.3-16.6,2.4-24c1.3-9.6,3.5-19.3,5.7-29.7l0.8-3.6
		C3932.5,3887.7,3933.5,3887.7,3934.6,3887.7L3934.6,3887.7z"/>
	<path id="path590" class="st1" d="M3958.3,3888.5c-1,4.6-1.9,9.2-2.7,13.8c-2,11.2-3.4,22.8-4.8,35.1c-0.1,0.7-0.1,1.4-0.2,2.1
		c-1.1,0.2-2.1,0.4-3.2,0.5c0.1-1,0.3-2,0.4-2.9c1.4-12.4,2.7-24.1,4.7-35.4c0.8-4.4,1.7-8.8,2.7-13.3
		C3956.3,3888.4,3957.3,3888.4,3958.3,3888.5L3958.3,3888.5z"/>
	<path id="path592" class="st1" d="M3998.2,3888.7c-0.1,0.6-0.1,1.2-0.2,1.9c-2.2,14.7-4.4,29.5-6.7,44.5l-3.2,0.2
		c2.4-15.2,4.6-30.3,6.8-45.2l0.2-1.4H3998.2L3998.2,3888.7z"/>
	<path id="path594" class="st1" d="M4035.9,3887.3c-2.4,15.6-5.7,31.7-9,46.7h-3.2c3.3-14.7,6.6-30.8,9-46.5L4035.9,3887.3z"/>
	<path id="path596" class="st1" d="M4070.8,3884.5c-2.2,16.9-4.7,33.8-7.4,50.2c-1.1,0-2.1,0-3.1-0.1c2.7-16.3,5.2-33,7.4-49.8
		C4068.8,3884.7,4069.8,3884.6,4070.8,3884.5L4070.8,3884.5z"/>
	<path id="path598" class="st1" d="M4111.6,3882.2c0.6,18.5,0.3,37.5-1.9,55l-3-0.2c2.1-17.3,2.5-36.2,1.9-54.6L4111.6,3882.2z"/>
	<path id="path600" class="st1" d="M4143.9,3879.2c-0.7,20.1-2.7,40.3-4.7,59.5c-1-0.1-2-0.1-3-0.1c1.9-19.1,3.9-39.1,4.6-59
		C4141.9,3879.5,4142.9,3879.3,4143.9,3879.2z"/>
	<path id="path602" class="st1" d="M4170.6,3875.7c2,21.5,3,43.4,0.9,63.9h-3c2-20.3,1-42.1-0.9-63.4
		C4168.6,3876.1,4169.6,3875.9,4170.6,3875.7z"/>
	<path id="path604" class="st1" d="M4216.7,3866.9c2,12.3,3.1,24.7,3,36.5c-0.1,10.7-1.2,23.5-5,35.1c-1.1,0.1-2.2,0.1-3.3,0.2
		c3.9-11.5,5.1-24.5,5.2-35.3c0.1-11.4-1-23.6-3-35.7l1-0.2L4216.7,3866.9L4216.7,3866.9z"/>
	<path id="path606" class="st1" d="M4195.4,3871.5c2.6,22.1,3.2,45.9,0.3,67.9c-1,0-2,0-3,0.1c2.9-21.8,2.2-45.4-0.4-67.4
		C4193.3,3871.9,4194.3,3871.7,4195.4,3871.5z"/>
	<path id="path608" class="st32" d="M3344.9,3390c27.8-31.8,84.8-110.9,104.1-26.6c8.8,38.4-24.8,84.1-55.7,96.8L3344.9,3390z"/>
	<path id="path610" class="st1" d="M3356.3,3563.1c-35.2,70.7-84.3,131.4-171.2,126c-88.3-5.4-122.1-75.3-109.8-156.1
		c2.6-17.1,6.6-33.7,11.6-49.6c7.1,13.6,14.2,27.1,21.4,40.7c5,9.3,15.9,14,25.9,9.4c31.8-14.9,65.6-34.1,92.4-59.2
		c48.2-28.5,59.9-73.2,109.4-108.2C3414,3440.1,3395,3485.4,3356.3,3563.1L3356.3,3563.1z"/>
	<path id="path612" class="st24" d="M3401.8,3501.7c-21.3,12.5-12.9,1.1-22.2-15.6c-15.3-27.5-38.6-80.4-66.8-101.5
		c-1.1-0.3-2.3-0.7-3.5-1.2c0.4-0.4,0.8-0.8,1.1-1.3c6.8-8.5,18.1-19.6,27.8-29.9c8.8,3.1,22.7,23,26.6,28.9
		c16.6,25.3,35.2,62.5,42.9,91.8C3412.4,3490.4,3421.1,3490.3,3401.8,3501.7L3401.8,3501.7z"/>
	<path id="path614" class="st1" d="M3309.7,3391.4c13.2-13.7,29.6-25.9,43.3-35.6c0.5,0.9,1.1,1.7,1.7,2.6
		c-13.5,9.5-29.6,21.5-42.6,34.8L3309.7,3391.4z"/>
	<path id="path616" class="st1" d="M3323.7,3403.6c14.1-12.8,29.2-23.2,39.9-29.9l1.5,2.4c0,0.1,0,0.1,0.1,0.2
		c-10.5,6.6-25.5,16.9-39.4,29.4C3325.1,3405,3324.4,3404.3,3323.7,3403.6L3323.7,3403.6z"/>
	<path id="path618" class="st1" d="M3337.4,3419.2c11.8-11.9,24.7-22.3,34.6-29.6l1.4,2.8c-9.8,7.3-22.6,17.5-34.2,29.2
		L3337.4,3419.2z"/>
	<path id="path620" class="st1" d="M3348,3434.4c10.7-9.1,22.1-17.6,33-25.6l1,2.4c0.1,0.1,0.1,0.3,0.2,0.5
		c-10.7,7.9-22,16.3-32.6,25.3L3348,3434.4L3348,3434.4z"/>
	<path id="path622" class="st1" d="M3360.4,3456.8c9.2-8.7,20.4-19.4,29.3-27.9c0.5,1,0.9,2,1.3,3c-9,8.6-20.1,19.2-29.2,27.8
		l-0.6-1.4C3360.9,3457.8,3360.7,3457.3,3360.4,3456.8L3360.4,3456.8z"/>
	<path id="path624" class="st1" d="M3398.2,3447.7c-6,5.9-12.2,12.4-18.1,18.5c-3.7,3.9-7.2,7.6-10.5,10.9c-0.4-1-0.8-2-1.3-3.1
		c3.1-3.1,6.3-6.5,9.6-9.9c6.1-6.4,12.7-13.2,18.9-19.4L3398.2,3447.7L3398.2,3447.7z"/>
	<path id="path626" class="st1" d="M3405.7,3463c-4.8,4.3-9.8,8.4-14.7,12.5c-5.5,4.6-11.1,9.3-16.5,14.1c-0.4-1-0.8-2-1.1-3.1
		c5.1-4.5,10.4-9,15.6-13.3c5.1-4.3,10.3-8.6,15.3-13L3405.7,3463z"/>
	<path id="path628" class="st32" d="M3965,3727c-23.4,4-54.9,1.4-59.4-33.8c-3.1-24.5,14.3-56,38.4-50.3l-8.4-2.7
		c-3.9-1.3-5-3.1-3.5-5.4c29.9-0.4,48.3-5.4,57.1,28.6C3996.1,3690.1,3994.8,3721.8,3965,3727L3965,3727z"/>
	<path id="path630" class="st24" d="M4021.9,3730.1c-7.7,4.5-36.4-4.6-43.9-6.8c8.4-23.6,19.1-69.1-8.7-87.8l19.4-14.3
		C4038.9,3595.2,4046.3,3716.1,4021.9,3730.1L4021.9,3730.1z"/>
	<path id="path632" class="st1" d="M4035.1,3636.5c-15.9-2.3-38.8,3.5-56.8,11.9c0-1.1,0-2.2-0.1-3.3c18-8.3,40.3-13.8,56.6-11.7
		C4034.9,3634.5,4035,3635.5,4035.1,3636.5z"/>
	<path id="path634" class="st1" d="M4036.2,3659c-20.1,2.6-41,6.2-58,13.7l0.2-3.4c17.2-7.3,37.9-10.8,57.8-13.4V3659L4036.2,3659z"
		/>
	<path id="path636" class="st1" d="M4035.6,3688.3c-12.1-1.3-24.8,0.3-37.2,1.8c-7.3,1-14.7,1.9-22.1,2.2c0.1-1,0.3-2,0.4-3.1
		c7.1-0.3,14.3-1.2,21.3-2.1c12.6-1.6,25.4-3.2,37.8-1.8L4035.6,3688.3L4035.6,3688.3z"/>
	<path id="path638" class="st1" d="M4034.3,3712.5c-11.7-0.4-23.4-1.8-34.8-3.3c-8.5-1.1-17.1-2.1-25.8-2.8l0.6-3
		c8.6,0.7,17.2,1.7,25.6,2.8c11.4,1.4,23,2.8,34.6,3.3L4034.3,3712.5L4034.3,3712.5z"/>
	<path id="path640" class="st1" d="M3983,3636.3l-5.2,2.6c-0.1-1.1-0.1-2.2-0.2-3.3l4-2c15.7-7.9,30.7-15.5,50.8-16.7
		c0.2,1.1,0.4,2.1,0.6,3.1C4013.3,3621.1,3998.5,3628.5,3983,3636.3L3983,3636.3z"/>
	<path id="path642" class="st16" d="M3130.1,3891c-0.5-0.1-1-0.1-1.6-0.1c0-0.3,0-0.5-0.1-0.7c0.3-0.3,0.5-0.6,0.7-0.9L3130.1,3891z
		"/>
	<path id="path644" class="st33" d="M4054,3002.2c-46.7,6.6-98,13.9-107.7,15.4c-3.9,35.3-26.8,68.4-67.8,89.7
		c-5.1,2.7-10.5,5.1-16.2,7.4c-51.3,20.5-96.9,17.6-133,1.2c-48.5-22.1-80-68.4-85.3-114.9c-26,3.9-67.8-7.8-98.5-10.1
		c-13.4,37.1-41.9,71.5-75.8,88.6c-86.5,43.8-150.8,35.9-191.4,4.8c-13.5-10.3-24.4-23.2-32.6-37.7c-14-24.6-23.8-73.4-10.6-119.3
		c14.9-42,50.8-75.7,108.8-79.4c45.8-2.9,155.2-6.8,193.5,46c15.2,21,19,46.9,14.5,73c20.4-8.6,60.6-4.1,92.5,3.5
		c5.4-36.5,29-69.7,75.7-86.8c11.7-6.4,25.9-9.7,41.5-10.5c2.1-0.1,4.3-0.2,6.4-0.2l2.2-0.2l-0.3,0.2c32.2,0.1,68.8,9.8,98.8,24.3
		c20.8,10.1,38.4,22.4,49.4,35.5c16.7,19.9,35.7,45.1,37.9,67c18.1-0.7,61.9-6.2,95.7-10.7C4052.3,2993.5,4053.1,2997.9,4054,3002.2
		L4054,3002.2z M3539,2964.8c-0.1-15.2-4-29.4-11.5-42.7c-7.6-13.2-17.9-23.7-31-31.6c-12.8-9.9-30.3-15.5-46.3-18.1
		c-19.5-3.2-38.4-5.4-58-4.2c-1.1,0.1-2.1,0.1-3.1,0.2h-0.1c-13.5,0.9-27.9,2.5-42.1,5.2c-10.6,0.9-21.1,3.6-31.1,8.3
		c-10.3,3.7-20.1,8.2-28.9,13.9c-1.1,0.7-2.1,1.3-3.1,2c-18.2,12.4-31.6,28.6-37.6,50.5c-4,14.8-4,30.4-0.1,45.1
		c1,5.2,2.4,10.4,4.3,15.4c0.1,0.4,0.2,0.7,0.3,1.1c2.5,7.8,5.1,15.7,8.8,23c1.3,2.4,2.6,4.7,4,7c12.2,18.5,18.1,23.1,35.9,36.3
		c8.2,6.1,18.7,9.9,28.8,11.9c21.7,4.5,32,3.8,53.7,0.1l2-0.4c8.1-1.6,16-4.3,23.6-7.7c1.7-0.4,3.4-0.8,5.1-1.3
		c29-7.9,57.5-22.1,82.7-38.4C3521.7,3023.3,3539.1,2997.1,3539,2964.8L3539,2964.8z M3935.2,3006.3c-0.1-36.1-23.4-68.5-56.8-81
		c-5.4-3.7-10.9-7.1-16.7-10.1c-11.5-6.2-23.9-10.8-37.1-13c-1.1-0.2-2.3-0.4-3.5-0.6c-8.9-4.4-18.6-7.3-28.6-8.2
		c-3.1-0.7-6.1-1.2-9.2-1.5c-12-1.3-24.3-0.4-36.2,3.2c-3.4,1.1-6.7,2.3-9.9,3.6c-12.5,1.8-24.3,6.1-36.1,11.8
		c-14.5,6.9-24.9,19.8-33.7,32.7c-4.5,6.6-8.3,14.7-9.4,22.8c-3.8,27.2-4.3,19.5,0,46.5c1.5,9.8,6.6,20,13,29.3
		c9.2,25.2,28.7,45,53.3,53.7c4.4,1.6,9,2.8,13.7,3.7c7.5,3.9,15.5,7.1,24.3,9.9c21.6,6.8,42.8,4.6,64.5,1
		c15.2-2.6,30.3-8.5,44.3-16c7.1-3.8,14-7.9,20.4-12.3c13.2-7.6,23.7-17.9,31.6-31C3931.1,3037.1,3935.1,3022.2,3935.2,3006.3
		L3935.2,3006.3z"/>
	<path id="path646" class="st22" d="M4043.3,4226c-34.3,38.5-66.5,80.3-96.1,121.9c-26.4,37.3-50.6,74.5-72.4,109.3
		c-41.6-11.9-48.9-71.8-43-142.3c8.2-97.1,41.4-214.5,44.6-255.1c12.2-155.1,163.5-143.5,291.1-93.7l30,16.7
		C4204.2,4064.7,4098.6,4163.9,4043.3,4226z"/>
	<path id="path648" class="st0" d="M3748.9,4128.5c-31.4,13.7-79.7,13.9-124,13.1c-2.8-29.2,4.4-71.9,20.4-96.5l7.4,4.5
		c-1.2,0.7-3.2,1.8-1.4,1.3c1.8,0.5,4.1,1.2,6.8,1.9C3695.5,4075.7,3742.7,4107.5,3748.9,4128.5z"/>
	<path id="path650" class="st0" d="M3947.2,4347.9c-26.4,37.3-50.6,74.5-72.4,109.3c-41.6-11.9-48.9-71.8-43-142.3
		c15.8,4.5,32.3,7.3,47.5,11.4C3899.8,4331.8,3924.6,4344,3947.2,4347.9z"/>
	<path id="path652" class="st23" d="M4045,4022.3c7.8-9.1,60.7,14.1,71.8,21.4c12.6,8.4,23.7,26,14.2,39.7
		c-18.1,25.9-74.3,25.9-89.5-1.2c-13.6-24.3-6.2-67.4,28.3-54.2L4045,4022.3z"/>
	<path id="path664" class="st6" d="M3006.1,0v4289.4h-11.7V0H3006.1z"/>
	<path id="path666" class="st27" d="M1142.8,1722.4c22-251.6,426.8-89.7,274.7,177.5c-97.2,170.9-322.8,270.5-507.8,299.6
		c-226.2,35.6-442,64.5-658.2-33.7c-93.6-42.6-189.6-108.9-173.4-223.1c12.4-87.5,115-171.8,199.5-110.2
		c2.9-66.3-22.9-131.4,16.8-188.7c39.7-57.3,144.4-94.5,191.5-29.8c21.5-95.8,141.1-154.5,186.2-36.1
		c78.2-58.7,160.2-107.2,259.5-93.2C1067.9,1504,1138.3,1613.5,1142.8,1722.4L1142.8,1722.4z"/>
	<path id="path668" class="st17" d="M890,1753l3.6-2.8c18.7,23.9,59.5,39.9,80.2,33c1.7-0.6,3.2-1.3,4.6-2.2
		c12.7-8,11.8-27.8-2.7-57.4l4.2-2c19.7,40.4,11.4,56.7,0.9,63.3c-1.7,1.1-3.6,2-5.7,2.7C951.1,1795.7,908.4,1776.5,890,1753z"/>
	<path id="path670" class="st17" d="M522.7,1832.6l2.3-4c19.7,11.2,54.6,27,70.9,21.6c1.7-0.6,3.2-1.4,4.4-2.5
		c6.5-5.5,6.2-17.9-1-36.9l4.3-1.6c7.9,21,7.8,35.1-0.3,42c-1.7,1.4-3.6,2.5-5.8,3.2C575.8,1861.8,532,1837.9,522.7,1832.6
		L522.7,1832.6z"/>
	<path id="path672" class="st34" d="M1051.7,1860.9c-83.5-5-2.2-100.2,52.7-39.2C1111.8,1829.9,1137.3,1866,1051.7,1860.9z"/>
	<path id="path674" class="st34" d="M579.1,1881.8c45.5,9.7,94.1,43.4-0.3,59.5c-16.2,2.8-70,0.4-71.1-23.6
		C505.6,1870.6,567.5,1879.2,579.1,1881.8z"/>
	<path id="path676" class="st17" d="M806.4,1940.6c-32,2.4-20.9-35.6,9.3-36.3c6.1,4.9,9.2,11.5,9.1,19.9
		C824.7,1936.8,837.7,1938.1,806.4,1940.6L806.4,1940.6z"/>
	<path id="path678" class="st27" d="M1439.1,2187.9c39.4-14.6-17.3-62.6-31.3-71.1C1407.7,2112.6,1407.3,2199.7,1439.1,2187.9z"/>
	<path id="path680" class="st27" d="M1553.3,2217c39.4-14.6-17.3-62.6-31.3-71.2C1521.9,2141.6,1521.5,2228.7,1553.3,2217z"/>
	<path id="path682" class="st27" d="M1529.4,2375.1c39.4-14.6-17.3-62.6-31.3-71.1C1498.1,2299.8,1497.6,2386.9,1529.4,2375.1z"/>
	<path id="path684" class="st27" d="M1365.2,2292c39.4-14.6-17.3-62.5-31.3-71.1C1333.8,2216.7,1333.4,2303.8,1365.2,2292z"/>
	<path id="path686" class="st27" d="M1268.1,2265.3c39.4-14.6-17.3-62.6-31.3-71.1C1236.8,2190,1236.4,2277.1,1268.1,2265.3z"/>
	<path id="path688" class="st27" d="M1321.8,2112.8c39.4-14.6-17.3-62.6-31.3-71.1C1290.4,2037.5,1290,2124.6,1321.8,2112.8z"/>
	<path id="path690" class="st27" d="M1338.9,2434.5c39.4-14.6-17.3-62.6-31.3-71.1C1307.6,2359.2,1307.2,2446.3,1338.9,2434.5z"/>
	<path id="path692" class="st27" d="M1475.7,2457.5c39.4-14.6-17.3-62.6-31.3-71.2C1444.4,2382.2,1444,2469.3,1475.7,2457.5z"/>
	<path id="path694" class="st27" d="M1653.9,2313.7c39.4-14.6-17.3-62.6-31.3-71.1C1622.6,2238.4,1622.2,2325.5,1653.9,2313.7z"/>
	<path id="path696" class="st27" d="M1484.6,2066.3c39.4-14.6-17.3-62.6-31.3-71.2C1453.2,1991,1452.8,2078.1,1484.6,2066.3z"/>
	<path id="path698" class="st27" d="M1739.8,2461.1c39.3-14.6-17.3-62.6-31.3-71.2C1708.4,2385.7,1708,2472.8,1739.8,2461.1z"/>
	<path id="path700" class="st27" d="M1632.1,2569.8c39.4-14.6-17.3-62.6-31.3-71.2C1600.7,2494.4,1600.3,2581.5,1632.1,2569.8z"/>
	<path id="path702" class="st27" d="M1547.4,2690.7c39.4-14.6-17.3-62.6-31.3-71.2C1516,2615.4,1515.6,2702.5,1547.4,2690.7z"/>
	<path id="path704" class="st27" d="M1412.5,2581.3c39.4-14.6-17.3-62.6-31.3-71.1C1381.2,2506,1380.7,2593.1,1412.5,2581.3z"/>
	<path id="path706" class="st27" d="M1463.3,2807.1c39.4-14.6-17.3-62.5-31.3-71.1C1431.9,2731.8,1431.5,2818.9,1463.3,2807.1z"/>
	<path id="path708" class="st27" d="M1036.1,2367.8c39.4-14.6-17.3-62.6-31.3-71.2C1004.8,2292.5,1004.4,2379.6,1036.1,2367.8z"/>
	<path id="path710" class="st27" d="M1150.4,2396.8c39.3-14.6-17.4-62.5-31.3-71.1C1119,2321.5,1118.6,2408.6,1150.4,2396.8z"/>
	<path id="path712" class="st27" d="M1126.5,2555c39.4-14.6-17.3-62.6-31.3-71.2C1095.1,2479.7,1094.7,2566.8,1126.5,2555z"/>
	<path id="path714" class="st27" d="M962.2,2471.9c39.4-14.6-17.3-62.6-31.3-71.1C930.9,2396.6,930.5,2483.7,962.2,2471.9z"/>
	<path id="path716" class="st27" d="M865.2,2445.2c39.4-14.6-17.3-62.6-31.3-71.2C833.8,2369.8,833.4,2457,865.2,2445.2z"/>
	<path id="path718" class="st27" d="M918.8,2292.7c39.4-14.6-17.3-62.6-31.3-71.2C887.5,2217.4,887.1,2304.5,918.8,2292.7z"/>
	<path id="path720" class="st27" d="M936,2614.4c39.4-14.6-17.3-62.6-31.3-71.2C904.6,2539.1,904.2,2626.2,936,2614.4z"/>
	<path id="path722" class="st27" d="M1072.8,2637.4c39.4-14.7-17.3-62.6-31.3-71.2C1041.4,2562,1041,2649.1,1072.8,2637.4z"/>
	<path id="path724" class="st27" d="M1251,2493.6c39.4-14.6-17.3-62.6-31.3-71.2C1219.6,2418.3,1219.2,2505.4,1251,2493.6z"/>
	<path id="path726" class="st27" d="M1081.6,2246.2c39.4-14.7-17.3-62.6-31.3-71.2C1050.3,2170.8,1049.9,2257.9,1081.6,2246.2z"/>
	<path id="path728" class="st27" d="M1336.8,2640.9c39.4-14.6-17.3-62.6-31.3-71.1C1305.5,2565.6,1305,2652.7,1336.8,2640.9z"/>
	<path id="path730" class="st27" d="M1229.1,2749.6c39.4-14.6-17.3-62.5-31.3-71.1C1197.8,2674.3,1197.4,2761.4,1229.1,2749.6z"/>
	<path id="path732" class="st27" d="M1144.4,2870.6c39.4-14.6-17.2-62.6-31.2-71.2C1113.1,2795.2,1112.7,2882.3,1144.4,2870.6z"/>
	<path id="path734" class="st27" d="M1009.6,2761.2c39.3-14.6-17.3-62.6-31.3-71.2C978.2,2685.8,977.8,2773,1009.6,2761.2z"/>
	<path id="path736" class="st27" d="M1060.3,2987c39.4-14.6-17.3-62.6-31.3-71.1C1029,2911.7,1028.5,2998.8,1060.3,2987z"/>
	<path id="path738" class="st27" d="M639.8,2402.1c42-0.5,4.8-64.8-5.5-77.5C635.7,2320.6,606,2402.5,639.8,2402.1z"/>
	<path id="path740" class="st27" d="M737.6,2467.9c42-0.5,4.8-64.8-5.5-77.6C733.5,2386.4,703.8,2468.3,737.6,2467.9z"/>
	<path id="path742" class="st27" d="M662,2608.8c42-0.5,4.7-64.8-5.6-77.6C657.8,2527.3,628.1,2609.2,662,2608.8z"/>
	<path id="path744" class="st27" d="M535.2,2475.3c42-0.5,4.8-64.8-5.5-77.5C531,2393.8,501.3,2475.7,535.2,2475.3z"/>
	<path id="path746" class="st27" d="M452.8,2417.5c42-0.5,4.8-64.8-5.5-77.6C448.6,2336,418.9,2417.9,452.8,2417.5z"/>
	<path id="path748" class="st27" d="M554.6,2291.9c42-0.5,4.8-64.7-5.5-77.5C550.4,2210.4,520.8,2292.3,554.6,2291.9z"/>
	<path id="path750" class="st27" d="M462.6,2600.6c42-0.5,4.8-64.7-5.5-77.5C458.4,2519.2,428.7,2601.1,462.6,2600.6z"/>
	<path id="path752" class="st27" d="M583.7,2668.3c42-0.5,4.7-64.8-5.5-77.6C579.5,2586.8,549.8,2668.7,583.7,2668.3z"/>
	<path id="path754" class="st27" d="M799.9,2592.8c42-0.5,4.7-64.7-5.6-77.5C795.7,2511.3,766,2593.2,799.9,2592.8z"/>
	<path id="path756" class="st27" d="M723.6,2302.8c42-0.5,4.8-64.7-5.5-77.5C719.4,2221.4,689.7,2303.2,723.6,2302.8z"/>
	<path id="path758" class="st27" d="M831.1,2760.4c42-0.5,4.8-64.7-5.5-77.5C826.9,2679,797.3,2760.9,831.1,2760.4z"/>
	<path id="path760" class="st27" d="M693.2,2826.6c42-0.5,4.7-64.7-5.6-77.5C689,2745.1,659.3,2827,693.2,2826.6z"/>
	<path id="path762" class="st27" d="M572.7,2912c42-0.5,4.8-64.7-5.5-77.5C568.6,2830.5,538.9,2912.4,572.7,2912z"/>
	<path id="path764" class="st27" d="M482.5,2763.6c42-0.5,4.8-64.7-5.5-77.5C478.3,2682.1,448.6,2764,482.5,2763.6z"/>
	<path id="path766" class="st27" d="M454.3,2993.4c42.1-0.5,4.8-64.8-5.5-77.6C450.2,2911.9,420.5,2993.8,454.3,2993.4z"/>
	<path id="path788" class="st9" d="M2778.2,2004.9c19.1-32.9,61.6-1.9,21.7,24.9c-24.5,16.3-57.8,11.2-81-4.6
		c16.6-17.2,18.2-47.8,42.2-58.2c44.6-19.5,37.6,38.4,17.5,31.8L2778.2,2004.9z"/>
	<path id="path790" class="st0" d="M2775.8,2010c12.6-10.5,59.5-71.5,53.9-93.4c-1.1-3.9-3.7-6.4-7.9-7.3l-0.3,1.2
		c3.8,0.8,6.1,2.9,7,6.4c2.3,8.9-4.8,26.6-19.8,49.8c-12.6,19.3-27.3,37.1-33.7,42.4L2775.8,2010z"/>
	<path id="path792" class="st34" d="M4688.6,4428.7c-8.5-42.6,45.6-40.1,50.4-0.1c3.5,29.2-19.6,60.6-36.3,82.1
		c-24.2-15.8-51.4-32.5-58.1-62.9c-8-35.9,32.7-49.8,46.7-13.7L4688.6,4428.7z"/>
	<path id="path794" class="st3" d="M4614.6,4305.5c5,28.6,22.9,52.4,41.6,77.4c19.1,25.4,38.8,51.7,44.1,83.8l-1.2,0.2
		c-5.2-31.9-24.8-58-43.8-83.3c-18.9-25.2-36.9-49.1-41.9-78.1H4614.6L4614.6,4305.5z"/>
	<path id="path796" class="st34" d="M2741.9,2661.7c-8.4-42.5,45.7-40,50.5,0c3.5,29.2-19.6,60.5-36.3,82.1
		c-24.2-15.8-51.4-32.6-58.1-63c-8-35.8,32.7-49.7,46.7-13.6L2741.9,2661.7z"/>
	<path id="path798" class="st3" d="M2668,2538.5c5,28.7,22.9,52.5,41.6,77.5c19.1,25.4,38.8,51.6,44.1,83.7l-1.2,0.2
		c-5.2-31.8-24.8-57.9-43.8-83.2c-18.9-25.2-36.9-49.2-41.9-78.1C2667.2,2538.6,2667.6,2538.6,2668,2538.5L2668,2538.5z"/>
	<path id="path800" class="st35" d="M4431.4,2320.1c-8.5-42.5,45.7-40,50.5,0c3.5,29.2-19.7,60.5-36.4,82.1
		c-24.1-15.8-51.3-32.6-58-63c-8-35.8,32.6-49.7,46.7-13.6L4431.4,2320.1z"/>
	<path id="path802" class="st3" d="M4357.5,2197c5,28.6,22.8,52.4,41.6,77.4c19.1,25.4,38.8,51.7,44.1,83.7l-1.2,0.2
		c-5.2-31.8-24.9-57.9-43.9-83.2c-18.9-25.2-36.8-49.2-41.9-78.1L4357.5,2197L4357.5,2197z"/>
	<path id="path804" class="st34" d="M231.4,2478.5c-8.5-42.5,45.7-40.1,50.5,0c3.5,29.2-19.7,60.5-36.4,82
		c-24.1-15.8-51.3-32.5-58-62.9c-8-35.9,32.6-49.8,46.7-13.7L231.4,2478.5z"/>
	<path id="path806" class="st3" d="M157.5,2355.3c5,28.6,22.8,52.4,41.6,77.4c19.1,25.4,38.8,51.7,44.1,83.8l-1.2,0.2
		c-5.2-31.9-24.9-58-43.9-83.3c-18.9-25.2-36.8-49.1-41.9-78.1L157.5,2355.3L157.5,2355.3z"/>
	<path id="path808" class="st3" d="M4524.9,3441.9l-0.5,0.1l-0.1-0.5c-0.4-1.1-0.4-2,0.1-2.7c0.9-1.2,2.9-1.9,6.1-2.1l0.1,1.2
		c-3.5,0.2-4.7,1-5.1,1.6c-0.3,0.3-0.3,0.7-0.2,1.2c25.4-2.2,72.6-15.8,92.6-43.3c8.6-11.9,11.1-25,7.3-39l1.2-0.3
		c3.8,14.4,1.3,27.8-7.6,40c-17,23.4-53.4,36.8-79.7,41.8C4533.9,3440.9,4529.1,3441.6,4524.9,3441.9L4524.9,3441.9z"/>
	<path id="path810" class="st9" d="M4588.2,3426.4c-9.4,80.3-118.1,71.6-103.4,11.2c3-12.4,90.3-12.3,107.3-17
		c-4.1,3.7-9.6,7.7-14.3,10.5L4588.2,3426.4z"/>
	<path id="path812" class="st9" d="M3519.9,4687.3c-19-10.7-51.4-3.7-62.7-2.8c-17.5-23.1-84-6.4,3.5,26.3
		c-11.4,8.3-17.2,35-9.6,51.5c-26.5-6.4-32.5,31.9-31,47l0.8,3.1c-7.4-12.2-48.8-43-61.7-20.8c4.2-21.3-14.5-39.7-25.3-38.3
		c44.9-67.6-14.9-49.3-14.3-20.7c-22.6-2.4-30.7,12.1-41.2,31c7.3-13.3-4.1-37.9-17.5-45.8c15.9-2.1,15.8-26.2,7-37.9
		c45.3,1.9,36.7-29.7-1.3-25.5c37-11.3,43.1-30.1,45.7-31.1c17.2-6.7,47.4,4.8,47.4,4.8s16.6-22.2,32.6-29.3
		c31.4-13.8,29.4,8.9,67-6.2c-32.8,19.2-34.1,47.5,6.1,23.7c0.3,14.4,6.1,15.4,25.3,20C3474.6,4645.2,3502.1,4677.2,3519.9,4687.3
		L3519.9,4687.3z"/>
	<path id="path814" class="st0" d="M3474.6,4646.2c0,0.3,0,0.7-0.1,1C3474.6,4646.9,3474.6,4646.5,3474.6,4646.2
		c0-0.1,0-0.2-0.1-0.3c-0.1-0.1-0.1,0-0.2,0.1c-0.1,0.1-0.2,0.2-0.3,0.4c-0.5,0.5-0.8,1.2-1.2,1.8l-1.2,1.8
		c-0.3,0.3-0.5,0.6-0.8,0.8l-0.8,0.8c-1.1,1-2.1,2-3.2,2.9c-1.1,1-2.3,1.9-3.5,2.8c-2.5,1.7-5,3.2-7.7,4.5c-1.3,0.6-2.7,1.2-4.1,1.7
		c0.8,0.2,1.6,0.4,2.4,0.7c2.5,0.7,4.9,1.4,7.3,2.2l7.2,2.6c2.3,0.9,4.7,1.9,7.1,2.8c1.1,0.5,2.3,1,3.5,1.5c0.5,0.3,1.1,0.6,1.7,0.9
		l0.8,0.4c0.1,0.1,0.3,0.2,0.4,0.3c0.1,0.1,0.3,0.2,0.3,0.3c0-0.1-0.2-0.2-0.3-0.3c-0.1-0.1-0.3-0.2-0.4-0.3l-0.8-0.4l-1.8-0.8
		c-1.1-0.5-2.3-1-3.5-1.5c-2.3-0.9-4.7-1.8-7.1-2.7c-2.4-0.9-4.8-1.7-7.2-2.5c-0.1-0.1-0.1-0.1-0.2-0.1l0.1,0.2l0.2,0.4l0.4,0.8
		l0.8,1.6c0.5,1.1,1,2.3,1.3,3.4c0.4,1.2,0.6,2.4,0.6,3.6c-0.1,0.7-0.2,1.3-0.5,1.8c-0.3,0.6-0.7,1-1.2,1.3c0.5-0.3,0.8-0.8,1-1.3
		c0.3-0.6,0.3-1.2,0.3-1.8c-0.1-1.1-0.5-2.2-0.9-3.3c-0.5-1.1-1.1-2.1-1.7-3.1c-0.3-0.5-0.6-1-0.9-1.5l-0.5-0.8l-0.3-0.3l-0.1-0.2
		c-0.1-0.1-0.1-0.2-0.2-0.3l1.3-0.6c-2.3-0.7-4.5-1.4-6.8-2c-1-0.2-2-0.4-3-0.7c-1.1,0.5-2.3,0.9-3.6,1.2l-0.4-1.6
		c0.4-0.1,0.8-0.2,1.1-0.3c-3-0.6-6-1.3-9-1.9c-0.8-0.2-1.6-0.4-2.4-0.5c-0.5,0.2-1.1,0.4-1.7,0.5l-0.2-0.9l-3.2-0.8
		c-2.5-0.5-4.9-1.2-7.4-1.8c-9.8-2.6-19.7-5.3-29.7-6.8c-5-0.7-10.1-1.2-15.1-1c-3.9,0.1-7.8,0.6-11.5,1.8
		c3.5,15.2,7.4,30.3,11.6,45.2c4.1,4.1,8.5,8,13.3,11.2c4.8,3.3,10.1,5.9,15.8,7.4c5.6,1.6,11.6,1.9,17.4,1.3
		c5.9-0.6,11.6-2.2,17.2-4.2c-5.5,2.2-11.2,3.8-17.1,4.6c-2.9,0.4-5.9,0.5-8.9,0.4s-6-0.6-8.9-1.3c-5.7-1.4-11.2-4-16.2-7.2
		c-4.2-2.7-8-5.8-11.7-9.1c0.1,0.2,0.1,0.4,0.2,0.7c2.1,7.1,4.3,14.3,6.7,21.4c3,4.2,7,7.7,11.5,10.6c4.4,2.9,9.2,5.2,14.2,7.3
		c5,2,10.1,3.7,15.2,5.3c5.1,1.6,10.3,3.1,15.5,4.6c-5.2-1.4-10.4-2.7-15.6-4.2c-5.2-1.5-10.4-3.1-15.4-5s-10-4.1-14.6-7
		c-2.3-1.4-4.5-3-6.6-4.8c-0.9-0.9-1.9-1.8-2.8-2.7c0.3,0.9,0.7,1.8,1,2.7c1.6,4.7,3.4,9.3,5.4,13.9l0.2,0.1c0,0.1,0,0.1-0.1,0.2
		c0.9,2.2,1.9,4.3,3,6.4c0.6,1.1,1.2,2.1,1.9,3.2c0.6,1.1,1.3,2.1,2.2,3.1c-0.9-0.9-1.7-1.9-2.4-3c-0.7-1-1.3-2-2-3.1
		c-1.1-1.9-2.1-3.9-3.1-5.9c-1.7,2.5-3.5,4.8-5.3,7.2c-2.1,2.5-4.2,5.1-6.4,7.6c-2.1,2.5-4.3,4.9-6.5,7.4c-2.2,2.4-4.5,4.8-6.7,7.3
		c2.1-2.5,4.2-5.1,6.3-7.6c2.1-2.5,4.2-5.1,6.3-7.6c2.1-2.6,4.1-5.2,6-7.8c1.9-2.7,3.8-5.4,5.4-8.2l0.1,0.1c-2-4.2-3.8-8.5-5.6-12.8
		c-1.6-3.9-3.1-7.8-4.6-11.7c-2.5,3.4-5.3,6.6-8.3,9.6c-3.2,3.3-6.5,6.3-10,9.1c-3.6,2.8-7.3,5.4-11.1,7.7c-3.4,2-6.9,3.8-10.5,5.3
		c0.7-0.3,1.5-0.5,2.3-0.7c-1.3,0.5-2.7,0.9-4,1.3l-0.1-0.1c4.2-1.7,8.2-3.8,12-6.2c3.8-2.4,7.4-5.1,10.8-8c3.4-2.9,6.6-5.9,9.6-9.2
		c3.1-3.3,5.9-6.7,8.4-10.3l0.5,0.3c-1.9-5-3.7-10-5.4-15c-4.3-12.9-8.4-25.8-12.1-38.8c-3.2,2.4-6.6,4.6-10.1,6.6
		c-3.8,2.3-7.7,4.3-11.6,6.4c-3.9,2.1-7.7,4.3-11.4,6.6c-3.7,2.4-7.3,5-10.5,8c-3,2.8-5.8,5.8-8.5,9l0.9,0.1
		c-0.3,2.4-0.5,4.8-0.6,7.3c-0.1,2.4,0.1,4.9,0.5,7.3s1,4.8,1.9,7.1c0.8,2.3,1.8,4.6,2.9,6.9c-1.2-2.2-2.3-4.4-3.3-6.7
		s-1.8-4.7-2.4-7.2c-0.5-2.4-0.8-4.9-0.8-7.4c-0.1-2.1,0-4.3,0.1-6.4c-2.7,3.2-5.1,6.5-7.3,10c-2.3,3.7-4.3,7.6-5.8,11.6
		c-1.6,4.1-2.7,8.3-3.1,12.6c0.3-4.3,1.4-8.5,2.9-12.6s3.4-8,5.7-11.8c1.7-2.9,3.6-5.6,5.7-8.3c-2.5-0.7-4.8-1.8-6.9-3
		c-2.2-1.3-4.3-2.7-6.5-3.9c-2.1-1.2-4.4-2.3-6.6-3.5c-1.1-0.6-2.2-1.2-3.3-1.9c-0.5-0.3-1-0.7-1.5-1c-0.3-0.2-0.5-0.4-0.7-0.7
		c-0.1-0.1-0.2-0.2-0.3-0.3c-0.1-0.2-0.1-0.4,0-0.5c-0.1,0.1-0.1,0.3,0,0.5c0.1,0.1,0.2,0.2,0.3,0.3c0.2,0.2,0.4,0.4,0.7,0.6
		c0.5,0.3,1.1,0.6,1.6,0.9c1.1,0.6,2.3,1.2,3.4,1.7c2.3,1.1,4.6,2.1,6.8,3.2c2.3,1.1,4.5,2.4,6.7,3.5c2.2,1.2,4.5,2.1,6.9,2.6
		l-0.4,1.1l1.6-2l0.1-0.1v-0.1h0.1c2.7-3.3,5.6-6.5,8.7-9.5c3.2-3.1,6.7-5.8,10.4-8.2c3.7-2.5,7.5-4.7,11.4-6.8
		c3.8-2.2,7.7-4.3,11.5-6.6c3.6-2.1,7.1-4.5,10.3-7.1c-1.5-5.3-3-10.6-4.4-15.9h-0.2v-0.1l-0.2-0.2c-0.1-0.4-0.2-0.8-0.3-1.2
		c0.1,0,0.1,0,0.2-0.1c-2.5-9.3-4.8-18.6-7-28c-2.2-9.7-4.3-19.4-6.1-29.2c-1.8-9.8-3.4-19.6-4.5-29.6c-0.5-5-0.9-10.1-1.1-15.2
		c-0.1-2.5-0.1-5.1,0-7.7c0.1-2.6,0.3-5.3,0.7-8l10.6,1.8c-0.4,2.1-0.7,4.4-0.9,6.8c-0.2,2.3-0.3,4.7-0.3,7
		c-0.1,4.8,0.1,9.7,0.4,14.5c0.6,9.7,1.7,19.5,3,29.2c1.4,9.7,3,19.4,4.8,29.1c1.2,6.5,2.5,13.1,3.9,19.6c-0.1,0.7,0.1,1.3,0.4,2
		l0.2,0.4l-0.1-0.1c0.5,2.4,1,4.8,1.5,7.1l1.6,7c1.3-0.4,2.7-0.7,4-1c2.6-0.4,5.2-0.7,7.8-0.7c5.1-0.1,10.2,0.4,15.3,1.3
		c10.1,1.6,20,4.4,29.7,7.1c2.5,0.7,4.9,1.4,7.4,2c1,0.2,2,0.4,3,0.7c3.3-0.8,6.6-2.1,9.4-4c2.9-2,5.2-4.7,7.1-7.6
		c2-2.9,3.5-6.1,4.9-9.4c1.4-3.2,2.7-6.5,4.2-9.7c-1.4,3.3-2.5,6.6-3.8,9.9s-2.7,6.5-4.5,9.6c-1.9,3.1-4.2,5.9-7.2,8.1
		c-2.1,1.6-4.5,2.9-7,3.8c0.4,0.1,0.8,0.2,1.3,0.3c3.3,0.8,6.6,1.5,9.9,2.3c2.1-0.6,4.2-1.3,6.2-2.2c2.7-1.2,5.2-2.6,7.7-4.1
		c2.5-1.5,4.7-3.5,6.9-5.3l0.9-0.7c0.3-0.3,0.5-0.5,0.7-0.8c0.5-0.5,0.9-1.1,1.3-1.7c0.4-0.6,0.8-1.2,1.3-1.8l0.4-0.4l0.1-0.1
		c0.1,0,0.1,0,0.2,0.1L3474.6,4646.2L3474.6,4646.2z"/>
	<path id="path816" class="st30" d="M2837.3,1480.5c-16.9-9.5-45.8-3.3-55.9-2.5c-15.5-20.5-74.7-5.7,3.1,23.4
		c-10.1,7.4-15.3,31.2-8.4,45.8c-23.7-5.7-29,28.4-27.7,41.9l0.7,2.7c-6.5-10.8-43.3-38.3-54.9-18.5c3.8-18.9-12.9-35.3-22.4-34.1
		c39.9-60.1-13.3-43.9-12.8-18.4c-20.1-2.1-27.3,10.7-36.7,27.6c6.6-11.9-3.6-33.8-15.6-40.7c14.3-2,14.1-23.4,6.3-33.8
		c40.3,1.7,32.7-26.4-1.1-22.7c32.9-10.1,38.3-26.8,40.6-27.7c15.3-5.9,42.2,4.3,42.2,4.3s14.8-19.8,29-26.1
		c27.9-12.2,26.2,7.9,59.6-5.5c-29.1,17.1-30.3,42.3,5.4,21.1c0.3,12.8,5.5,13.7,22.6,17.8C2797,1443,2821.4,1471.5,2837.3,1480.5
		L2837.3,1480.5z"/>
	<path id="path818" class="st3" d="M2797,1443.9c0,0.3-0.1,0.6-0.1,0.9v-1.1c-0.1-0.1-0.1,0-0.2,0c-0.1,0.1-0.2,0.3-0.3,0.4
		c-0.4,0.5-0.7,1-1.1,1.6c-0.3,0.5-0.6,1.1-1,1.6c-0.2,0.3-0.4,0.5-0.7,0.7l-0.7,0.7c-1,0.9-1.9,1.8-2.9,2.6c-1,0.9-2,1.8-3.1,2.5
		c-2.2,1.5-4.5,2.8-6.8,4c-1.2,0.5-2.4,1-3.7,1.5c0.7,0.2,1.4,0.4,2.1,0.6c2.2,0.6,4.4,1.3,6.5,2s4.3,1.5,6.4,2.3s4.2,1.6,6.3,2.5
		c1.1,0.5,2.1,0.9,3.1,1.4c0.5,0.2,1,0.4,1.5,0.7l0.8,0.4c0.1,0.1,0.2,0.1,0.3,0.2c0.1,0.1,0.3,0.2,0.3,0.3c0-0.1-0.2-0.2-0.3-0.3
		c-0.1-0.1-0.2-0.1-0.3-0.2l-0.8-0.4c-0.5-0.3-1-0.5-1.5-0.7c-1.1-0.5-2.1-0.9-3.1-1.3c-2.1-0.9-4.3-1.7-6.4-2.4
		c-2.1-0.8-4.3-1.6-6.4-2.3h-0.2l0.1,0.1l0.2,0.4l0.4,0.7c0.3,0.5,0.5,0.9,0.7,1.4c0.5,1,0.9,2,1.2,3.1c0.3,1,0.5,2.1,0.5,3.2
		c-0.1,0.6-0.2,1.1-0.4,1.6c-0.3,0.5-0.7,0.9-1.2,1.1c0.5-0.3,0.8-0.7,1-1.2s0.2-1,0.2-1.5c-0.1-1-0.4-2-0.8-3
		c-0.4-0.9-0.9-1.9-1.5-2.8c-0.3-0.4-0.5-0.8-0.8-1.3l-0.5-0.7l-0.2-0.3l-0.1-0.2c-0.1,0-0.1-0.1-0.2-0.2l1.2-0.5
		c-2-0.7-4-1.3-6.1-1.8l-2.6-0.6c-1.1,0.4-2.1,0.7-3.2,1l-0.4-1.4l1-0.2c-2.7-0.6-5.3-1.2-8-1.7c-0.7-0.2-1.4-0.4-2.1-0.5l-1.6,0.4
		l-0.2-0.8l-2.8-0.6c-2.2-0.5-4.4-1.1-6.6-1.7c-8.7-2.3-17.5-4.7-26.4-6c-4.5-0.6-9-1-13.5-0.9c-3.4,0.1-6.9,0.6-10.2,1.6
		c3.1,13.5,6.6,26.9,10.4,40.3c3.6,3.6,7.5,7,11.8,9.9s9,5.3,14,6.6c5,1.4,10.3,1.7,15.5,1.1c5.3-0.5,10.4-1.9,15.3-3.7
		c-4.9,1.9-10,3.4-15.2,4.1c-2.7,0.3-5.3,0.4-7.9,0.3c-2.7-0.1-5.3-0.4-7.9-1.1c-5.1-1.2-10-3.5-14.4-6.4c-3.8-2.4-7.2-5.2-10.5-8.1
		l0.2,0.6c1.9,6.4,3.8,12.7,6,19c2.7,3.8,6.2,6.9,10.2,9.5c3.9,2.6,8.2,4.6,12.7,6.5c4.4,1.8,8.9,3.3,13.5,4.7
		c4.6,1.4,9.2,2.7,13.8,4.1c-4.7-1.3-9.3-2.4-13.9-3.7c-4.6-1.3-9.2-2.8-13.7-4.5s-8.9-3.7-13-6.2c-2.1-1.3-4-2.7-5.9-4.3
		c-0.9-0.7-1.7-1.5-2.5-2.4c0.3,0.8,0.6,1.6,0.9,2.4c1.5,4.2,3,8.3,4.8,12.4l0.2,0.1c0,0.1,0,0.1-0.1,0.2c0.9,1.9,1.8,3.7,2.7,5.6
		c0.5,1,1.1,2,1.6,2.9c0.6,1,1.3,1.9,2,2.7c-0.8-0.8-1.5-1.7-2.1-2.6l-1.8-2.8c-0.9-1.7-1.9-3.5-2.8-5.3c-1.4,2.3-3,4.4-4.7,6.5
		c-1.8,2.3-3.7,4.5-5.6,6.7s-3.9,4.4-5.9,6.6c-1.9,2.1-3.9,4.3-5.9,6.5l5.6-6.8c1.9-2.2,3.8-4.4,5.6-6.7c1.9-2.3,3.6-4.7,5.3-7
		c1.8-2.3,3.4-4.7,4.9-7.2h0.1c-1.8-3.7-3.5-7.5-5-11.4c-1.4-3.4-2.8-6.9-4.1-10.4c-2.3,3-4.8,5.9-7.4,8.6c-2.9,2.9-5.9,5.6-9,8.1
		c-3.1,2.5-6.4,4.8-9.8,6.8c-3,1.8-6.1,3.4-9.4,4.7c0.7-0.2,1.4-0.4,2.1-0.6l-3.6,1.2v-0.1c3.7-1.5,7.3-3.4,10.6-5.5
		c3.4-2.2,6.6-4.6,9.6-7.1c3.1-2.6,5.9-5.3,8.6-8.2c2.7-2.9,5.2-6,7.5-9.2l0.4,0.3c-1.7-4.5-3.3-8.9-4.8-13.4
		c-3.9-11.4-7.5-22.9-10.8-34.5c-2.8,2.2-5.9,4.1-8.9,5.9c-3.4,2-6.9,3.8-10.4,5.7c-3.4,1.9-6.9,3.8-10.1,5.9
		c-3.3,2.1-6.5,4.4-9.3,7c-2.7,2.5-5.2,5.2-7.6,8l0.8,0.1c-0.3,2.2-0.5,4.4-0.6,6.5c0,2.2,0.1,4.4,0.4,6.5c0.4,2.2,1,4.3,1.8,6.4
		c0.7,2,1.6,4.1,2.6,6.1c-1.1-2-2.1-4-3-6s-1.6-4.1-2.1-6.3s-0.7-4.4-0.8-6.7c0-1.9,0-3.8,0.1-5.6c-2.3,2.8-4.5,5.8-6.4,8.9
		c-2.1,3.3-3.8,6.7-5.2,10.3c-1.4,3.6-2.4,7.4-2.8,11.2c0.3-3.8,1.3-7.6,2.6-11.2c1.3-3.7,3.1-7.2,5.1-10.5c1.5-2.5,3.2-5,5-7.4
		c-2.1-0.6-4.2-1.6-6.1-2.7c-2-1.1-3.8-2.4-5.7-3.5c-1.9-1-4-2-5.9-3.1c-1-0.5-2-1.1-2.9-1.7c-0.5-0.3-1-0.6-1.4-0.9
		c-0.3-0.1-0.5-0.3-0.7-0.5l-0.2-0.4c-0.1-0.1-0.1-0.3,0-0.3c-0.1,0-0.1,0.2,0,0.3c0.1,0.1,0.2,0.2,0.3,0.3c0.2,0.2,0.4,0.4,0.6,0.5
		c0.5,0.3,1,0.6,1.5,0.9c0.9,0.5,1.9,1,3,1.5c2,0.9,4,1.8,6,2.8s4,2.2,5.9,3.2c2,1,4,1.8,6.2,2.2l-0.3,1c0.5-0.6,0.9-1.2,1.4-1.7
		c0-0.1,0-0.1,0.1-0.2c2.4-3,5-5.8,7.8-8.5c2.8-2.7,6-5.1,9.2-7.3c3.3-2.2,6.8-4.1,10.2-6c3.4-2,6.8-3.9,10.2-5.9
		c3.2-1.9,6.3-4,9.2-6.3l-4-14.2l-0.1,0.1v-0.2l-0.2-0.2c-0.1-0.3-0.2-0.7-0.3-1c0.1,0,0.2,0,0.3-0.1c-2.2-8.3-4.3-16.6-6.3-24.9
		c-2-8.6-3.8-17.3-5.4-26c-1.7-8.7-3.1-17.5-4-26.4c-0.5-4.4-0.9-8.9-1-13.4c-0.1-2.3-0.1-4.6,0-6.9c0.1-2.4,0.3-4.7,0.7-7.1
		l9.4,1.6c-0.4,1.9-0.7,3.9-0.9,6c-0.1,2.1-0.2,4.2-0.3,6.3c0,4.2,0.1,8.5,0.4,12.9c0.5,8.6,1.5,17.3,2.7,25.9
		c1.2,8.7,2.7,17.3,4.3,26c1.1,5.8,2.2,11.6,3.4,17.3c0,0.7,0.1,1.3,0.4,1.8c0.1,0.1,0.1,0.3,0.1,0.4c0.4,2.1,0.8,4.2,1.3,6.3
		c0.5,2,0.9,4,1.4,6.1c1.2-0.3,2.4-0.6,3.6-0.8c2.3-0.4,4.6-0.6,6.9-0.6c4.6-0.1,9.2,0.4,13.7,1.1c9,1.4,17.7,3.9,26.4,6.3
		c2.2,0.6,4.4,1.3,6.6,1.8l2.6,0.6c3-0.6,5.9-1.8,8.4-3.6c2.6-1.7,4.7-4.1,6.4-6.7s3-5.4,4.3-8.3s2.4-5.8,3.7-8.7
		c-1.2,2.9-2.2,5.9-3.4,8.8c-1.1,2.9-2.4,5.9-4,8.6s-3.7,5.2-6.3,7.2c-1.9,1.4-4.1,2.6-6.3,3.4l1.2,0.2c2.9,0.7,5.9,1.3,8.8,2.1
		c1.9-0.5,3.7-1.2,5.5-2c2.4-1,4.7-2.2,6.9-3.6c2.2-1.3,4.1-3.1,6.1-4.8l0.8-0.6c0.2-0.2,0.4-0.4,0.6-0.7c0.4-0.5,0.8-1,1.2-1.5
		c0.4-0.5,0.7-1.1,1.1-1.6l0.4-0.4h0.2C2797,1443.7,2797,1443.8,2797,1443.9L2797,1443.9z"/>
	<path id="path820" class="st2" d="M4629.4,3745.7c-43.2-3.6-26-55,13.8-48.6c29.1,4.7,52.8,35.6,68.9,57.5
		c-21.8,18.9-45.4,40.4-76.4,38.6c-36.8-2.2-38.9-45.1-0.3-48.7L4629.4,3745.7z"/>
	<path id="path822" class="st0" d="M4490.6,3782.9c28.9,3,56.7-7.6,85.9-18.8c29.7-11.3,60.3-23.1,92.6-19.3l-0.1,1.2
		c-32-3.7-62.6,8-92.1,19.3c-29.4,11.2-57.4,21.9-86.6,18.8C4490.4,3783.7,4490.5,3783.3,4490.6,3782.9L4490.6,3782.9z"/>
	<path id="path824" class="st1" d="M2568.7,4581.7c-7-23.9-6.3-85.1,21.8-93.5c44.7-13.4,108.5,47.6,115.8,52.2
		c-10.3,1.2-13,8-16.9,15.9c-17.3,34.1-5.9,71.1-52.3,84.3C2598.9,4651.4,2577.8,4612.5,2568.7,4581.7L2568.7,4581.7z"/>
	<path id="path826" class="st3" d="M2590.2,4567c-4.9,1.1-9.9,2.2-14.8,3.3c0,0.8,0.1,1.6,0.2,2.5c0.3,1.5,0.7,3.1,1.2,4.6
		c1,3,2.4,6,3.9,8.9c3,5.7,6.6,11.2,10.7,16.3c4,5.2,8.5,10,13.7,14.2c2.5,2,5.3,3.9,8.3,5.3c1.5,0.7,3.1,1.2,4.7,1.5
		c1.7,0.3,3.4,0.3,5-0.1c-1.6,0.5-3.3,0.5-5,0.3c-1.7-0.3-3.3-0.8-4.8-1.5c-3.1-1.3-5.9-3.1-8.6-5.1c-5.3-4-10-8.8-14.2-13.9
		c-4.3-5.1-8.1-10.5-11.3-16.3c-1.7-2.9-3.1-5.8-4.3-9c-0.6-1.5-1.1-3.1-1.4-4.8c-0.1-0.8-0.2-1.6-0.3-2.4c-6,1.5-11.9,3-17.7,4.7
		c-6.6,1.9-13,4.1-19.3,6.6c-6.2,2.5-12.3,5.3-17.8,8.8c-2.7,1.8-5.3,3.7-7.6,5.8c-2.3,2.2-4.2,4.5-5.6,7l-6.7-3.7
		c2-3.3,4.6-6.1,7.4-8.5c2.8-2.4,5.8-4.4,8.9-6.2c6.2-3.5,12.8-6.2,19.3-8.5c6.6-2.3,13.3-4.2,20.1-5.8c6.7-1.7,13.5-3.1,20.3-4.3
		c1.1-0.3,2.3-0.5,3.5-0.7c-0.3-2.9-0.2-5.8,0.2-8.6c0.4-3.2,1.1-6.4,2-9.5c1.8-6.3,4.3-12.3,7.3-18c3-5.8,6.5-11.3,10.8-16.2
		c2.1-2.5,4.4-4.8,7-6.8c2.5-2,5.4-3.8,8.5-4.8c-3.1,1.1-5.9,2.9-8.3,5c-2.5,2.1-4.7,4.5-6.8,7c-4,5-7.4,10.5-10.2,16.3
		c-2.8,5.7-5,11.7-6.6,17.9c-0.8,3.1-1.4,6.2-1.7,9.3c-0.2,2.7-0.3,5.4,0,8c5.3-0.9,10.5-1.8,15.8-2.6c1.2-3,4.2-7.4,5.4-9.8
		c1.3-2.7,2.9-5.4,4.6-7.9c3.4-5,7.4-9.7,12-13.7c2.3-2,4.7-3.9,7.3-5.5c2.7-1.5,5.5-2.9,8.4-3.7c3-0.9,6.1-1.3,9.2-1.1
		c3,0.2,6,0.9,8.8,2.2c-2.8-1.1-5.8-1.8-8.9-1.8c-3-0.1-6,0.4-8.8,1.4c-2.9,1-5.5,2.4-8,4c-2.5,1.7-4.8,3.6-6.9,5.6
		c-4.3,4.2-8,8.9-11,13.9c-1.6,2.5-3,5.1-4.2,7.8c-1.1,2.5-2.1,5.2-2.7,7.9c4.7-0.7,9.4-1.4,14.1-2.1h0.7l0.1-0.1l10.4-1.4
		c0.8-1.9,3-4.4,4.2-5.8c1.3-1.4,2.7-2.8,4.2-4c1.5-1.1,3.1-2.2,4.8-3.2c1.7-0.9,3.4-1.8,5.2-2.4c-1.7,0.8-3.4,1.8-4.9,2.8
		c-1.5,1.1-3,2.3-4.4,3.6c-1.3,1.3-2.6,2.7-3.6,4.2c-1,1.3-1.8,2.8-2.3,4.3c2-0.3,4-0.6,6-0.9c3.4-0.5,6.8-1,10.2-1.7
		c1.7-0.3,3.3-0.6,5-1c1.7-0.4,3.4-0.9,5-1.5c-1.6,0.7-3.3,1.2-4.9,1.7c-1.7,0.5-3.3,0.9-5,1.3c-3.4,0.8-6.7,1.5-10.1,2.2
		c-6.2,1.2-12.4,2.3-18.6,3.5c1.1,1.4,2.2,2.8,3.3,4.1c1.6,1.9,3.3,3.8,5,5.7c3.4,3.7,6.9,7.2,10.6,10.6c3.7,3.4,7.6,6.7,11.7,9.5
		c2.1,1.4,4.3,2.7,6.6,3.7c1.2,0.5,2.4,0.9,3.7,1c1.2,0.2,2.6,0,3.6-0.7c-1,0.8-2.4,1-3.6,0.9c-1.3-0.1-2.6-0.5-3.8-0.9
		c-2.4-0.9-4.7-2.1-6.8-3.4c-4.4-2.7-8.4-5.8-12.3-9.1c-3.9-3.3-7.6-6.7-11.2-10.3c-1.8-1.8-3.6-3.6-5.3-5.5c-1.5-1.6-3-3.3-4.4-5.1
		c-7.5,1.4-15,2.8-22.4,4.4c1.1,2.9,2.4,5.7,3.8,8.4c1.6,3.1,3.4,6,5.3,8.9c3.9,5.8,8.3,11.3,13.1,16.4c4.8,5,10.1,9.7,15.8,13.8
		c2.9,2,6,3.8,9.1,5.4c3.2,1.5,6.5,2.8,10,3.7c-3.5-0.8-6.9-2-10.1-3.5c-3.2-1.5-6.3-3.3-9.2-5.3c-5.9-3.9-11.3-8.5-16.3-13.5
		s-9.5-10.5-13.5-16.2c-2-2.9-3.9-5.9-5.6-9C2592.8,4573,2591.4,4570.1,2590.2,4567L2590.2,4567z"/>
	<path id="path828" class="st30" d="M4313.9,4871.6c3.4-11.5-4.9-27.7-6.9-33.6c10.5-12.3-7.8-45.2-14.2,5.4
		c-6.2-4.9-21.9-4.3-30,1.9c0-14.8-22.2-12.9-30.4-10l-1.6,0.8c5.8-5.5,17.4-31.5,3.2-35.4c12.5-0.6,20.2-13,18-18.5
		c43.7,14.6,25.5-14.5,9.6-10.3c-1.7-12.2-10.9-14.6-22.9-17.6c8.4,2.1,20.6-7.3,23.2-15.4c3.3,8.1,16.8,4.8,22.1-1.4
		c5.1,24.1,21.5,15.3,14-4.2c11.3,18,22.6,18.7,23.5,20c6.1,8.1,3.7,25.6,3.7,25.6s14.7,5.8,20.8,13.3c11.9,14.7-1,16.7,12.5,34.5
		c-15.1-14.7-31.1-11.6-12.4,6.5c-8,2.1-7.8,5.3-7.7,16C4331.2,4841.9,4317.1,4860.7,4313.9,4871.6L4313.9,4871.6z"/>
	<path id="path830" class="st0" d="M4330.7,4842.1c-0.2,0-0.4,0-0.6,0.1l0.6-0.2h0.1v-0.1c-0.1-0.1-0.2-0.1-0.3-0.1l-1.2-0.4
		l-1.2-0.4c-0.2-0.1-0.4-0.2-0.5-0.3l-0.6-0.3c-0.6-0.5-1.3-0.9-2-1.3c-0.7-0.5-1.4-1-2-1.5c-1.3-1.1-2.5-2.2-3.6-3.5
		c-0.5-0.6-1-1.2-1.5-1.9v1.4c-0.1,1.3-0.2,2.7-0.3,4.1c-0.1,1.4-0.3,2.8-0.5,4.2c-0.2,1.3-0.4,2.7-0.6,4.1l-0.4,2l-0.2,1
		c-0.1,0.2-0.1,0.4-0.1,0.5c-0.1,0.1-0.1,0.2-0.1,0.3c-0.1,0.1-0.1,0.2-0.2,0.2c0.1,0,0.1-0.1,0.2-0.2v-0.3c0.1-0.1,0.1-0.3,0.2-0.5
		l0.2-1c0.1-0.7,0.2-1.3,0.3-2l0.6-4.2c0.1-1.3,0.3-2.7,0.4-4.1v-0.1l-0.2,0.2l-0.4,0.3c-0.3,0.3-0.5,0.5-0.8,0.7
		c-0.6,0.4-1.2,0.8-1.8,1.1c-0.6,0.4-1.2,0.7-1.9,0.8c-0.3,0.1-0.7,0.1-1.1,0c-0.3,0-0.6-0.2-0.9-0.5c0.3,0.3,0.7,0.4,1,0.4
		c0.3,0.1,0.6,0,0.9-0.1c0.7-0.2,1.3-0.5,1.8-0.9c0.5-0.4,1-0.8,1.5-1.3l0.7-0.7l0.4-0.4l0.1-0.2l0.1-0.1c0.1,0,0.1,0,0.2-0.1
		l0.5,0.6c0.1-1.3,0.1-2.5,0.1-3.8v-1.7c-0.4-0.6-0.8-1.2-1.1-1.8l0.8-0.4c0.1,0.2,0.2,0.4,0.3,0.6c0-1.7,0-3.4-0.1-5.1v-1.3
		l-0.6-0.8l0.5-0.3v-5.9c0.2-5.5,0.3-11.1-0.2-16.6c-0.3-2.7-0.7-5.5-1.5-8.1c-0.6-2.1-1.4-4.1-2.5-5.8c-8,3.9-15.9,7.9-23.7,12.2
		c-1.7,2.7-3.3,5.6-4.4,8.5c-1.2,3-2,6.2-2,9.3c-0.1,3.2,0.5,6.4,1.6,9.4c1.2,3,2.8,5.9,4.7,8.5c-2-2.6-3.7-5.4-4.9-8.4
		c-0.6-1.5-1.1-3-1.4-4.6c-0.3-1.6-0.5-3.2-0.5-4.9c0-3.2,0.7-6.4,1.8-9.5c1-2.6,2.2-5,3.5-7.4c-0.1,0.1-0.2,0.1-0.3,0.2
		c-3.7,2.1-7.4,4.2-11,6.4c-2,2.2-3.4,4.8-4.4,7.5s-1.7,5.6-2.2,8.5c-0.4,2.9-0.7,5.8-0.9,8.7c-0.2,3-0.3,5.9-0.5,8.8
		c0.1-2.9,0.2-5.8,0.3-8.8c0.1-2.9,0.3-5.9,0.7-8.8c0.4-2.9,1-5.8,1.9-8.6c0.5-1.4,1.1-2.8,1.8-4.1c0.3-0.7,0.7-1.3,1.1-1.9
		c-0.5,0.3-0.9,0.6-1.4,0.9c-2.3,1.5-4.7,3-6.9,4.7l-0.1,0.2l-0.1-0.1c-1.1,0.8-2.1,1.6-3.2,2.5c-0.5,0.5-1,0.9-1.5,1.4
		c-0.5,0.5-1,1-1.4,1.5c0.4-0.5,0.8-1.1,1.3-1.6l1.5-1.5c0.9-0.8,1.9-1.6,2.9-2.4c-1.6-0.5-3.2-1.1-4.8-1.8l-5-2.4
		c-1.7-0.8-3.4-1.6-5.1-2.4c-1.6-0.9-3.2-1.7-4.9-2.6c1.7,0.8,3.4,1.6,5.1,2.4l5,2.2c1.7,0.7,3.5,1.4,5.2,2.1
		c1.7,0.7,3.5,1.3,5.3,1.8v0.1c2.1-1.7,4.2-3.2,6.3-4.7c2-1.4,4-2.7,5.9-4c-2.2-0.9-4.4-2-6.5-3.1c-2.2-1.3-4.3-2.6-6.4-4.1
		c-2-1.5-3.9-3.1-5.8-4.8c-1.5-1.5-3-3.1-4.3-4.9c0.2,0.4,0.4,0.8,0.7,1.2c-0.5-0.7-0.9-1.3-1.3-2c1.5,2,3.3,3.8,5.1,5.5
		c1.9,1.7,3.8,3.2,5.9,4.6s4.2,2.7,6.5,3.9c2.2,1.1,4.5,2.1,6.9,3l-0.2,0.3c2.5-1.7,5.1-3.3,7.7-4.9c6.5-4,13.2-7.9,20-11.6
		c-1.8-1.4-3.5-2.9-5.1-4.4c-1.7-1.8-3.4-3.6-5.1-5.3c-1.7-1.8-3.4-3.5-5.2-5.2c-1.9-1.6-3.8-3.1-5.9-4.4c-2-1.2-4.1-2.3-6.2-3.3
		l0.1,0.5c-1.4,0.2-2.8,0.4-4.1,0.7c-1.4,0.3-2.8,0.7-4.1,1.2c-1.3,0.5-2.5,1.2-3.7,2c-1.1,0.7-2.3,1.5-3.4,2.4
		c1.1-0.9,2.2-1.8,3.3-2.6c1.1-0.9,2.3-1.6,3.6-2.2c1.3-0.6,2.7-1.1,4.1-1.5c1.2-0.3,2.4-0.6,3.6-0.8c-2.1-0.9-4.3-1.8-6.6-2.5
		c-2.4-0.7-4.8-1.2-7.3-1.5c-2.4-0.3-4.9-0.3-7.4,0.1c2.5-0.4,5-0.4,7.4-0.2c2.5,0.2,5,0.7,7.4,1.4c1.8,0.5,3.6,1.2,5.4,1.9
		c0-1.4,0.3-2.7,0.7-4c0.4-1.4,0.9-2.7,1.3-4s0.7-2.6,1.1-3.9l0.6-2l0.4-1l0.2-0.4c0.1-0.1,0.1-0.2,0.2-0.2c0-0.1,0.2-0.1,0.2-0.1
		c-0.1,0-0.2,0-0.2,0.1l-0.2,0.2l-0.2,0.4c-0.1,0.3-0.2,0.7-0.3,1c-0.2,0.7-0.4,1.3-0.5,2c-0.3,1.4-0.5,2.7-0.8,4.1
		c-0.4,1.3-0.8,2.6-1.1,3.9c-0.3,1.4-0.5,2.7-0.5,4h-0.7c0.5,0.2,0.9,0.4,1.3,0.6h0.2c2.2,1,4.4,2.1,6.5,3.3
		c2.1,1.3,4.1,2.8,5.9,4.4c1.9,1.6,3.7,3.4,5.4,5.1c1.7,1.8,3.4,3.5,5.2,5.2c1.7,1.6,3.4,3.1,5.3,4.5c2.8-1.5,5.6-3,8.3-4.5v-0.1
		c0.1-0.1,0.1-0.1,0.2-0.1c0.2-0.1,0.4-0.2,0.5-0.3c0.1,0,0.1,0,0.2,0.1c4.8-2.6,9.7-5.1,14.6-7.5c5.1-2.5,10.2-4.9,15.4-7.2
		c5.3-2.3,10.5-4.5,16-6.4c2.7-0.9,5.4-1.8,8.3-2.6c1.4-0.4,2.8-0.7,4.3-1c1.5-0.3,3-0.6,4.5-0.7l0.5,5.8c-1.3,0.1-2.6,0.2-3.9,0.4
		c-1.3,0.2-2.7,0.5-4,0.8c-2.7,0.6-5.4,1.4-8,2.2c-5.4,1.6-10.7,3.5-15.9,5.5c-5.2,2.1-10.4,4.2-15.6,6.5c-3.5,1.5-6.9,3.1-10.4,4.7
		c-0.4,0-0.7,0.2-1,0.5c-0.1,0-0.1,0-0.2,0.1c-1.3,0.5-2.5,1.1-3.8,1.7l-3.6,1.8c0.4,0.7,0.8,1.3,1.1,2c0.5,1.3,1,2.6,1.4,4
		c0.7,2.7,1.1,5.5,1.4,8.2c0.4,5.6,0.2,11.2,0,16.7c-0.1,1.4-0.1,2.8-0.1,4.2v1.6c0.9,1.7,2,3.3,3.5,4.5s3.3,2.1,5.2,2.7
		c1.9,0.6,3.9,1,5.9,1.3s4,0.6,5.9,0.9c-2-0.2-4-0.4-6-0.7c-2-0.2-4-0.5-5.9-1.1c-2-0.5-3.9-1.4-5.5-2.6c-1.2-0.9-2.2-2-3.1-3.2v0.7
		c0.1,1.9,0.1,3.7,0.1,5.5c0.6,1.1,1.3,2.1,2.1,3c1,1.3,2.1,2.5,3.3,3.6c1.1,1.1,2.5,1.9,3.9,2.9l0.5,0.3c0.1,0.1,0.3,0.2,0.5,0.3
		c0.4,0.2,0.8,0.4,1.1,0.5l1.2,0.4c0.1,0.1,0.2,0.1,0.3,0.2S4330.9,4842,4330.7,4842.1C4330.8,4842.1,4330.8,4842.1,4330.7,4842.1
		L4330.7,4842.1z"/>
	<path id="path832" class="st9" d="M2128.1,2654.6c3.4-11.4-4.9-27.6-6.9-33.5c10.5-12.3-7.8-45.2-14.2,5.4
		c-6.2-4.9-21.9-4.3-30,1.9c0-14.9-22.2-12.9-30.4-10l-1.6,0.8c5.8-5.5,17.4-31.5,3.2-35.4c12.5-0.6,20.2-13,18-18.5
		c43.7,14.6,25.5-14.5,9.6-10.4c-1.7-12.2-10.9-14.5-22.9-17.5c8.5,2.1,20.6-7.3,23.2-15.5c3.4,8.2,16.8,4.9,22.1-1.3
		c5.1,24.1,21.5,15.3,14.1-4.2c11.2,18,22.5,18.7,23.4,19.9c6.1,8.2,3.8,25.7,3.8,25.7s14.6,5.8,20.7,13.3
		c11.9,14.7-1,16.7,12.5,34.5c-15.1-14.7-31.1-11.6-12.4,6.4c-8,2.2-7.8,5.4-7.7,16.1C2145.4,2625,2131.3,2643.8,2128.1,2654.6
		L2128.1,2654.6z"/>
	<path id="path834" class="st20" d="M2144.9,2625.2h-0.6c0.2,0,0.4,0,0.6-0.1h0.1v-0.1c-0.1-0.1-0.2-0.1-0.3-0.2
		c-0.4-0.1-0.8-0.2-1.2-0.3l-1.2-0.4c-0.2-0.1-0.4-0.2-0.5-0.3l-0.5-0.4c-0.7-0.4-1.4-0.8-2.1-1.3c-0.7-0.4-1.4-0.9-2-1.4
		c-1.3-1.1-2.5-2.2-3.6-3.5c-0.5-0.6-1-1.2-1.5-1.9v1.3c-0.1,1.4-0.2,2.8-0.3,4.2c-0.1,1.4-0.3,2.8-0.5,4.1l-0.6,4.2l-0.4,2l-0.2,1
		c-0.1,0.2-0.1,0.4-0.1,0.5c-0.1,0.1-0.1,0.2-0.1,0.3c-0.1,0-0.1,0.1-0.2,0.2c0.1-0.1,0.1-0.2,0.2-0.2c0-0.1,0-0.2,0.1-0.3
		c0-0.1,0-0.3,0.1-0.5l0.2-1c0.1-0.7,0.2-1.4,0.3-2.1c0.3-1.3,0.5-2.7,0.6-4.1c0.1-1.3,0.3-2.7,0.4-4.1v-0.1l-0.2,0.2l-0.4,0.3
		c-0.3,0.3-0.5,0.5-0.8,0.7c-0.5,0.4-1.1,0.8-1.7,1.1c-0.7,0.4-1.3,0.7-2,0.8c-0.3,0.1-0.7,0.1-1,0c-0.4-0.1-0.7-0.2-0.9-0.5
		c0.3,0.2,0.6,0.3,0.9,0.4c0.3,0,0.7,0,1-0.1c0.6-0.2,1.2-0.6,1.7-0.9c0.5-0.4,1-0.8,1.5-1.3l0.7-0.7l0.4-0.4l0.1-0.2l0.1-0.1
		c0.1,0,0.1,0,0.2-0.1l0.5,0.6c0.1-1.3,0.1-2.6,0.1-3.9c0.1-0.5,0.1-1.1,0.1-1.6l-1.2-1.8l0.8-0.4c0.1,0.2,0.2,0.4,0.3,0.6
		c0-1.7,0-3.4-0.1-5.1v-1.3c-0.2-0.3-0.4-0.6-0.6-0.9l0.5-0.2v-1.7c0-1.4,0-2.8,0.1-4.2c0.1-5.6,0.2-11.1-0.3-16.6
		c-0.3-2.8-0.7-5.5-1.5-8.1c-0.6-2.1-1.4-4.1-2.5-5.8c-8,3.9-15.9,7.9-23.7,12.2c-1.7,2.7-3.3,5.5-4.4,8.5c-1.2,3-1.9,6.1-2,9.3
		s0.5,6.4,1.6,9.4c1.2,3,2.8,5.9,4.7,8.5c-2-2.6-3.7-5.4-4.9-8.4c-0.6-1.5-1.1-3.1-1.4-4.6c-0.3-1.6-0.5-3.2-0.5-4.9
		c0-3.2,0.7-6.5,1.8-9.5c1-2.6,2.2-5.1,3.6-7.4l-0.4,0.2c-3.7,2.1-7.4,4.2-11,6.4c-2,2.1-3.4,4.7-4.4,7.5c-1,2.7-1.7,5.6-2.1,8.5
		c-0.5,2.9-0.8,5.8-1,8.7s-0.3,5.9-0.4,8.8c0-2.9,0.1-5.9,0.2-8.8c0.1-2.9,0.3-5.9,0.7-8.8c0.4-2.9,1-5.8,1.9-8.6
		c0.5-1.5,1.1-2.9,1.8-4.2c0.3-0.6,0.7-1.2,1.1-1.8c-0.5,0.3-0.9,0.6-1.3,0.9c-2.4,1.5-4.8,3-7,4.7l-0.1,0.1h-0.1
		c-1.1,0.8-2.1,1.6-3.1,2.5c-0.5,0.4-1.1,0.9-1.6,1.4c-0.5,0.5-1,1-1.4,1.5c0.4-0.5,0.8-1.1,1.3-1.6l1.5-1.5
		c0.9-0.9,1.9-1.7,2.9-2.4c-1.6-0.5-3.2-1.2-4.7-1.9c-1.7-0.7-3.4-1.5-5.1-2.3c-1.7-0.8-3.4-1.6-5-2.5c-1.7-0.8-3.3-1.6-5-2.5
		c1.7,0.8,3.4,1.6,5.1,2.3c1.7,0.8,3.4,1.6,5.1,2.3c1.7,0.7,3.4,1.4,5.1,2.1c1.8,0.7,3.5,1.3,5.3,1.8c2.1-1.6,4.2-3.1,6.3-4.6
		c2-1.4,4-2.7,5.9-4c-2.2-0.9-4.4-2-6.5-3.2c-2.2-1.2-4.3-2.5-6.4-4c-2-1.5-3.9-3.1-5.8-4.8c-1.5-1.5-3-3.1-4.3-4.9
		c0.2,0.4,0.4,0.8,0.7,1.2c-0.5-0.7-0.9-1.3-1.3-2c1.6,2,3.3,3.8,5.1,5.5c1.9,1.7,3.8,3.2,5.9,4.6s4.2,2.7,6.5,3.8
		c2.2,1.2,4.5,2.2,6.9,3.1l-0.2,0.3c2.6-1.7,5.2-3.3,7.7-4.9c6.6-4,13.3-7.9,20-11.6c-1.8-1.4-3.5-2.9-5.1-4.5
		c-1.7-1.7-3.4-3.5-5.1-5.2c-1.7-1.8-3.4-3.5-5.2-5.2c-1.9-1.6-3.8-3.1-5.9-4.4c-2-1.2-4-2.3-6.1-3.3v0.5c-1.4,0.1-2.8,0.4-4.1,0.6
		c-1.4,0.3-2.7,0.8-4,1.3c-1.3,0.5-2.6,1.2-3.8,2c-1.1,0.7-2.3,1.5-3.4,2.4c1.1-0.9,2.2-1.8,3.3-2.6c1.1-0.9,2.4-1.6,3.7-2.2
		c1.2-0.6,2.6-1.1,4-1.5c1.2-0.3,2.4-0.6,3.6-0.8c-2.1-1-4.3-1.8-6.6-2.5c-2.4-0.7-4.8-1.2-7.3-1.5c-2.4-0.3-4.9-0.3-7.4,0.1
		c2.5-0.4,5-0.5,7.5-0.2c2.4,0.2,4.9,0.7,7.3,1.4c1.8,0.5,3.6,1.2,5.4,1.9c0-1.4,0.3-2.8,0.7-4.1s0.9-2.6,1.3-3.9
		c0.4-1.3,0.7-2.6,1.1-4c0.2-0.7,0.4-1.3,0.6-1.9l0.4-1c0.1-0.1,0.1-0.3,0.2-0.5l0.2-0.2c0.1,0,0.2-0.1,0.2,0h-0.2l-0.2,0.2
		c-0.1,0.2-0.1,0.4-0.2,0.5c-0.1,0.3-0.2,0.7-0.3,1c-0.2,0.7-0.4,1.3-0.5,2c-0.3,1.3-0.5,2.7-0.8,4c-0.4,1.4-0.8,2.7-1.1,4
		s-0.5,2.7-0.5,4h-0.7c0.5,0.2,0.9,0.4,1.4,0.5c0,0.1,0,0.1,0.1,0.1c2.2,1,4.4,2.1,6.5,3.3c2.1,1.3,4.1,2.8,6,4.4
		c1.8,1.6,3.6,3.4,5.3,5.1c1.7,1.7,3.4,3.5,5.2,5.2c1.7,1.6,3.4,3.1,5.3,4.5c2.8-1.5,5.6-3,8.3-4.5v-0.1h0.1c0-0.1,0-0.1,0.1-0.1
		c0.2-0.1,0.4-0.3,0.5-0.4c0.1,0.1,0.1,0.1,0.2,0.1c4.8-2.5,9.7-5,14.6-7.4c5.1-2.5,10.2-4.9,15.5-7.2c5.2-2.3,10.5-4.5,15.9-6.4
		c2.7-1,5.5-1.8,8.3-2.6c1.4-0.4,2.8-0.8,4.3-1.1c1.5-0.3,3-0.5,4.5-0.6l0.5,5.8c-1.3,0.1-2.6,0.2-3.9,0.4c-1.3,0.2-2.7,0.5-4,0.8
		c-2.7,0.6-5.4,1.3-8,2.1c-5.4,1.7-10.6,3.6-15.9,5.6c-5.2,2.1-10.4,4.2-15.6,6.5c-3.5,1.5-6.9,3.1-10.3,4.7c-0.5,0-0.8,0.2-1.1,0.4
		l-0.2,0.2v-0.1c-1.3,0.6-2.5,1.2-3.7,1.8c-1.3,0.6-2.5,1.2-3.7,1.8c0.4,0.6,0.8,1.3,1.1,2c0.6,1.3,1.1,2.6,1.4,4
		c0.8,2.7,1.2,5.4,1.4,8.2c0.4,5.6,0.2,11.2,0,16.7c-0.1,1.4-0.1,2.8-0.1,4.2v1.6c0.9,1.7,2.1,3.2,3.5,4.4c1.5,1.3,3.3,2.2,5.2,2.8
		s3.9,1,5.9,1.3l6,0.9c-2-0.3-4.1-0.4-6.1-0.7c-2-0.2-4-0.5-5.9-1.1c-2-0.5-3.9-1.4-5.5-2.6c-1.2-0.9-2.2-2-3.1-3.3v0.8
		c0.1,1.9,0.1,3.7,0.1,5.5c0.6,1.1,1.3,2.1,2.1,3c1,1.3,2.1,2.4,3.3,3.5c1.1,1.2,2.5,2,3.9,3l0.5,0.3c0.1,0.1,0.3,0.2,0.5,0.3
		c0.4,0.2,0.8,0.4,1.2,0.5c0.3,0.1,0.7,0.3,1.1,0.4c0.1,0,0.2,0,0.3,0.1c0,0.1,0,0.1,0.1,0.1l-0.1,0.1L2144.9,2625.2L2144.9,2625.2z
		"/>
	<path id="path836" class="st36" d="M1752.9,1811.2c-21,8.4-31.9-54.6,16.7-35.8c26.2,10.1,29.6,43.4,48.3,61.3
		c-23.8,18.6-58.9,26.1-85.9,9.6c-44.1-27.1-0.6-63.4,21.6-28.5L1752.9,1811.2z"/>
	<path id="path838" class="st37" d="M1757.3,1822.3c-7.2-5.5-23.9-24.1-38.3-44.6c-17.4-24.5-25.9-43.5-24-53.3c0.7-3.9,3-6.3,7-7.4
		l-0.3-1.3c-4.5,1.3-7.1,4.1-8,8.4c-4.7,24.3,48.8,88.4,62.8,99.2L1757.3,1822.3z"/>
	<path id="path840" class="st30" d="M2059.5,2162.5c12.9-40.3,57-27.4,50.6,12.3c-5.4,33.6-33.4,53.4-58.2,72.1
		c-19-22.6-45.5-55.6-43.5-87.7c2.8-44.1,60.3-49.8,53.8-2.8L2059.5,2162.5z"/>
	<path id="path842" class="st37" d="M2135.1,2017.4c-3.7,32-21.4,59.2-40.1,87.8c-18.7,28.7-38.1,58.5-41.9,93.6l-1.3-0.2
		c3.8-35.4,23.3-65.2,42.1-94.1c18.6-28.4,36.2-55.5,39.9-87.1H2135.1z"/>
	<path id="path844" class="st36" d="M2403.2,2210.2c12.3,10.7,141.6,54.3,70.6,92c-42.7,22.6-117-50.7-72.9-79.9L2403.2,2210.2z"/>
	<path id="path846" class="st38" d="M2453,2255.4c-3-1.6-5.9-3.7-8.4-6l-0.9,0.9c0.7,0.7,1.4,1.3,2.1,1.8
		c-43.2-20.9-64.7-60.6-63.9-118.3l-1.3-0.1c-0.8,61.4,23.4,102.8,71.9,122.9L2453,2255.4z"/>
	<path id="path848" class="st37" d="M2175,1856.3c-28.4-4-67.9-16.7-87.4-41.3c-10.1-12.8-13.6-27.4-10.4-43.3l1.3,0.2
		c-3.2,15.6,0.2,29.8,10.1,42.3c22.9,28.9,73.9,41.2,101.1,42.2c0.1-0.6,0-1.1-0.3-1.4c-0.4-0.6-1.8-1.4-5.6-1.4v-1.3
		c3.5,0,5.7,0.7,6.7,2c0.6,0.7,0.7,1.7,0.3,2.9l-0.1,0.5h-0.5C2185.7,1857.5,2180.5,1857.1,2175,1856.3L2175,1856.3z"/>
	<path id="path850" class="st1" d="M2133.2,1848.9c-5.2-2.9-11.3-6.9-15.8-10.7c18.3,4.1,111.3-0.9,115.2,12.5
		c19.2,65.3-96.1,80.9-110.8-6.5L2133.2,1848.9z"/>
	<path id="path852" class="st17" d="M3361.8,2156.6c-4.3-21.9-1.3-46.2,1.6-69.6c3.3-26.8,6.4-52.1-1.5-71.2l4.2-1.7
		c8.3,20.2,5.1,46,1.7,73.4c-2.8,23.1-5.8,47.1-1.7,68.3L3361.8,2156.6z"/>
	<path id="path854" class="st17" d="M3404.7,2144.3c-0.1-3.1-2.9-76.8-1-120.3l4.4,0.2c-1.9,43.3,0.9,116.8,1.1,119.9L3404.7,2144.3
		z"/>
	<path id="path856" class="st10" d="M3544,1960.9c-9.7,18-27.3,34-48.5,46.8c-17.2,10.4-36.7,18.7-56.4,24.4
		c-4.7,1.3-9.3,2.5-13.9,3.6c-21.1,4.8-41.8,6.4-59.2,4.1c-6.2-0.9-14.8-3.9-24.7-8.6c-4.8-2.2-9.9-4.9-15.2-7.9
		c-1.7-0.9-3.4-1.9-5.1-2.9c-0.1-0.1-0.2-0.1-0.3-0.2c-11.7-7-24-15.4-35.5-24.5c-4.1-3.3-8.2-6.8-12-10.3
		c-23.8-21.4-40.5-45.2-34-63.2l-8.9,8c-14.1-16.9,9.7-51.6,45.1-54.6c25.7-2.1,47.9,19.7,69,37.4c3.5,3,7,5.9,10.5,8.5
		c3.3,2.4,6.5,4.7,9.7,6.6c33.3,19.8,71.2,33.1,109.8,36.9C3497.7,1967.3,3521.2,1966.1,3544,1960.9L3544,1960.9z"/>
	<path id="path858" class="st17" d="M3267.8,1967c-42.2-19.7-88.6-14.4-131.1-28c28.7-6.2,62.3-7.8,91.1-11.7
		c-21.5-16-53.3-56.6-65.3-74.5c24.1,20.1,60.2,42.2,90.4,49.5l-3.9,21.3c2.2-0.5,4.3-1,6.4-1.5l20.1,22.2
		C3278.2,1954.6,3275.6,1962.1,3267.8,1967z"/>
	<path id="path860" class="st22" d="M3357.7,1976.8c-19-77.6,81.6-120.7,146.9-140.2c16.6,40.2-11.7,104.8-47.1,129.5
		c-19.8,13.8-43.3,15.5-64.9,19.5C3371.3,1989.5,3357.7,1976.8,3357.7,1976.8z"/>
	<path id="path862" class="st27" d="M3250.9,1894.2c-33.7,26.8,25.1,90.7,59.9,55.2C3349.4,1910,3268.6,1862.5,3250.9,1894.2z"/>
	<path id="path864" class="st1" d="M3544,1960.9c-9.7,18-27.3,34-48.5,46.8c-13.4-11.1-21.8-26.7-21.1-42.7
		C3497.7,1967.3,3521.2,1966.1,3544,1960.9L3544,1960.9z"/>
	<path id="path866" class="st37" d="M3269.6,1932.2c-4.8,2.9-7.3-11.6-2.5-17.1l-6.9-1.9c4.6-0.9,8.2-0.8,10.9-0.1
		c2.9-0.2,6.9,1.6,12.3,6.5l-6.6-1.8C3278.6,1922.2,3275.8,1928.4,3269.6,1932.2z"/>
	<path id="path868" class="st39" d="M3315.1,1980.7l2.3-1.4c-6.8,4.3-0.3,13.6,6.4,8C3332.4,1979.8,3321.3,1972.6,3315.1,1980.7z"/>
	<path id="path870" class="st39" d="M3366.8,2006.4l2.3-0.6c-5,9.3,8.1,14.3,12.4,4.9C3385.9,2001.2,3368.5,1996.8,3366.8,2006.4z"
		/>
	<path id="path872" class="st39" d="M3354.9,1921.5c-1.2,1.9-3.3,3.3-6.4,3.5c-6.5,0.3-6.7-6.9-4.1-12
		C3347.9,1916,3351.4,1918.9,3354.9,1921.5z"/>
	<path id="path874" class="st39" d="M3441,1999.8c-4.3,1.7-8.7-1.1-9.5-4.1c0.5-1.4,1.1-2.7,1.8-3.9c0.4-0.2,0.9-0.4,1.4-0.6
		l-1.1,0.2c0.4-0.6,0.8-1.1,1.3-1.6C3442.8,1989.3,3449.5,1996.2,3441,1999.8z"/>
	<path id="path876" class="st39" d="M3439.1,2031.8v0.3c-4.7,1.3-9.3,2.5-13.9,3.6c-0.1-1.7,0.2-3.6,0.7-5.5c2.2-1.8,4.7-3.3,7.3-4
		C3435.9,2027.4,3438.1,2029.2,3439.1,2031.8z"/>
	<path id="path878" class="st39" d="M3285.9,1995.5c-0.3,0.1-0.5,0.1-0.7,0.2l-12-10.3c0.1-1.5,0.6-3,1.5-4.3
		c2.1-1.3,5.2-2.1,6.3-2.3c1.7-0.5,3.7-0.8,5.6-0.8C3293,1982.4,3295.5,1993.1,3285.9,1995.5L3285.9,1995.5z"/>
	<path id="path880" class="st39" d="M3341.3,2031.2c-4.8-2.2-9.9-4.9-15.2-7.9c0.5-0.9,1.1-1.8,2-2.7c3.4-2.2,7.3-3.3,11.3-3.1
		C3343.2,2020.7,3344.9,2025.9,3341.3,2031.2z"/>
	<path id="path882" class="st39" d="M3474,1994.9c1.8,2.1,2.2,4.8-1.7,4.9c-3.5,0.1-2.2-2.8-0.6-4.7
		C3472.5,1995,3473.3,1995,3474,1994.9L3474,1994.9z"/>
</g>
</svg>
